<?xml version="1.0" encoding="UTF-8"?>
<?xml-stylesheet href="https://cdnjs.cloudflare.com/ajax/libs/font-awesome/6.6.0/css/all.min.css" type="text/css"?>
<svg aria-roledescription="timeline" role="graphics-document document" viewBox="0 0 990 1346" style="max-width: 100%;" xmlns="http://www.w3.org/2000/svg" width="100%" id="graph-div" height="100%" xmlns:xlink="http://www.w3.org/1999/xlink"><style>#graph-div{font-family:"trebuchet ms",verdana,arial,sans-serif;font-size:16px;fill:#333;}#graph-div .error-icon{fill:hsl(220.5882352941, 100%, 98.3333333333%);}#graph-div .error-text{fill:rgb(8.5000000002, 5.7500000001, 0);stroke:rgb(8.5000000002, 5.7500000001, 0);}#graph-div .edge-thickness-normal{stroke-width:1px;}#graph-div .edge-thickness-thick{stroke-width:3.5px;}#graph-div .edge-pattern-solid{stroke-dasharray:0;}#graph-div .edge-thickness-invisible{stroke-width:0;fill:none;}#graph-div .edge-pattern-dashed{stroke-dasharray:3;}#graph-div .edge-pattern-dotted{stroke-dasharray:2;}#graph-div .marker{fill:#0b0b0b;stroke:#0b0b0b;}#graph-div .marker.cross{stroke:#0b0b0b;}#graph-div svg{font-family:"trebuchet ms",verdana,arial,sans-serif;font-size:16px;}#graph-div p{margin:0;}#graph-div .edge{stroke-width:3;}#graph-div .section--1 rect,#graph-div .section--1 path,#graph-div .section--1 circle,#graph-div .section--1 path{fill:hsl(40.5882352941, 100%, 68.3333333333%);}#graph-div .section--1 text{fill:#333;}#graph-div .node-icon--1{font-size:40px;color:#333;}#graph-div .section-edge--1{stroke:hsl(40.5882352941, 100%, 68.3333333333%);}#graph-div .edge-depth--1{stroke-width:17;}#graph-div .section--1 line{stroke:rgb(0, 52.2500000001, 161.5000000002);stroke-width:3;}#graph-div .lineWrapper line{stroke:#333;}#graph-div .disabled,#graph-div .disabled circle,#graph-div .disabled text{fill:lightgray;}#graph-div .disabled text{fill:#efefef;}#graph-div .section-0 rect,#graph-div .section-0 path,#graph-div .section-0 circle,#graph-div .section-0 path{fill:hsl(-79.4117647059, 100%, 68.3333333333%);}#graph-div .section-0 text{fill:#333;}#graph-div .node-icon-0{font-size:40px;color:#333;}#graph-div .section-edge-0{stroke:hsl(-79.4117647059, 100%, 68.3333333333%);}#graph-div .edge-depth-0{stroke-width:14;}#graph-div .section-0 line{stroke:rgb(52.2500000001, 161.5000000002, 0);stroke-width:3;}#graph-div .lineWrapper line{stroke:#333;}#graph-div .disabled,#graph-div .disabled circle,#graph-div .disabled text{fill:lightgray;}#graph-div .disabled text{fill:#efefef;}#graph-div .section-1 rect,#graph-div .section-1 path,#graph-div .section-1 circle,#graph-div .section-1 path{fill:hsl(220.5882352941, 100%, 73.3333333333%);}#graph-div .section-1 text{fill:#333;}#graph-div .node-icon-1{font-size:40px;color:#333;}#graph-div .section-edge-1{stroke:hsl(220.5882352941, 100%, 73.3333333333%);}#graph-div .edge-depth-1{stroke-width:11;}#graph-div .section-1 line{stroke:rgb(136.0000000002, 92.0000000001, 0);stroke-width:3;}#graph-div .lineWrapper line{stroke:#333;}#graph-div .disabled,#graph-div .disabled circle,#graph-div .disabled text{fill:lightgray;}#graph-div .disabled text{fill:#efefef;}#graph-div .section-2 rect,#graph-div .section-2 path,#graph-div .section-2 circle,#graph-div .section-2 path{fill:hsl(70.5882352941, 100%, 68.3333333333%);}#graph-div .section-2 text{fill:#333;}#graph-div .node-icon-2{font-size:40px;color:#333;}#graph-div .section-edge-2{stroke:hsl(70.5882352941, 100%, 68.3333333333%);}#graph-div .edge-depth-2{stroke-width:8;}#graph-div .section-2 line{stroke:rgb(28.5, 0, 161.5000000002);stroke-width:3;}#graph-div .lineWrapper line{stroke:#333;}#graph-div .disabled,#graph-div .disabled circle,#graph-div .disabled text{fill:lightgray;}#graph-div .disabled text{fill:#efefef;}#graph-div .section-3 rect,#graph-div .section-3 path,#graph-div .section-3 circle,#graph-div .section-3 path{fill:hsl(100.5882352941, 100%, 68.3333333333%);}#graph-div .section-3 text{fill:#333;}#graph-div .node-icon-3{font-size:40px;color:#333;}#graph-div .section-edge-3{stroke:hsl(100.5882352941, 100%, 68.3333333333%);}#graph-div .edge-depth-3{stroke-width:5;}#graph-div .section-3 line{stroke:rgb(109.2500000001, 0, 161.5000000002);stroke-width:3;}#graph-div .lineWrapper line{stroke:#333;}#graph-div .disabled,#graph-div .disabled circle,#graph-div .disabled text{fill:lightgray;}#graph-div .disabled text{fill:#efefef;}#graph-div .section-4 rect,#graph-div .section-4 path,#graph-div .section-4 circle,#graph-div .section-4 path{fill:hsl(130.5882352941, 100%, 68.3333333333%);}#graph-div .section-4 text{fill:#333;}#graph-div .node-icon-4{font-size:40px;color:#333;}#graph-div .section-edge-4{stroke:hsl(130.5882352941, 100%, 68.3333333333%);}#graph-div .edge-depth-4{stroke-width:2;}#graph-div .section-4 line{stroke:rgb(161.5000000002, 0, 133.0000000002);stroke-width:3;}#graph-div .lineWrapper line{stroke:#333;}#graph-div .disabled,#graph-div .disabled circle,#graph-div .disabled text{fill:lightgray;}#graph-div .disabled text{fill:#efefef;}#graph-div .section-5 rect,#graph-div .section-5 path,#graph-div .section-5 circle,#graph-div .section-5 path{fill:hsl(160.5882352941, 100%, 68.3333333333%);}#graph-div .section-5 text{fill:#333;}#graph-div .node-icon-5{font-size:40px;color:#333;}#graph-div .section-edge-5{stroke:hsl(160.5882352941, 100%, 68.3333333333%);}#graph-div .edge-depth-5{stroke-width:-1;}#graph-div .section-5 line{stroke:rgb(161.5000000002, 0, 52.2500000001);stroke-width:3;}#graph-div .lineWrapper line{stroke:#333;}#graph-div .disabled,#graph-div .disabled circle,#graph-div .disabled text{fill:lightgray;}#graph-div .disabled text{fill:#efefef;}#graph-div .section-6 rect,#graph-div .section-6 path,#graph-div .section-6 circle,#graph-div .section-6 path{fill:hsl(190.5882352941, 100%, 68.3333333333%);}#graph-div .section-6 text{fill:#333;}#graph-div .node-icon-6{font-size:40px;color:#333;}#graph-div .section-edge-6{stroke:hsl(190.5882352941, 100%, 68.3333333333%);}#graph-div .edge-depth-6{stroke-width:-4;}#graph-div .section-6 line{stroke:rgb(161.5000000002, 28.5, 0);stroke-width:3;}#graph-div .lineWrapper line{stroke:#333;}#graph-div .disabled,#graph-div .disabled circle,#graph-div .disabled text{fill:lightgray;}#graph-div .disabled text{fill:#efefef;}#graph-div .section-7 rect,#graph-div .section-7 path,#graph-div .section-7 circle,#graph-div .section-7 path{fill:hsl(250.5882352941, 100%, 75%);}#graph-div .section-7 text{fill:#333;}#graph-div .node-icon-7{font-size:40px;color:#333;}#graph-div .section-edge-7{stroke:hsl(250.5882352941, 100%, 75%);}#graph-div .edge-depth-7{stroke-width:-7;}#graph-div .section-7 line{stroke:rgb(105, 127.5, 0);stroke-width:3;}#graph-div .lineWrapper line{stroke:#333;}#graph-div .disabled,#graph-div .disabled circle,#graph-div .disabled text{fill:lightgray;}#graph-div .disabled text{fill:#efefef;}#graph-div .section-8 rect,#graph-div .section-8 path,#graph-div .section-8 circle,#graph-div .section-8 path{fill:hsl(310.5882352941, 100%, 68.3333333333%);}#graph-div .section-8 text{fill:#333;}#graph-div .node-icon-8{font-size:40px;color:#333;}#graph-div .section-edge-8{stroke:hsl(310.5882352941, 100%, 68.3333333333%);}#graph-div .edge-depth-8{stroke-width:-10;}#graph-div .section-8 line{stroke:rgb(0, 161.5000000002, 28.5);stroke-width:3;}#graph-div .lineWrapper line{stroke:#333;}#graph-div .disabled,#graph-div .disabled circle,#graph-div .disabled text{fill:lightgray;}#graph-div .disabled text{fill:#efefef;}#graph-div .section-9 rect,#graph-div .section-9 path,#graph-div .section-9 circle,#graph-div .section-9 path{fill:hsl(340.5882352941, 100%, 68.3333333333%);}#graph-div .section-9 text{fill:#333;}#graph-div .node-icon-9{font-size:40px;color:#333;}#graph-div .section-edge-9{stroke:hsl(340.5882352941, 100%, 68.3333333333%);}#graph-div .edge-depth-9{stroke-width:-13;}#graph-div .section-9 line{stroke:rgb(0, 161.5000000002, 109.2500000001);stroke-width:3;}#graph-div .lineWrapper line{stroke:#333;}#graph-div .disabled,#graph-div .disabled circle,#graph-div .disabled text{fill:lightgray;}#graph-div .disabled text{fill:#efefef;}#graph-div .section-10 rect,#graph-div .section-10 path,#graph-div .section-10 circle,#graph-div .section-10 path{fill:hsl(10.5882352941, 100%, 68.3333333333%);}#graph-div .section-10 text{fill:#333;}#graph-div .node-icon-10{font-size:40px;color:#333;}#graph-div .section-edge-10{stroke:hsl(10.5882352941, 100%, 68.3333333333%);}#graph-div .edge-depth-10{stroke-width:-16;}#graph-div .section-10 line{stroke:rgb(0, 133.0000000002, 161.5000000002);stroke-width:3;}#graph-div .lineWrapper line{stroke:#333;}#graph-div .disabled,#graph-div .disabled circle,#graph-div .disabled text{fill:lightgray;}#graph-div .disabled text{fill:#efefef;}#graph-div .section-root rect,#graph-div .section-root path,#graph-div .section-root circle{fill:hsl(40.5882352941, 100%, 68.3333333333%);}#graph-div .section-root text{fill:#333;}#graph-div .icon-container{height:100%;display:flex;justify-content:center;align-items:center;}#graph-div .edge{fill:none;}#graph-div .eventWrapper{filter:brightness(120%);}#graph-div :root{--mermaid-font-family:"trebuchet ms",verdana,arial,sans-serif;}</style><g></g><g></g><defs><marker orient="auto" markerHeight="4" markerWidth="6" refY="2" refX="5" id="arrowhead"><path d="M 0,0 V 4 L6,2 Z"></path></marker></defs><g transform="translate(100, 50)"><g class="timeline-node section--1"><g><path d="M0 62.8 v-57.8 q0,-5 5,-5 h380 q5,0 5,5 v62.8 H0 Z" class="node-bkg node-undefined" id="node-undefined"></path><line y2="67.8" x2="390" y1="67.8" x1="0" class="node-line--1"></line></g><g transform="translate(195, 10)"><text text-anchor="middle" dominant-baseline="middle" alignment-baseline="middle" dy="1em"><tspan dy="1em" x="0">2024</tspan></text></g></g></g><g transform="translate(100, 167.8)" class="taskWrapper"><g class="timeline-node section--1"><g><path d="M0 62.8 v-57.8 q0,-5 5,-5 h180 q5,0 5,5 v62.8 H0 Z" class="node-bkg node-undefined" id="node-undefined"></path><line y2="67.8" x2="190" y1="67.8" x1="0" class="node-line--1"></line></g><g transform="translate(95, 10)"><text text-anchor="middle" dominant-baseline="middle" alignment-baseline="middle" dy="1em"><tspan dy="1em" x="0">PI   22</tspan><tspan dy="1.1em" x="0">29.08.   –   06.11.2024</tspan></text></g></g></g><g class="lineWrapper"><line stroke-dasharray="5,5" marker-end="url(#arrowhead)" stroke="black" stroke-width="2" y2="1296.0000137329102" x2="195" y1="235.60000000000002" x1="195"></line></g><g transform="translate(100, 367.8)" class="eventWrapper"><g class="timeline-node section--1"><g><path d="M0 165.9999969482422 v-160.9999969482422 q0,-5 5,-5 h180 q5,0 5,5 v165.9999969482422 H0 Z" class="node-bkg node-undefined" id="node-undefined"></path><line y2="170.9999969482422" x2="190" y1="170.9999969482422" x1="0" class="node-line--1"></line></g><g transform="translate(95, 10)"><text text-anchor="middle" dominant-baseline="middle" alignment-baseline="middle" dy="1em"><tspan dy="1em" x="0">Eine   globale   Suche</tspan><tspan dy="1.1em" x="0">für   Katalog-Inhalte</tspan><tspan dy="1.1em" x="0">und   Datenkonzepte</tspan><tspan dy="1.1em" x="0">wird   geschaffen.</tspan><tspan dy="1.1em" x="0">Neu   lassen   sich   bei</tspan><tspan dy="1.1em" x="0">Codelisten   auch   die</tspan><tspan dy="1.1em" x="0">einzelnen   Einträge</tspan><tspan dy="1.1em" x="0">durchsuchen.</tspan></text></g></g></g><g transform="translate(100, 548.7999969482422)" class="eventWrapper"><g class="timeline-node section--1"><g><path d="M0 201.20000915527345 v-196.20000915527345 q0,-5 5,-5 h180 q5,0 5,5 v201.20000915527345 H0 Z" class="node-bkg node-undefined" id="node-undefined"></path><line y2="206.20000915527345" x2="190" y1="206.20000915527345" x1="0" class="node-line--1"></line></g><g transform="translate(95, 10)"><text text-anchor="middle" dominant-baseline="middle" alignment-baseline="middle" dy="1em"><tspan dy="1em" x="0">Codelisten   können</tspan><tspan dy="1.1em" x="0">optional   offen</tspan><tspan dy="1.1em" x="0">gelassen   werden.</tspan><tspan dy="1.1em" x="0">Damit   wird   es</tspan><tspan dy="1.1em" x="0">möglich   publizierten</tspan><tspan dy="1.1em" x="0">Codelisten   neue</tspan><tspan dy="1.1em" x="0">Einträge   anzufügen,</tspan><tspan dy="1.1em" x="0">ohne   dass   eine   neue</tspan><tspan dy="1.1em" x="0">Version   erstellt</tspan><tspan dy="1.1em" x="0">werden   muss.</tspan></text></g></g></g><g transform="translate(100, 765.0000061035157)" class="eventWrapper"><g class="timeline-node section--1"><g><path d="M0 165.9999969482422 v-160.9999969482422 q0,-5 5,-5 h180 q5,0 5,5 v165.9999969482422 H0 Z" class="node-bkg node-undefined" id="node-undefined"></path><line y2="170.9999969482422" x2="190" y1="170.9999969482422" x1="0" class="node-line--1"></line></g><g transform="translate(95, 10)"><text text-anchor="middle" dominant-baseline="middle" alignment-baseline="middle" dy="1em"><tspan dy="1em" x="0">Grafische</tspan><tspan dy="1.1em" x="0">Verbesserungen</tspan><tspan dy="1.1em" x="0">durch   die   Migration</tspan><tspan dy="1.1em" x="0">auf   die   Version   11</tspan><tspan dy="1.1em" x="0">des   Designsystems</tspan><tspan dy="1.1em" x="0">Oblique.   Links   zu</tspan><tspan dy="1.1em" x="0">Github   und   LinkedIn</tspan><tspan dy="1.1em" x="0">werden   ergänzt.</tspan></text></g></g></g><g transform="translate(100, 946.0000030517579)" class="eventWrapper"><g class="timeline-node section--1"><g><path d="M0 95.59999542236328 v-90.59999542236328 q0,-5 5,-5 h180 q5,0 5,5 v95.59999542236328 H0 Z" class="node-bkg node-undefined" id="node-undefined"></path><line y2="100.59999542236328" x2="190" y1="100.59999542236328" x1="0" class="node-line--1"></line></g><g transform="translate(95, 10)"><text text-anchor="middle" dominant-baseline="middle" alignment-baseline="middle" dy="1em"><tspan dy="1em" x="0">Codelisten   sollen</tspan><tspan dy="1.1em" x="0">sich   auch   als</tspan><tspan dy="1.1em" x="0">Excel-Datei</tspan><tspan dy="1.1em" x="0">exportieren   lassen.</tspan></text></g></g></g><g transform="translate(100, 1056.599998474121)" class="eventWrapper"><g class="timeline-node section--1"><g><path d="M0 218.80001525878907 v-213.80001525878907 q0,-5 5,-5 h180 q5,0 5,5 v218.80001525878907 H0 Z" class="node-bkg node-undefined" id="node-undefined"></path><line y2="223.80001525878907" x2="190" y1="223.80001525878907" x1="0" class="node-line--1"></line></g><g transform="translate(95, 10)"><text text-anchor="middle" dominant-baseline="middle" alignment-baseline="middle" dy="1em"><tspan dy="1em" x="0">Auf   dem</tspan><tspan dy="1.1em" x="0">API-Gateway   für</tspan><tspan dy="1.1em" x="0">I14Y-Partner   werden</tspan><tspan dy="1.1em" x="0">zusätzliche</tspan><tspan dy="1.1em" x="0">Endpunkte   fürs</tspan><tspan dy="1.1em" x="0">Erfassen   und</tspan><tspan dy="1.1em" x="0">Beziehen   von</tspan><tspan dy="1.1em" x="0">Beschreibungen   von</tspan><tspan dy="1.1em" x="0">Datensammlungen</tspan><tspan dy="1.1em" x="0">zur   Verfügung</tspan><tspan dy="1.1em" x="0">gestellt.</tspan></text></g></g></g><g transform="translate(300, 167.8)" class="taskWrapper"><g class="timeline-node section--1"><g><path d="M0 62.8 v-57.8 q0,-5 5,-5 h180 q5,0 5,5 v62.8 H0 Z" class="node-bkg node-undefined" id="node-undefined"></path><line y2="67.8" x2="190" y1="67.8" x1="0" class="node-line--1"></line></g><g transform="translate(95, 10)"><text text-anchor="middle" dominant-baseline="middle" alignment-baseline="middle" dy="1em"><tspan dy="1em" x="0">PI   23</tspan><tspan dy="1.1em" x="0">07.11.   –   15.01.2025</tspan></text></g></g></g><g class="lineWrapper"><line stroke-dasharray="5,5" marker-end="url(#arrowhead)" stroke="black" stroke-width="2" y2="1296.0000137329102" x2="395" y1="235.60000000000002" x1="395"></line></g><g transform="translate(300, 367.8)" class="eventWrapper"><g class="timeline-node section--1"><g><path d="M0 148.39999084472657 v-143.39999084472657 q0,-5 5,-5 h180 q5,0 5,5 v148.39999084472657 H0 Z" class="node-bkg node-undefined" id="node-undefined"></path><line y2="153.39999084472657" x2="190" y1="153.39999084472657" x1="0" class="node-line--1"></line></g><g transform="translate(95, 10)"><text text-anchor="middle" dominant-baseline="middle" alignment-baseline="middle" dy="1em"><tspan dy="1em" x="0">Die   Änderungen   an</tspan><tspan dy="1.1em" x="0">Beschreibungen   von</tspan><tspan dy="1.1em" x="0">Datensammlungen</tspan><tspan dy="1.1em" x="0">und   -konzepten</tspan><tspan dy="1.1em" x="0">werden</tspan><tspan dy="1.1em" x="0">aufgezeichnet   (Audit</tspan><tspan dy="1.1em" x="0">Trail).</tspan></text></g></g></g><g transform="translate(300, 531.1999908447266)" class="eventWrapper"><g class="timeline-node section--1"><g><path d="M0 78.00000457763672 v-73.00000457763672 q0,-5 5,-5 h180 q5,0 5,5 v78.00000457763672 H0 Z" class="node-bkg node-undefined" id="node-undefined"></path><line y2="83.00000457763672" x2="190" y1="83.00000457763672" x1="0" class="node-line--1"></line></g><g transform="translate(95, 10)"><text text-anchor="middle" dominant-baseline="middle" alignment-baseline="middle" dy="1em"><tspan dy="1em" x="0"></tspan><tspan dy="1.1em" x="0">Backend-Optimierungen</tspan><tspan dy="1.1em" x="0">im   Bereich   Konzepte</tspan><tspan dy="1.1em" x="0">und   Prozesse.</tspan></text></g></g></g><g transform="translate(300, 624.1999954223633)" class="eventWrapper"><g class="timeline-node section--1"><g><path d="M0 77.99999694824218 v-72.99999694824218 q0,-5 5,-5 h180 q5,0 5,5 v77.99999694824218 H0 Z" class="node-bkg node-undefined" id="node-undefined"></path><line y2="82.99999694824218" x2="190" y1="82.99999694824218" x1="0" class="node-line--1"></line></g><g transform="translate(95, 10)"><text text-anchor="middle" dominant-baseline="middle" alignment-baseline="middle" dy="1em"><tspan dy="1em" x="0">Filtermöglichkeiten</tspan><tspan dy="1.1em" x="0">für   Codelisten</tspan><tspan dy="1.1em" x="0">werden   ausgebaut.</tspan></text></g></g></g><g transform="translate(300, 717.1999923706054)" class="eventWrapper"><g class="timeline-node section--1"><g><path d="M0 95.59999542236328 v-90.59999542236328 q0,-5 5,-5 h180 q5,0 5,5 v95.59999542236328 H0 Z" class="node-bkg node-undefined" id="node-undefined"></path><line y2="100.59999542236328" x2="190" y1="100.59999542236328" x1="0" class="node-line--1"></line></g><g transform="translate(95, 10)"><text text-anchor="middle" dominant-baseline="middle" alignment-baseline="middle" dy="1em"><tspan dy="1em" x="0">Im   I14Y-Dashboard</tspan><tspan dy="1.1em" x="0">werden   zusätzliche</tspan><tspan dy="1.1em" x="0">Auswertungsmöglichkeiten</tspan><tspan dy="1.1em" x="0">geschaffen.</tspan></text></g></g></g><g transform="translate(300, 827.7999877929686)" class="eventWrapper"><g class="timeline-node section--1"><g><path d="M0 130.79999237060548 v-125.79999237060548 q0,-5 5,-5 h180 q5,0 5,5 v130.79999237060548 H0 Z" class="node-bkg node-undefined" id="node-undefined"></path><line y2="135.79999237060548" x2="190" y1="135.79999237060548" x1="0" class="node-line--1"></line></g><g transform="translate(95, 10)"><text text-anchor="middle" dominant-baseline="middle" alignment-baseline="middle" dy="1em"><tspan dy="1em" x="0">Auf   dem</tspan><tspan dy="1.1em" x="0">API-Gateway   für</tspan><tspan dy="1.1em" x="0">I14Y-Partner   werden</tspan><tspan dy="1.1em" x="0">zusätzliche</tspan><tspan dy="1.1em" x="0">Endpunkte   zur</tspan><tspan dy="1.1em" x="0">Verfügung   gestellt.</tspan></text></g></g></g><g transform="translate(500, 50)"><g class="timeline-node section-0"><g><path d="M0 62.8 v-57.8 q0,-5 5,-5 h180 q5,0 5,5 v62.8 H0 Z" class="node-bkg node-undefined" id="node-undefined"></path><line y2="67.8" x2="190" y1="67.8" x1="0" class="node-line-0"></line></g><g transform="translate(95, 10)"><text text-anchor="middle" dominant-baseline="middle" alignment-baseline="middle" dy="1em"><tspan dy="1em" x="0">2025</tspan></text></g></g></g><g transform="translate(500, 167.8)" class="taskWrapper"><g class="timeline-node section-0"><g><path d="M0 62.8 v-57.8 q0,-5 5,-5 h180 q5,0 5,5 v62.8 H0 Z" class="node-bkg node-undefined" id="node-undefined"></path><line y2="67.8" x2="190" y1="67.8" x1="0" class="node-line-0"></line></g><g transform="translate(95, 10)"><text text-anchor="middle" dominant-baseline="middle" alignment-baseline="middle" dy="1em"><tspan dy="1em" x="0">PIs   24   –   28</tspan></text></g></g></g><g class="lineWrapper"><line stroke-dasharray="5,5" marker-end="url(#arrowhead)" stroke="black" stroke-width="2" y2="1296.0000137329102" x2="595" y1="235.60000000000002" x1="595"></line></g><g transform="translate(500, 367.8)" class="eventWrapper"><g class="timeline-node section-0"><g><path d="M0 113.19999389648437 v-108.19999389648437 q0,-5 5,-5 h180 q5,0 5,5 v113.19999389648437 H0 Z" class="node-bkg node-undefined" id="node-undefined"></path><line y2="118.19999389648437" x2="190" y1="118.19999389648437" x1="0" class="node-line-0"></line></g><g transform="translate(95, 10)"><text text-anchor="middle" dominant-baseline="middle" alignment-baseline="middle" dy="1em"><tspan dy="1em" x="0">Automatisches</tspan><tspan dy="1.1em" x="0">Onboarding   für</tspan><tspan dy="1.1em" x="0">Mitarbeitende   der</tspan><tspan dy="1.1em" x="0">Bundesverwaltung</tspan><tspan dy="1.1em" x="0">wird   ermöglicht.</tspan></text></g></g></g><g transform="translate(500, 495.9999938964844)" class="eventWrapper"><g class="timeline-node section-0"><g><path d="M0 113.19999389648437 v-108.19999389648437 q0,-5 5,-5 h180 q5,0 5,5 v113.19999389648437 H0 Z" class="node-bkg node-undefined" id="node-undefined"></path><line y2="118.19999389648437" x2="190" y1="118.19999389648437" x1="0" class="node-line-0"></line></g><g transform="translate(95, 10)"><text text-anchor="middle" dominant-baseline="middle" alignment-baseline="middle" dy="1em"><tspan dy="1em" x="0">Bereinigung   der</tspan><tspan dy="1.1em" x="0">Microservices,</tspan><tspan dy="1.1em" x="0">grundlegende</tspan><tspan dy="1.1em" x="0">Überarbeitung   des</tspan><tspan dy="1.1em" x="0">Backend-Systems.</tspan></text></g></g></g><g transform="translate(500, 624.1999877929687)" class="eventWrapper"><g class="timeline-node section-0"><g><path d="M0 130.79999237060548 v-125.79999237060548 q0,-5 5,-5 h180 q5,0 5,5 v130.79999237060548 H0 Z" class="node-bkg node-undefined" id="node-undefined"></path><line y2="135.79999237060548" x2="190" y1="135.79999237060548" x1="0" class="node-line-0"></line></g><g transform="translate(95, 10)"><text text-anchor="middle" dominant-baseline="middle" alignment-baseline="middle" dy="1em"><tspan dy="1em" x="0">Die   Unterschiede</tspan><tspan dy="1.1em" x="0">zwischen</tspan><tspan dy="1.1em" x="0">Datensammlungen</tspan><tspan dy="1.1em" x="0">lassen   sich   mittels</tspan><tspan dy="1.1em" x="0">Mapping-Tabellen</tspan><tspan dy="1.1em" x="0">dokumentieren.</tspan></text></g></g></g><g transform="translate(500, 769.9999801635743)" class="eventWrapper"><g class="timeline-node section-0"><g><path d="M0 113.19999389648437 v-108.19999389648437 q0,-5 5,-5 h180 q5,0 5,5 v113.19999389648437 H0 Z" class="node-bkg node-undefined" id="node-undefined"></path><line y2="118.19999389648437" x2="190" y1="118.19999389648437" x1="0" class="node-line-0"></line></g><g transform="translate(95, 10)"><text text-anchor="middle" dominant-baseline="middle" alignment-baseline="middle" dy="1em"><tspan dy="1em" x="0">Eine   Funktion   zum</tspan><tspan dy="1.1em" x="0">Abonnieren   von</tspan><tspan dy="1.1em" x="0">Datensammlungen</tspan><tspan dy="1.1em" x="0">und   -konzepten   wird</tspan><tspan dy="1.1em" x="0">geschaffen.</tspan></text></g></g></g><g transform="translate(500, 898.1999740600586)" class="eventWrapper"><g class="timeline-node section-0"><g><path d="M0 77.99999694824218 v-72.99999694824218 q0,-5 5,-5 h180 q5,0 5,5 v77.99999694824218 H0 Z" class="node-bkg node-undefined" id="node-undefined"></path><line y2="82.99999694824218" x2="190" y1="82.99999694824218" x1="0" class="node-line-0"></line></g><g transform="translate(95, 10)"><text text-anchor="middle" dominant-baseline="middle" alignment-baseline="middle" dy="1em"><tspan dy="1em" x="0">Die   Möglichkeiten</tspan><tspan dy="1.1em" x="0">zum   Reporting</tspan><tspan dy="1.1em" x="0">werden   verbessert.</tspan></text></g></g></g><g transform="translate(500, 991.1999710083007)" class="eventWrapper"><g class="timeline-node section-0"><g><path d="M0 113.19999389648437 v-108.19999389648437 q0,-5 5,-5 h180 q5,0 5,5 v113.19999389648437 H0 Z" class="node-bkg node-undefined" id="node-undefined"></path><line y2="118.19999389648437" x2="190" y1="118.19999389648437" x1="0" class="node-line-0"></line></g><g transform="translate(95, 10)"><text text-anchor="middle" dominant-baseline="middle" alignment-baseline="middle" dy="1em"><tspan dy="1em" x="0">Sämtliche   öffentlich</tspan><tspan dy="1.1em" x="0">publizierten   Inhalte</tspan><tspan dy="1.1em" x="0">stehen   als</tspan><tspan dy="1.1em" x="0">Linked-Data   zur</tspan><tspan dy="1.1em" x="0">Verfügung.</tspan></text></g></g></g><g transform="translate(700, 50)"><g class="timeline-node section-1"><g><path d="M0 62.8 v-57.8 q0,-5 5,-5 h180 q5,0 5,5 v62.8 H0 Z" class="node-bkg node-undefined" id="node-undefined"></path><line y2="67.8" x2="190" y1="67.8" x1="0" class="node-line-1"></line></g><g transform="translate(95, 10)"><text text-anchor="middle" dominant-baseline="middle" alignment-baseline="middle" dy="1em"><tspan dy="1em" x="0">2026</tspan></text></g></g></g><g transform="translate(700, 167.8)" class="taskWrapper"><g class="timeline-node section-1"><g><path d="M0 62.8 v-57.8 q0,-5 5,-5 h180 q5,0 5,5 v62.8 H0 Z" class="node-bkg node-undefined" id="node-undefined"></path><line y2="67.8" x2="190" y1="67.8" x1="0" class="node-line-1"></line></g><g transform="translate(95, 10)"><text text-anchor="middle" dominant-baseline="middle" alignment-baseline="middle" dy="1em"><tspan dy="1em" x="0">PIs   29   –   33</tspan></text></g></g></g><g class="lineWrapper"><line stroke-dasharray="5,5" marker-end="url(#arrowhead)" stroke="black" stroke-width="2" y2="1296.0000137329102" x2="795" y1="235.60000000000002" x1="795"></line></g><g transform="translate(700, 367.8)" class="eventWrapper"><g class="timeline-node section-1"><g><path d="M0 95.59999542236328 v-90.59999542236328 q0,-5 5,-5 h180 q5,0 5,5 v95.59999542236328 H0 Z" class="node-bkg node-undefined" id="node-undefined"></path><line y2="100.59999542236328" x2="190" y1="100.59999542236328" x1="0" class="node-line-1"></line></g><g transform="translate(95, 10)"><text text-anchor="middle" dominant-baseline="middle" alignment-baseline="middle" dy="1em"><tspan dy="1em" x="0">Eine   Vorschau   auf</tspan><tspan dy="1.1em" x="0">die   eigentlichen</tspan><tspan dy="1.1em" x="0">Daten   wird</tspan><tspan dy="1.1em" x="0">eingebunden.</tspan></text></g></g></g><g transform="translate(700, 478.3999954223633)" class="eventWrapper"><g class="timeline-node section-1"><g><path d="M0 130.79999237060548 v-125.79999237060548 q0,-5 5,-5 h180 q5,0 5,5 v130.79999237060548 H0 Z" class="node-bkg node-undefined" id="node-undefined"></path><line y2="135.79999237060548" x2="190" y1="135.79999237060548" x1="0" class="node-line-1"></line></g><g transform="translate(95, 10)"><text text-anchor="middle" dominant-baseline="middle" alignment-baseline="middle" dy="1em"><tspan dy="1em" x="0">Zusätzliche</tspan><tspan dy="1.1em" x="0">Möglichkeiten   zur</tspan><tspan dy="1.1em" x="0">Dokumentation   des</tspan><tspan dy="1.1em" x="0">Datenflusses   werden</tspan><tspan dy="1.1em" x="0">geschaffen   (Data</tspan><tspan dy="1.1em" x="0">Lineage).</tspan></text></g></g></g><g transform="translate(700, 624.1999877929688)" class="eventWrapper"><g class="timeline-node section-1"><g><path d="M0 95.59999542236328 v-90.59999542236328 q0,-5 5,-5 h180 q5,0 5,5 v95.59999542236328 H0 Z" class="node-bkg node-undefined" id="node-undefined"></path><line y2="100.59999542236328" x2="190" y1="100.59999542236328" x1="0" class="node-line-1"></line></g><g transform="translate(95, 10)"><text text-anchor="middle" dominant-baseline="middle" alignment-baseline="middle" dy="1em"><tspan dy="1em" x="0">Die</tspan><tspan dy="1.1em" x="0">Verbindungsmöglichkeiten</tspan><tspan dy="1.1em" x="0">zu   anderen   Tools</tspan><tspan dy="1.1em" x="0">werden   erweitert.</tspan></text></g></g></g><g transform="translate(700, 734.7999832153321)" class="eventWrapper"><g class="timeline-node section-1"><g><path d="M0 95.59999542236328 v-90.59999542236328 q0,-5 5,-5 h180 q5,0 5,5 v95.59999542236328 H0 Z" class="node-bkg node-undefined" id="node-undefined"></path><line y2="100.59999542236328" x2="190" y1="100.59999542236328" x1="0" class="node-line-1"></line></g><g transform="translate(95, 10)"><text text-anchor="middle" dominant-baseline="middle" alignment-baseline="middle" dy="1em"><tspan dy="1em" x="0">Der   komplette</tspan><tspan dy="1.1em" x="0">Programmcode   wird</tspan><tspan dy="1.1em" x="0">freigegeben   (Open</tspan><tspan dy="1.1em" x="0">Source).</tspan></text></g></g></g><g transform="translate(700, 845.3999786376953)" class="eventWrapper"><g class="timeline-node section-1"><g><path d="M0 60.39999847412109 v-55.39999847412109 q0,-5 5,-5 h180 q5,0 5,5 v60.39999847412109 H0 Z" class="node-bkg node-undefined" id="node-undefined"></path><line y2="65.39999847412109" x2="190" y1="65.39999847412109" x1="0" class="node-line-1"></line></g><g transform="translate(95, 10)"><text text-anchor="middle" dominant-baseline="middle" alignment-baseline="middle" dy="1em"><tspan dy="1em" x="0">Die   Projektphase</tspan><tspan dy="1.1em" x="0">wird   abgeschlossen.</tspan></text></g></g></g><g class="lineWrapper"><line marker-end="url(#arrowhead)" stroke="black" stroke-width="4" y2="285.6" x2="940" y1="285.6" x1="50"></line></g></svg>