<svg aria-roledescription="timeline" role="graphics-document document" viewBox="0 -63 1190 1195.4000244140625" style="max-width: 1190px; background-color: white;" xmlns:xlink="http://www.w3.org/1999/xlink" xmlns="http://www.w3.org/2000/svg" width="100%" id="my-svg"><style>#my-svg{font-family:"trebuchet ms",verdana,arial,sans-serif;font-size:16px;fill:#333;}#my-svg .error-icon{fill:#552222;}#my-svg .error-text{fill:#552222;stroke:#552222;}#my-svg .edge-thickness-normal{stroke-width:1px;}#my-svg .edge-thickness-thick{stroke-width:3.5px;}#my-svg .edge-pattern-solid{stroke-dasharray:0;}#my-svg .edge-thickness-invisible{stroke-width:0;fill:none;}#my-svg .edge-pattern-dashed{stroke-dasharray:3;}#my-svg .edge-pattern-dotted{stroke-dasharray:2;}#my-svg .marker{fill:#333333;stroke:#333333;}#my-svg .marker.cross{stroke:#333333;}#my-svg svg{font-family:"trebuchet ms",verdana,arial,sans-serif;font-size:16px;}#my-svg p{margin:0;}#my-svg .edge{stroke-width:3;}#my-svg .section--1 rect,#my-svg .section--1 path,#my-svg .section--1 circle,#my-svg .section--1 path{fill:hsl(240, 100%, 76.2745098039%);}#my-svg .section--1 text{fill:#ffffff;}#my-svg .node-icon--1{font-size:40px;color:#ffffff;}#my-svg .section-edge--1{stroke:hsl(240, 100%, 76.2745098039%);}#my-svg .edge-depth--1{stroke-width:17;}#my-svg .section--1 line{stroke:hsl(60, 100%, 86.2745098039%);stroke-width:3;}#my-svg .lineWrapper line{stroke:#ffffff;}#my-svg .disabled,#my-svg .disabled circle,#my-svg .disabled text{fill:lightgray;}#my-svg .disabled text{fill:#efefef;}#my-svg .section-0 rect,#my-svg .section-0 path,#my-svg .section-0 circle,#my-svg .section-0 path{fill:hsl(60, 100%, 73.5294117647%);}#my-svg .section-0 text{fill:black;}#my-svg .node-icon-0{font-size:40px;color:black;}#my-svg .section-edge-0{stroke:hsl(60, 100%, 73.5294117647%);}#my-svg .edge-depth-0{stroke-width:14;}#my-svg .section-0 line{stroke:hsl(240, 100%, 83.5294117647%);stroke-width:3;}#my-svg .lineWrapper line{stroke:black;}#my-svg .disabled,#my-svg .disabled circle,#my-svg .disabled text{fill:lightgray;}#my-svg .disabled text{fill:#efefef;}#my-svg .section-1 rect,#my-svg .section-1 path,#my-svg .section-1 circle,#my-svg .section-1 path{fill:hsl(80, 100%, 76.2745098039%);}#my-svg .section-1 text{fill:black;}#my-svg .node-icon-1{font-size:40px;color:black;}#my-svg .section-edge-1{stroke:hsl(80, 100%, 76.2745098039%);}#my-svg .edge-depth-1{stroke-width:11;}#my-svg .section-1 line{stroke:hsl(260, 100%, 86.2745098039%);stroke-width:3;}#my-svg .lineWrapper line{stroke:black;}#my-svg .disabled,#my-svg .disabled circle,#my-svg .disabled text{fill:lightgray;}#my-svg .disabled text{fill:#efefef;}#my-svg .section-2 rect,#my-svg .section-2 path,#my-svg .section-2 circle,#my-svg .section-2 path{fill:hsl(270, 100%, 76.2745098039%);}#my-svg .section-2 text{fill:#ffffff;}#my-svg .node-icon-2{font-size:40px;color:#ffffff;}#my-svg .section-edge-2{stroke:hsl(270, 100%, 76.2745098039%);}#my-svg .edge-depth-2{stroke-width:8;}#my-svg .section-2 line{stroke:hsl(90, 100%, 86.2745098039%);stroke-width:3;}#my-svg .lineWrapper line{stroke:#ffffff;}#my-svg .disabled,#my-svg .disabled circle,#my-svg .disabled text{fill:lightgray;}#my-svg .disabled text{fill:#efefef;}#my-svg .section-3 rect,#my-svg .section-3 path,#my-svg .section-3 circle,#my-svg .section-3 path{fill:hsl(300, 100%, 76.2745098039%);}#my-svg .section-3 text{fill:black;}#my-svg .node-icon-3{font-size:40px;color:black;}#my-svg .section-edge-3{stroke:hsl(300, 100%, 76.2745098039%);}#my-svg .edge-depth-3{stroke-width:5;}#my-svg .section-3 line{stroke:hsl(120, 100%, 86.2745098039%);stroke-width:3;}#my-svg .lineWrapper line{stroke:black;}#my-svg .disabled,#my-svg .disabled circle,#my-svg .disabled text{fill:lightgray;}#my-svg .disabled text{fill:#efefef;}#my-svg .section-4 rect,#my-svg .section-4 path,#my-svg .section-4 circle,#my-svg .section-4 path{fill:hsl(330, 100%, 76.2745098039%);}#my-svg .section-4 text{fill:black;}#my-svg .node-icon-4{font-size:40px;color:black;}#my-svg .section-edge-4{stroke:hsl(330, 100%, 76.2745098039%);}#my-svg .edge-depth-4{stroke-width:2;}#my-svg .section-4 line{stroke:hsl(150, 100%, 86.2745098039%);stroke-width:3;}#my-svg .lineWrapper line{stroke:black;}#my-svg .disabled,#my-svg .disabled circle,#my-svg .disabled text{fill:lightgray;}#my-svg .disabled text{fill:#efefef;}#my-svg .section-5 rect,#my-svg .section-5 path,#my-svg .section-5 circle,#my-svg .section-5 path{fill:hsl(0, 100%, 76.2745098039%);}#my-svg .section-5 text{fill:black;}#my-svg .node-icon-5{font-size:40px;color:black;}#my-svg .section-edge-5{stroke:hsl(0, 100%, 76.2745098039%);}#my-svg .edge-depth-5{stroke-width:-1;}#my-svg .section-5 line{stroke:hsl(180, 100%, 86.2745098039%);stroke-width:3;}#my-svg .lineWrapper line{stroke:black;}#my-svg .disabled,#my-svg .disabled circle,#my-svg .disabled text{fill:lightgray;}#my-svg .disabled text{fill:#efefef;}#my-svg .section-6 rect,#my-svg .section-6 path,#my-svg .section-6 circle,#my-svg .section-6 path{fill:hsl(30, 100%, 76.2745098039%);}#my-svg .section-6 text{fill:black;}#my-svg .node-icon-6{font-size:40px;color:black;}#my-svg .section-edge-6{stroke:hsl(30, 100%, 76.2745098039%);}#my-svg .edge-depth-6{stroke-width:-4;}#my-svg .section-6 line{stroke:hsl(210, 100%, 86.2745098039%);stroke-width:3;}#my-svg .lineWrapper line{stroke:black;}#my-svg .disabled,#my-svg .disabled circle,#my-svg .disabled text{fill:lightgray;}#my-svg .disabled text{fill:#efefef;}#my-svg .section-7 rect,#my-svg .section-7 path,#my-svg .section-7 circle,#my-svg .section-7 path{fill:hsl(90, 100%, 76.2745098039%);}#my-svg .section-7 text{fill:black;}#my-svg .node-icon-7{font-size:40px;color:black;}#my-svg .section-edge-7{stroke:hsl(90, 100%, 76.2745098039%);}#my-svg .edge-depth-7{stroke-width:-7;}#my-svg .section-7 line{stroke:hsl(270, 100%, 86.2745098039%);stroke-width:3;}#my-svg .lineWrapper line{stroke:black;}#my-svg .disabled,#my-svg .disabled circle,#my-svg .disabled text{fill:lightgray;}#my-svg .disabled text{fill:#efefef;}#my-svg .section-8 rect,#my-svg .section-8 path,#my-svg .section-8 circle,#my-svg .section-8 path{fill:hsl(150, 100%, 76.2745098039%);}#my-svg .section-8 text{fill:black;}#my-svg .node-icon-8{font-size:40px;color:black;}#my-svg .section-edge-8{stroke:hsl(150, 100%, 76.2745098039%);}#my-svg .edge-depth-8{stroke-width:-10;}#my-svg .section-8 line{stroke:hsl(330, 100%, 86.2745098039%);stroke-width:3;}#my-svg .lineWrapper line{stroke:black;}#my-svg .disabled,#my-svg .disabled circle,#my-svg .disabled text{fill:lightgray;}#my-svg .disabled text{fill:#efefef;}#my-svg .section-9 rect,#my-svg .section-9 path,#my-svg .section-9 circle,#my-svg .section-9 path{fill:hsl(180, 100%, 76.2745098039%);}#my-svg .section-9 text{fill:black;}#my-svg .node-icon-9{font-size:40px;color:black;}#my-svg .section-edge-9{stroke:hsl(180, 100%, 76.2745098039%);}#my-svg .edge-depth-9{stroke-width:-13;}#my-svg .section-9 line{stroke:hsl(0, 100%, 86.2745098039%);stroke-width:3;}#my-svg .lineWrapper line{stroke:black;}#my-svg .disabled,#my-svg .disabled circle,#my-svg .disabled text{fill:lightgray;}#my-svg .disabled text{fill:#efefef;}#my-svg .section-10 rect,#my-svg .section-10 path,#my-svg .section-10 circle,#my-svg .section-10 path{fill:hsl(210, 100%, 76.2745098039%);}#my-svg .section-10 text{fill:black;}#my-svg .node-icon-10{font-size:40px;color:black;}#my-svg .section-edge-10{stroke:hsl(210, 100%, 76.2745098039%);}#my-svg .edge-depth-10{stroke-width:-16;}#my-svg .section-10 line{stroke:hsl(30, 100%, 86.2745098039%);stroke-width:3;}#my-svg .lineWrapper line{stroke:black;}#my-svg .disabled,#my-svg .disabled circle,#my-svg .disabled text{fill:lightgray;}#my-svg .disabled text{fill:#efefef;}#my-svg .section-root rect,#my-svg .section-root path,#my-svg .section-root circle{fill:hsl(240, 100%, 46.2745098039%);}#my-svg .section-root text{fill:#ffffff;}#my-svg .icon-container{height:100%;display:flex;justify-content:center;align-items:center;}#my-svg .edge{fill:none;}#my-svg .eventWrapper{filter:brightness(120%);}#my-svg :root{--mermaid-font-family:"trebuchet ms",verdana,arial,sans-serif;}</style><g/><g/><defs><marker orient="auto" markerHeight="4" markerWidth="6" refY="2" refX="5" id="arrowhead"><path d="M 0,0 V 4 L6,2 Z"/></marker></defs><g transform="translate(100, 50)"><g class="timeline-node section--1"><g><path d="M0 62.8 v-57.8 q0,-5 5,-5 h180 q5,0 5,5 v62.8 H0 Z" class="node-bkg node-undefined" id="node-undefined"/><line y2="67.8" x2="190" y1="67.8" x1="0" class="node-line--1"/></g><g transform="translate(95, 10)"><text text-anchor="middle" dominant-baseline="middle" alignment-baseline="middle" dy="1em"><tspan dy="1em" x="0">2024</tspan></text></g></g></g><g transform="translate(100, 167.8)" class="taskWrapper"><g class="timeline-node section--1"><g><path d="M0 77.99999694824218 v-72.99999694824218 q0,-5 5,-5 h180 q5,0 5,5 v77.99999694824218 H0 Z" class="node-bkg node-undefined" id="node-undefined"/><line y2="82.99999694824218" x2="190" y1="82.99999694824218" x1="0" class="node-line--1"/></g><g transform="translate(95, 10)"><text text-anchor="middle" dominant-baseline="middle" alignment-baseline="middle" dy="1em"><tspan dy="1em" x="0">PI   23</tspan><tspan dy="1.1em" x="0">(07.11.2024   -</tspan><tspan dy="1.1em" x="0">15.01.2025)</tspan></text></g></g></g><g class="lineWrapper"><line stroke-dasharray="5,5" marker-end="url(#arrowhead)" stroke="black" stroke-width="2" y2="1082.399969482422" x2="195" y1="250.7999969482422" x1="195"/></g><g transform="translate(100, 367.8)" class="eventWrapper"><g class="timeline-node section--1"><g><path d="M0 95.59999542236328 v-90.59999542236328 q0,-5 5,-5 h180 q5,0 5,5 v95.59999542236328 H0 Z" class="node-bkg node-undefined" id="node-undefined"/><line y2="100.59999542236328" x2="190" y1="100.59999542236328" x1="0" class="node-line--1"/></g><g transform="translate(95, 10)"><text text-anchor="middle" dominant-baseline="middle" alignment-baseline="middle" dy="1em"><tspan dy="1em" x="0">Migrazione   del</tspan><tspan dy="1.1em" x="0">database.   Questo</tspan><tspan dy="1.1em" x="0">velocizza   la</tspan><tspan dy="1.1em" x="0">ricerca   globale.</tspan></text></g></g></g><g transform="translate(100, 478.3999954223633)" class="eventWrapper"><g class="timeline-node section--1"><g><path d="M0 148.39999084472657 v-143.39999084472657 q0,-5 5,-5 h180 q5,0 5,5 v148.39999084472657 H0 Z" class="node-bkg node-undefined" id="node-undefined"/><line y2="153.39999084472657" x2="190" y1="153.39999084472657" x1="0" class="node-line--1"/></g><g transform="translate(95, 10)"><text text-anchor="middle" dominant-baseline="middle" alignment-baseline="middle" dy="1em"><tspan dy="1em" x="0">Nuovi   endpoint</tspan><tspan dy="1.1em" x="0">API   per   i   partner</tspan><tspan dy="1.1em" x="0">di   I14Y   (recupero</tspan><tspan dy="1.1em" x="0">e   pubblicazione</tspan><tspan dy="1.1em" x="0">delle   descrizioni</tspan><tspan dy="1.1em" x="0">delle   raccolte   di</tspan><tspan dy="1.1em" x="0">dati).</tspan></text></g></g></g><g transform="translate(100, 641.7999862670899)" class="eventWrapper"><g class="timeline-node section--1"><g><path d="M0 77.99999694824218 v-72.99999694824218 q0,-5 5,-5 h180 q5,0 5,5 v77.99999694824218 H0 Z" class="node-bkg node-undefined" id="node-undefined"/><line y2="82.99999694824218" x2="190" y1="82.99999694824218" x1="0" class="node-line--1"/></g><g transform="translate(95, 10)"><text text-anchor="middle" dominant-baseline="middle" alignment-baseline="middle" dy="1em"><tspan dy="1em" x="0">La   ricerca   in</tspan><tspan dy="1.1em" x="0">elenchi   di   codici</tspan><tspan dy="1.1em" x="0">diventa   possibile.</tspan></text></g></g></g><g transform="translate(100, 734.7999832153321)" class="eventWrapper"><g class="timeline-node section--1"><g><path d="M0 165.9999969482422 v-160.9999969482422 q0,-5 5,-5 h180 q5,0 5,5 v165.9999969482422 H0 Z" class="node-bkg node-undefined" id="node-undefined"/><line y2="170.9999969482422" x2="190" y1="170.9999969482422" x1="0" class="node-line--1"/></g><g transform="translate(95, 10)"><text text-anchor="middle" dominant-baseline="middle" alignment-baseline="middle" dy="1em"><tspan dy="1em" x="0">La   forma   giuridica</tspan><tspan dy="1.1em" x="0">e   il   settore   di</tspan><tspan dy="1.1em" x="0">attività   di</tspan><tspan dy="1.1em" x="0">ciascuna</tspan><tspan dy="1.1em" x="0">organizzazione</tspan><tspan dy="1.1em" x="0">possono   essere</tspan><tspan dy="1.1em" x="0">recuperati   tramite</tspan><tspan dy="1.1em" x="0">l'API.</tspan></text></g></g></g><g transform="translate(100, 915.7999801635742)" class="eventWrapper"><g class="timeline-node section--1"><g><path d="M0 130.79999237060548 v-125.79999237060548 q0,-5 5,-5 h180 q5,0 5,5 v130.79999237060548 H0 Z" class="node-bkg node-undefined" id="node-undefined"/><line y2="135.79999237060548" x2="190" y1="135.79999237060548" x1="0" class="node-line--1"/></g><g transform="translate(95, 10)"><text text-anchor="middle" dominant-baseline="middle" alignment-baseline="middle" dy="1em"><tspan dy="1em" x="0">I   data   steward</tspan><tspan dy="1.1em" x="0">locali   possono</tspan><tspan dy="1.1em" x="0">pubblicare   le</tspan><tspan dy="1.1em" x="0">descrizioni   in</tspan><tspan dy="1.1em" x="0">modo</tspan><tspan dy="1.1em" x="0">indipendente.</tspan></text></g></g></g><g transform="translate(300, 50)"><g class="timeline-node section-0"><g><path d="M0 62.8 v-57.8 q0,-5 5,-5 h580 q5,0 5,5 v62.8 H0 Z" class="node-bkg node-undefined" id="node-undefined"/><line y2="67.8" x2="590" y1="67.8" x1="0" class="node-line-0"/></g><g transform="translate(295, 10)"><text text-anchor="middle" dominant-baseline="middle" alignment-baseline="middle" dy="1em"><tspan dy="1em" x="0">2025</tspan></text></g></g></g><g transform="translate(300, 167.8)" class="taskWrapper"><g class="timeline-node section-0"><g><path d="M0 77.99999694824218 v-72.99999694824218 q0,-5 5,-5 h180 q5,0 5,5 v77.99999694824218 H0 Z" class="node-bkg node-undefined" id="node-undefined"/><line y2="82.99999694824218" x2="190" y1="82.99999694824218" x1="0" class="node-line-0"/></g><g transform="translate(95, 10)"><text text-anchor="middle" dominant-baseline="middle" alignment-baseline="middle" dy="1em"><tspan dy="1em" x="0">PI   24</tspan><tspan dy="1.1em" x="0">(16.01.2025   -</tspan><tspan dy="1.1em" x="0">04.03.2025)</tspan></text></g></g></g><g class="lineWrapper"><line stroke-dasharray="5,5" marker-end="url(#arrowhead)" stroke="black" stroke-width="2" y2="1082.399969482422" x2="395" y1="250.7999969482422" x1="395"/></g><g transform="translate(300, 367.8)" class="eventWrapper"><g class="timeline-node section-0"><g><path d="M0 95.59999542236328 v-90.59999542236328 q0,-5 5,-5 h180 q5,0 5,5 v95.59999542236328 H0 Z" class="node-bkg node-undefined" id="node-undefined"/><line y2="100.59999542236328" x2="190" y1="100.59999542236328" x1="0" class="node-line-0"/></g><g transform="translate(95, 10)"><text text-anchor="middle" dominant-baseline="middle" alignment-baseline="middle" dy="1em"><tspan dy="1em" x="0">Nuovi   endpoint</tspan><tspan dy="1.1em" x="0">API   per   i   partner</tspan><tspan dy="1.1em" x="0">I14Y   (raccolta   dati</tspan><tspan dy="1.1em" x="0">e   area   concetti).</tspan></text></g></g></g><g transform="translate(300, 478.3999954223633)" class="eventWrapper"><g class="timeline-node section-0"><g><path d="M0 95.59999542236328 v-90.59999542236328 q0,-5 5,-5 h180 q5,0 5,5 v95.59999542236328 H0 Z" class="node-bkg node-undefined" id="node-undefined"/><line y2="100.59999542236328" x2="190" y1="100.59999542236328" x1="0" class="node-line-0"/></g><g transform="translate(95, 10)"><text text-anchor="middle" dominant-baseline="middle" alignment-baseline="middle" dy="1em"><tspan dy="1em" x="0">Le   modifiche   alle</tspan><tspan dy="1.1em" x="0">raccolte   di   dati</tspan><tspan dy="1.1em" x="0">sono   registrate</tspan><tspan dy="1.1em" x="0">(audit   trail).</tspan></text></g></g></g><g transform="translate(300, 588.9999908447265)" class="eventWrapper"><g class="timeline-node section-0"><g><path d="M0 113.19999389648437 v-108.19999389648437 q0,-5 5,-5 h180 q5,0 5,5 v113.19999389648437 H0 Z" class="node-bkg node-undefined" id="node-undefined"/><line y2="118.19999389648437" x2="190" y1="118.19999389648437" x1="0" class="node-line-0"/></g><g transform="translate(95, 10)"><text text-anchor="middle" dominant-baseline="middle" alignment-baseline="middle" dy="1em"><tspan dy="1em" x="0">Le   strutture   delle</tspan><tspan dy="1.1em" x="0">raccolte   di   dati</tspan><tspan dy="1.1em" x="0">possono   essere</tspan><tspan dy="1.1em" x="0">registrate   più</tspan><tspan dy="1.1em" x="0">facilmente.</tspan></text></g></g></g><g transform="translate(300, 717.1999847412109)" class="eventWrapper"><g class="timeline-node section-0"><g><path d="M0 77.99999694824218 v-72.99999694824218 q0,-5 5,-5 h180 q5,0 5,5 v77.99999694824218 H0 Z" class="node-bkg node-undefined" id="node-undefined"/><line y2="82.99999694824218" x2="190" y1="82.99999694824218" x1="0" class="node-line-0"/></g><g transform="translate(95, 10)"><text text-anchor="middle" dominant-baseline="middle" alignment-baseline="middle" dy="1em"><tspan dy="1em" x="0">Gli   elenchi   di</tspan><tspan dy="1.1em" x="0">codici   possono</tspan><tspan dy="1.1em" x="0">essere   filtrati.</tspan></text></g></g></g><g transform="translate(300, 810.199981689453)" class="eventWrapper"><g class="timeline-node section-0"><g><path d="M0 60.39999847412109 v-55.39999847412109 q0,-5 5,-5 h180 q5,0 5,5 v60.39999847412109 H0 Z" class="node-bkg node-undefined" id="node-undefined"/><line y2="65.39999847412109" x2="190" y1="65.39999847412109" x1="0" class="node-line-0"/></g><g transform="translate(95, 10)"><text text-anchor="middle" dominant-baseline="middle" alignment-baseline="middle" dy="1em"><tspan dy="1em" x="0">Analisi   aggiuntive</tspan><tspan dy="1.1em" x="0">del   cruscotto.</tspan></text></g></g></g><g transform="translate(300, 885.5999801635741)" class="eventWrapper"><g class="timeline-node section-0"><g><path d="M0 95.59999542236328 v-90.59999542236328 q0,-5 5,-5 h180 q5,0 5,5 v95.59999542236328 H0 Z" class="node-bkg node-undefined" id="node-undefined"/><line y2="100.59999542236328" x2="190" y1="100.59999542236328" x1="0" class="node-line-0"/></g><g transform="translate(95, 10)"><text text-anchor="middle" dominant-baseline="middle" alignment-baseline="middle" dy="1em"><tspan dy="1em" x="0">Le   organizzazioni</tspan><tspan dy="1.1em" x="0">possono   essere</tspan><tspan dy="1.1em" x="0">create   e   gestite</tspan><tspan dy="1.1em" x="0">più   facilmente.</tspan></text></g></g></g><g transform="translate(500, 167.8)" class="taskWrapper"><g class="timeline-node section-0"><g><path d="M0 77.99999694824218 v-72.99999694824218 q0,-5 5,-5 h180 q5,0 5,5 v77.99999694824218 H0 Z" class="node-bkg node-undefined" id="node-undefined"/><line y2="82.99999694824218" x2="190" y1="82.99999694824218" x1="0" class="node-line-0"/></g><g transform="translate(95, 10)"><text text-anchor="middle" dominant-baseline="middle" alignment-baseline="middle" dy="1em"><tspan dy="1em" x="0">PI   25</tspan><tspan dy="1.1em" x="0">(27.03.2025   -</tspan><tspan dy="1.1em" x="0">04.06.2025)</tspan></text></g></g></g><g class="lineWrapper"><line stroke-dasharray="5,5" marker-end="url(#arrowhead)" stroke="black" stroke-width="2" y2="1082.399969482422" x2="595" y1="250.7999969482422" x1="595"/></g><g transform="translate(500, 367.8)" class="eventWrapper"><g class="timeline-node section-0"><g><path d="M0 95.59999542236328 v-90.59999542236328 q0,-5 5,-5 h180 q5,0 5,5 v95.59999542236328 H0 Z" class="node-bkg node-undefined" id="node-undefined"/><line y2="100.59999542236328" x2="190" y1="100.59999542236328" x1="0" class="node-line-0"/></g><g transform="translate(95, 10)"><text text-anchor="middle" dominant-baseline="middle" alignment-baseline="middle" dy="1em"><tspan dy="1em" x="0">Nuovi   endpoint</tspan><tspan dy="1.1em" x="0">API   per   i   partner</tspan><tspan dy="1.1em" x="0">I14Y   (area   servizi</tspan><tspan dy="1.1em" x="0">dati)</tspan></text></g></g></g><g transform="translate(500, 478.3999954223633)" class="eventWrapper"><g class="timeline-node section-0"><g><path d="M0 95.59999542236328 v-90.59999542236328 q0,-5 5,-5 h180 q5,0 5,5 v95.59999542236328 H0 Z" class="node-bkg node-undefined" id="node-undefined"/><line y2="100.59999542236328" x2="190" y1="100.59999542236328" x1="0" class="node-line-0"/></g><g transform="translate(95, 10)"><text text-anchor="middle" dominant-baseline="middle" alignment-baseline="middle" dy="1em"><tspan dy="1em" x="0">Ottimizzazione   e</tspan><tspan dy="1.1em" x="0">ampliamento   delle</tspan><tspan dy="1.1em" x="0">opzioni   di   log</tspan><tspan dy="1.1em" x="0">(audit   trail).</tspan></text></g></g></g><g transform="translate(500, 588.9999908447265)" class="eventWrapper"><g class="timeline-node section-0"><g><path d="M0 77.99999694824218 v-72.99999694824218 q0,-5 5,-5 h180 q5,0 5,5 v77.99999694824218 H0 Z" class="node-bkg node-undefined" id="node-undefined"/><line y2="82.99999694824218" x2="190" y1="82.99999694824218" x1="0" class="node-line-0"/></g><g transform="translate(95, 10)"><text text-anchor="middle" dominant-baseline="middle" alignment-baseline="middle" dy="1em"><tspan dy="1em" x="0">Miglioramento</tspan><tspan dy="1.1em" x="0">della   funzione   di</tspan><tspan dy="1.1em" x="0">ricerca.</tspan></text></g></g></g><g transform="translate(700, 167.8)" class="taskWrapper"><g class="timeline-node section-0"><g><path d="M0 77.99999694824218 v-72.99999694824218 q0,-5 5,-5 h180 q5,0 5,5 v77.99999694824218 H0 Z" class="node-bkg node-undefined" id="node-undefined"/><line y2="82.99999694824218" x2="190" y1="82.99999694824218" x1="0" class="node-line-0"/></g><g transform="translate(95, 10)"><text text-anchor="middle" dominant-baseline="middle" alignment-baseline="middle" dy="1em"><tspan dy="1em" x="0">PI   26   -   28</tspan><tspan dy="1.1em" x="0">(05.06.2025   -</tspan><tspan dy="1.1em" x="0">04.01.2026)</tspan></text></g></g></g><g class="lineWrapper"><line stroke-dasharray="5,5" marker-end="url(#arrowhead)" stroke="black" stroke-width="2" y2="1082.399969482422" x2="795" y1="250.7999969482422" x1="795"/></g><g transform="translate(700, 367.8)" class="eventWrapper"><g class="timeline-node section-0"><g><path d="M0 95.59999542236328 v-90.59999542236328 q0,-5 5,-5 h180 q5,0 5,5 v95.59999542236328 H0 Z" class="node-bkg node-undefined" id="node-undefined"/><line y2="100.59999542236328" x2="190" y1="100.59999542236328" x1="0" class="node-line-0"/></g><g transform="translate(95, 10)"><text text-anchor="middle" dominant-baseline="middle" alignment-baseline="middle" dy="1em"><tspan dy="1em" x="0">Onboarding</tspan><tspan dy="1.1em" x="0">automatico</tspan><tspan dy="1.1em" x="0">dell'amministrazione</tspan><tspan dy="1.1em" x="0">federale.</tspan></text></g></g></g><g transform="translate(700, 478.3999954223633)" class="eventWrapper"><g class="timeline-node section-0"><g><path d="M0 95.59999542236328 v-90.59999542236328 q0,-5 5,-5 h180 q5,0 5,5 v95.59999542236328 H0 Z" class="node-bkg node-undefined" id="node-undefined"/><line y2="100.59999542236328" x2="190" y1="100.59999542236328" x1="0" class="node-line-0"/></g><g transform="translate(95, 10)"><text text-anchor="middle" dominant-baseline="middle" alignment-baseline="middle" dy="1em"><tspan dy="1em" x="0">Introduzione   di</tspan><tspan dy="1.1em" x="0">tabelle   di</tspan><tspan dy="1.1em" x="0">mappatura   per   la</tspan><tspan dy="1.1em" x="0">documentazione.</tspan></text></g></g></g><g transform="translate(700, 588.9999908447265)" class="eventWrapper"><g class="timeline-node section-0"><g><path d="M0 113.19999389648437 v-108.19999389648437 q0,-5 5,-5 h180 q5,0 5,5 v113.19999389648437 H0 Z" class="node-bkg node-undefined" id="node-undefined"/><line y2="118.19999389648437" x2="190" y1="118.19999389648437" x1="0" class="node-line-0"/></g><g transform="translate(95, 10)"><text text-anchor="middle" dominant-baseline="middle" alignment-baseline="middle" dy="1em"><tspan dy="1em" x="0">Possibilità   di</tspan><tspan dy="1.1em" x="0">sottoscrivere</tspan><tspan dy="1.1em" x="0">notifiche   di</tspan><tspan dy="1.1em" x="0">modifiche   ai</tspan><tspan dy="1.1em" x="0">metadati.</tspan></text></g></g></g><g transform="translate(700, 717.1999847412109)" class="eventWrapper"><g class="timeline-node section-0"><g><path d="M0 60.39999847412109 v-55.39999847412109 q0,-5 5,-5 h180 q5,0 5,5 v60.39999847412109 H0 Z" class="node-bkg node-undefined" id="node-undefined"/><line y2="65.39999847412109" x2="190" y1="65.39999847412109" x1="0" class="node-line-0"/></g><g transform="translate(95, 10)"><text text-anchor="middle" dominant-baseline="middle" alignment-baseline="middle" dy="1em"><tspan dy="1em" x="0">Ulteriori   opzioni   di</tspan><tspan dy="1.1em" x="0">esportazione.</tspan></text></g></g></g><g transform="translate(700, 792.5999832153319)" class="eventWrapper"><g class="timeline-node section-0"><g><path d="M0 130.79999237060548 v-125.79999237060548 q0,-5 5,-5 h180 q5,0 5,5 v130.79999237060548 H0 Z" class="node-bkg node-undefined" id="node-undefined"/><line y2="135.79999237060548" x2="190" y1="135.79999237060548" x1="0" class="node-line-0"/></g><g transform="translate(95, 10)"><text text-anchor="middle" dominant-baseline="middle" alignment-baseline="middle" dy="1em"><tspan dy="1em" x="0">I   contenuti</tspan><tspan dy="1.1em" x="0">pubblicati</tspan><tspan dy="1.1em" x="0">pubblicamente</tspan><tspan dy="1.1em" x="0">sono   resi</tspan><tspan dy="1.1em" x="0">disponibili   come</tspan><tspan dy="1.1em" x="0">dati   collegati.</tspan></text></g></g></g><g transform="translate(900, 50)"><g class="timeline-node section-1"><g><path d="M0 62.8 v-57.8 q0,-5 5,-5 h180 q5,0 5,5 v62.8 H0 Z" class="node-bkg node-undefined" id="node-undefined"/><line y2="67.8" x2="190" y1="67.8" x1="0" class="node-line-1"/></g><g transform="translate(95, 10)"><text text-anchor="middle" dominant-baseline="middle" alignment-baseline="middle" dy="1em"><tspan dy="1em" x="0">2026</tspan></text></g></g></g><g transform="translate(900, 167.8)" class="taskWrapper"><g class="timeline-node section-1"><g><path d="M0 77.99999694824218 v-72.99999694824218 q0,-5 5,-5 h180 q5,0 5,5 v77.99999694824218 H0 Z" class="node-bkg node-undefined" id="node-undefined"/><line y2="82.99999694824218" x2="190" y1="82.99999694824218" x1="0" class="node-line-1"/></g><g transform="translate(95, 10)"><text text-anchor="middle" dominant-baseline="middle" alignment-baseline="middle" dy="1em"><tspan dy="1em" x="0">PIs   29   -   33</tspan><tspan dy="1.1em" x="0">(05.01.2026   -</tspan><tspan dy="1.1em" x="0">31.12.2026)</tspan></text></g></g></g><g class="lineWrapper"><line stroke-dasharray="5,5" marker-end="url(#arrowhead)" stroke="black" stroke-width="2" y2="1082.399969482422" x2="995" y1="250.7999969482422" x1="995"/></g><g transform="translate(900, 367.8)" class="eventWrapper"><g class="timeline-node section-1"><g><path d="M0 60.39999847412109 v-55.39999847412109 q0,-5 5,-5 h180 q5,0 5,5 v60.39999847412109 H0 Z" class="node-bkg node-undefined" id="node-undefined"/><line y2="65.39999847412109" x2="190" y1="65.39999847412109" x1="0" class="node-line-1"/></g><g transform="translate(95, 10)"><text text-anchor="middle" dominant-baseline="middle" alignment-baseline="middle" dy="1em"><tspan dy="1em" x="0">Anteprima   dei   dati</tspan><tspan dy="1.1em" x="0">incorporata.</tspan></text></g></g></g><g transform="translate(900, 443.1999984741211)" class="eventWrapper"><g class="timeline-node section-1"><g><path d="M0 95.59999542236328 v-90.59999542236328 q0,-5 5,-5 h180 q5,0 5,5 v95.59999542236328 H0 Z" class="node-bkg node-undefined" id="node-undefined"/><line y2="100.59999542236328" x2="190" y1="100.59999542236328" x1="0" class="node-line-1"/></g><g transform="translate(95, 10)"><text text-anchor="middle" dominant-baseline="middle" alignment-baseline="middle" dy="1em"><tspan dy="1em" x="0">Possibilità   di</tspan><tspan dy="1.1em" x="0">documentare   i</tspan><tspan dy="1.1em" x="0">flussi   di   dati   (data</tspan><tspan dy="1.1em" x="0">lineage).</tspan></text></g></g></g><g transform="translate(900, 553.7999938964844)" class="eventWrapper"><g class="timeline-node section-1"><g><path d="M0 95.59999542236328 v-90.59999542236328 q0,-5 5,-5 h180 q5,0 5,5 v95.59999542236328 H0 Z" class="node-bkg node-undefined" id="node-undefined"/><line y2="100.59999542236328" x2="190" y1="100.59999542236328" x1="0" class="node-line-1"/></g><g transform="translate(95, 10)"><text text-anchor="middle" dominant-baseline="middle" alignment-baseline="middle" dy="1em"><tspan dy="1em" x="0">Estensione   delle</tspan><tspan dy="1.1em" x="0">opzioni   di</tspan><tspan dy="1.1em" x="0">connessione   agli</tspan><tspan dy="1.1em" x="0">strumenti.</tspan></text></g></g></g><g transform="translate(900, 664.3999893188476)" class="eventWrapper"><g class="timeline-node section-1"><g><path d="M0 77.99999694824218 v-72.99999694824218 q0,-5 5,-5 h180 q5,0 5,5 v77.99999694824218 H0 Z" class="node-bkg node-undefined" id="node-undefined"/><line y2="82.99999694824218" x2="190" y1="82.99999694824218" x1="0" class="node-line-1"/></g><g transform="translate(95, 10)"><text text-anchor="middle" dominant-baseline="middle" alignment-baseline="middle" dy="1em"><tspan dy="1em" x="0">Rilascio   del   codice</tspan><tspan dy="1.1em" x="0">del   programma</tspan><tspan dy="1.1em" x="0">(open   source).</tspan></text></g></g></g><g transform="translate(900, 757.3999862670897)" class="eventWrapper"><g class="timeline-node section-1"><g><path d="M0 77.99999694824218 v-72.99999694824218 q0,-5 5,-5 h180 q5,0 5,5 v77.99999694824218 H0 Z" class="node-bkg node-undefined" id="node-undefined"/><line y2="82.99999694824218" x2="190" y1="82.99999694824218" x1="0" class="node-line-1"/></g><g transform="translate(95, 10)"><text text-anchor="middle" dominant-baseline="middle" alignment-baseline="middle" dy="1em"><tspan dy="1em" x="0">Completamento</tspan><tspan dy="1.1em" x="0">della   fase   di</tspan><tspan dy="1.1em" x="0">progetto.</tspan></text></g></g></g><text y="20" font-weight="bold" font-size="4ex" x="445">Roadmap I14Y</text><g class="lineWrapper"><line marker-end="url(#arrowhead)" stroke="black" stroke-width="4" y2="285.6" x2="1140" y1="285.6" x1="50"/></g></svg>