<?xml version="1.0" encoding="UTF-8"?>
<?xml-stylesheet href="https://cdnjs.cloudflare.com/ajax/libs/font-awesome/6.6.0/css/all.min.css" type="text/css"?>
<svg aria-roledescription="timeline" role="graphics-document document" viewBox="0 -61.19999980926514 1190 1118.3999633789062" style="max-width: 100%;" xmlns="http://www.w3.org/2000/svg" width="100%" id="graph-div" height="100%" xmlns:xlink="http://www.w3.org/1999/xlink"><style>#graph-div{font-family:"trebuchet ms",verdana,arial,sans-serif;font-size:16px;fill:#333;}#graph-div .error-icon{fill:hsl(220.5882352941, 100%, 98.3333333333%);}#graph-div .error-text{fill:rgb(8.5000000002, 5.7500000001, 0);stroke:rgb(8.5000000002, 5.7500000001, 0);}#graph-div .edge-thickness-normal{stroke-width:1px;}#graph-div .edge-thickness-thick{stroke-width:3.5px;}#graph-div .edge-pattern-solid{stroke-dasharray:0;}#graph-div .edge-thickness-invisible{stroke-width:0;fill:none;}#graph-div .edge-pattern-dashed{stroke-dasharray:3;}#graph-div .edge-pattern-dotted{stroke-dasharray:2;}#graph-div .marker{fill:#0b0b0b;stroke:#0b0b0b;}#graph-div .marker.cross{stroke:#0b0b0b;}#graph-div svg{font-family:"trebuchet ms",verdana,arial,sans-serif;font-size:16px;}#graph-div p{margin:0;}#graph-div .edge{stroke-width:3;}#graph-div .section--1 rect,#graph-div .section--1 path,#graph-div .section--1 circle,#graph-div .section--1 path{fill:hsl(40.5882352941, 100%, 68.3333333333%);}#graph-div .section--1 text{fill:#333;}#graph-div .node-icon--1{font-size:40px;color:#333;}#graph-div .section-edge--1{stroke:hsl(40.5882352941, 100%, 68.3333333333%);}#graph-div .edge-depth--1{stroke-width:17;}#graph-div .section--1 line{stroke:rgb(0, 52.2500000001, 161.5000000002);stroke-width:3;}#graph-div .lineWrapper line{stroke:#333;}#graph-div .disabled,#graph-div .disabled circle,#graph-div .disabled text{fill:lightgray;}#graph-div .disabled text{fill:#efefef;}#graph-div .section-0 rect,#graph-div .section-0 path,#graph-div .section-0 circle,#graph-div .section-0 path{fill:hsl(-79.4117647059, 100%, 68.3333333333%);}#graph-div .section-0 text{fill:#333;}#graph-div .node-icon-0{font-size:40px;color:#333;}#graph-div .section-edge-0{stroke:hsl(-79.4117647059, 100%, 68.3333333333%);}#graph-div .edge-depth-0{stroke-width:14;}#graph-div .section-0 line{stroke:rgb(52.2500000001, 161.5000000002, 0);stroke-width:3;}#graph-div .lineWrapper line{stroke:#333;}#graph-div .disabled,#graph-div .disabled circle,#graph-div .disabled text{fill:lightgray;}#graph-div .disabled text{fill:#efefef;}#graph-div .section-1 rect,#graph-div .section-1 path,#graph-div .section-1 circle,#graph-div .section-1 path{fill:hsl(220.5882352941, 100%, 73.3333333333%);}#graph-div .section-1 text{fill:#333;}#graph-div .node-icon-1{font-size:40px;color:#333;}#graph-div .section-edge-1{stroke:hsl(220.5882352941, 100%, 73.3333333333%);}#graph-div .edge-depth-1{stroke-width:11;}#graph-div .section-1 line{stroke:rgb(136.0000000002, 92.0000000001, 0);stroke-width:3;}#graph-div .lineWrapper line{stroke:#333;}#graph-div .disabled,#graph-div .disabled circle,#graph-div .disabled text{fill:lightgray;}#graph-div .disabled text{fill:#efefef;}#graph-div .section-2 rect,#graph-div .section-2 path,#graph-div .section-2 circle,#graph-div .section-2 path{fill:hsl(70.5882352941, 100%, 68.3333333333%);}#graph-div .section-2 text{fill:#333;}#graph-div .node-icon-2{font-size:40px;color:#333;}#graph-div .section-edge-2{stroke:hsl(70.5882352941, 100%, 68.3333333333%);}#graph-div .edge-depth-2{stroke-width:8;}#graph-div .section-2 line{stroke:rgb(28.5, 0, 161.5000000002);stroke-width:3;}#graph-div .lineWrapper line{stroke:#333;}#graph-div .disabled,#graph-div .disabled circle,#graph-div .disabled text{fill:lightgray;}#graph-div .disabled text{fill:#efefef;}#graph-div .section-3 rect,#graph-div .section-3 path,#graph-div .section-3 circle,#graph-div .section-3 path{fill:hsl(100.5882352941, 100%, 68.3333333333%);}#graph-div .section-3 text{fill:#333;}#graph-div .node-icon-3{font-size:40px;color:#333;}#graph-div .section-edge-3{stroke:hsl(100.5882352941, 100%, 68.3333333333%);}#graph-div .edge-depth-3{stroke-width:5;}#graph-div .section-3 line{stroke:rgb(109.2500000001, 0, 161.5000000002);stroke-width:3;}#graph-div .lineWrapper line{stroke:#333;}#graph-div .disabled,#graph-div .disabled circle,#graph-div .disabled text{fill:lightgray;}#graph-div .disabled text{fill:#efefef;}#graph-div .section-4 rect,#graph-div .section-4 path,#graph-div .section-4 circle,#graph-div .section-4 path{fill:hsl(130.5882352941, 100%, 68.3333333333%);}#graph-div .section-4 text{fill:#333;}#graph-div .node-icon-4{font-size:40px;color:#333;}#graph-div .section-edge-4{stroke:hsl(130.5882352941, 100%, 68.3333333333%);}#graph-div .edge-depth-4{stroke-width:2;}#graph-div .section-4 line{stroke:rgb(161.5000000002, 0, 133.0000000002);stroke-width:3;}#graph-div .lineWrapper line{stroke:#333;}#graph-div .disabled,#graph-div .disabled circle,#graph-div .disabled text{fill:lightgray;}#graph-div .disabled text{fill:#efefef;}#graph-div .section-5 rect,#graph-div .section-5 path,#graph-div .section-5 circle,#graph-div .section-5 path{fill:hsl(160.5882352941, 100%, 68.3333333333%);}#graph-div .section-5 text{fill:#333;}#graph-div .node-icon-5{font-size:40px;color:#333;}#graph-div .section-edge-5{stroke:hsl(160.5882352941, 100%, 68.3333333333%);}#graph-div .edge-depth-5{stroke-width:-1;}#graph-div .section-5 line{stroke:rgb(161.5000000002, 0, 52.2500000001);stroke-width:3;}#graph-div .lineWrapper line{stroke:#333;}#graph-div .disabled,#graph-div .disabled circle,#graph-div .disabled text{fill:lightgray;}#graph-div .disabled text{fill:#efefef;}#graph-div .section-6 rect,#graph-div .section-6 path,#graph-div .section-6 circle,#graph-div .section-6 path{fill:hsl(190.5882352941, 100%, 68.3333333333%);}#graph-div .section-6 text{fill:#333;}#graph-div .node-icon-6{font-size:40px;color:#333;}#graph-div .section-edge-6{stroke:hsl(190.5882352941, 100%, 68.3333333333%);}#graph-div .edge-depth-6{stroke-width:-4;}#graph-div .section-6 line{stroke:rgb(161.5000000002, 28.5, 0);stroke-width:3;}#graph-div .lineWrapper line{stroke:#333;}#graph-div .disabled,#graph-div .disabled circle,#graph-div .disabled text{fill:lightgray;}#graph-div .disabled text{fill:#efefef;}#graph-div .section-7 rect,#graph-div .section-7 path,#graph-div .section-7 circle,#graph-div .section-7 path{fill:hsl(250.5882352941, 100%, 75%);}#graph-div .section-7 text{fill:#333;}#graph-div .node-icon-7{font-size:40px;color:#333;}#graph-div .section-edge-7{stroke:hsl(250.5882352941, 100%, 75%);}#graph-div .edge-depth-7{stroke-width:-7;}#graph-div .section-7 line{stroke:rgb(105, 127.5, 0);stroke-width:3;}#graph-div .lineWrapper line{stroke:#333;}#graph-div .disabled,#graph-div .disabled circle,#graph-div .disabled text{fill:lightgray;}#graph-div .disabled text{fill:#efefef;}#graph-div .section-8 rect,#graph-div .section-8 path,#graph-div .section-8 circle,#graph-div .section-8 path{fill:hsl(310.5882352941, 100%, 68.3333333333%);}#graph-div .section-8 text{fill:#333;}#graph-div .node-icon-8{font-size:40px;color:#333;}#graph-div .section-edge-8{stroke:hsl(310.5882352941, 100%, 68.3333333333%);}#graph-div .edge-depth-8{stroke-width:-10;}#graph-div .section-8 line{stroke:rgb(0, 161.5000000002, 28.5);stroke-width:3;}#graph-div .lineWrapper line{stroke:#333;}#graph-div .disabled,#graph-div .disabled circle,#graph-div .disabled text{fill:lightgray;}#graph-div .disabled text{fill:#efefef;}#graph-div .section-9 rect,#graph-div .section-9 path,#graph-div .section-9 circle,#graph-div .section-9 path{fill:hsl(340.5882352941, 100%, 68.3333333333%);}#graph-div .section-9 text{fill:#333;}#graph-div .node-icon-9{font-size:40px;color:#333;}#graph-div .section-edge-9{stroke:hsl(340.5882352941, 100%, 68.3333333333%);}#graph-div .edge-depth-9{stroke-width:-13;}#graph-div .section-9 line{stroke:rgb(0, 161.5000000002, 109.2500000001);stroke-width:3;}#graph-div .lineWrapper line{stroke:#333;}#graph-div .disabled,#graph-div .disabled circle,#graph-div .disabled text{fill:lightgray;}#graph-div .disabled text{fill:#efefef;}#graph-div .section-10 rect,#graph-div .section-10 path,#graph-div .section-10 circle,#graph-div .section-10 path{fill:hsl(10.5882352941, 100%, 68.3333333333%);}#graph-div .section-10 text{fill:#333;}#graph-div .node-icon-10{font-size:40px;color:#333;}#graph-div .section-edge-10{stroke:hsl(10.5882352941, 100%, 68.3333333333%);}#graph-div .edge-depth-10{stroke-width:-16;}#graph-div .section-10 line{stroke:rgb(0, 133.0000000002, 161.5000000002);stroke-width:3;}#graph-div .lineWrapper line{stroke:#333;}#graph-div .disabled,#graph-div .disabled circle,#graph-div .disabled text{fill:lightgray;}#graph-div .disabled text{fill:#efefef;}#graph-div .section-root rect,#graph-div .section-root path,#graph-div .section-root circle{fill:hsl(40.5882352941, 100%, 68.3333333333%);}#graph-div .section-root text{fill:#333;}#graph-div .icon-container{height:100%;display:flex;justify-content:center;align-items:center;}#graph-div .edge{fill:none;}#graph-div .eventWrapper{filter:brightness(120%);}#graph-div :root{--mermaid-font-family:"trebuchet ms",verdana,arial,sans-serif;}</style><g></g><g></g><defs><marker orient="auto" markerHeight="4" markerWidth="6" refY="2" refX="5" id="arrowhead"><path d="M 0,0 V 4 L6,2 Z"></path></marker></defs><g transform="translate(100, 50)"><g class="timeline-node section--1"><g><path d="M0 62.19999961853027 v-57.19999961853027 q0,-5 5,-5 h180 q5,0 5,5 v62.19999961853027 H0 Z" class="node-bkg node-undefined" id="node-undefined"></path><line y2="67.19999961853027" x2="190" y1="67.19999961853027" x1="0" class="node-line--1"></line></g><g transform="translate(95, 10)"><text text-anchor="middle" dominant-baseline="middle" alignment-baseline="middle" dy="1em"><tspan dy="1em" x="0">2024</tspan></text></g></g></g><g transform="translate(100, 167.19999961853028)" class="taskWrapper"><g class="timeline-node section--1"><g><path d="M0 77.40000228881836 v-72.40000228881836 q0,-5 5,-5 h180 q5,0 5,5 v77.40000228881836 H0 Z" class="node-bkg node-undefined" id="node-undefined"></path><line y2="82.40000228881836" x2="190" y1="82.40000228881836" x1="0" class="node-line--1"></line></g><g transform="translate(95, 10)"><text text-anchor="middle" dominant-baseline="middle" alignment-baseline="middle" dy="1em"><tspan dy="1em" x="0">PI   23</tspan><tspan dy="1.1em" x="0">(07.11.2024   -</tspan><tspan dy="1.1em" x="0">15.01.2025)</tspan></text></g></g></g><g class="lineWrapper"><line stroke-dasharray="5,5" marker-end="url(#arrowhead)" stroke="black" stroke-width="2" y2="1007.199961090088" x2="195" y1="249.60000190734866" x1="195"></line></g><g transform="translate(100, 367.1999996185303)" class="eventWrapper"><g class="timeline-node section--1"><g><path d="M0 94.99998931884765 v-89.99998931884765 q0,-5 5,-5 h180 q5,0 5,5 v94.99998931884765 H0 Z" class="node-bkg node-undefined" id="node-undefined"></path><line y2="99.99998931884765" x2="190" y1="99.99998931884765" x1="0" class="node-line--1"></line></g><g transform="translate(95, 10)"><text text-anchor="middle" dominant-baseline="middle" alignment-baseline="middle" dy="1em"><tspan dy="1em" x="0">Migration   der</tspan><tspan dy="1.1em" x="0">Datenbank.   Dadurch</tspan><tspan dy="1.1em" x="0">Beschleunigung   der</tspan><tspan dy="1.1em" x="0">globalen   Suche.</tspan></text></g></g></g><g transform="translate(100, 477.19998893737795)" class="eventWrapper"><g class="timeline-node section--1"><g><path d="M0 130.19998626708986 v-125.19998626708986 q0,-5 5,-5 h180 q5,0 5,5 v130.19998626708986 H0 Z" class="node-bkg node-undefined" id="node-undefined"></path><line y2="135.19998626708986" x2="190" y1="135.19998626708986" x1="0" class="node-line--1"></line></g><g transform="translate(95, 10)"><text text-anchor="middle" dominant-baseline="middle" alignment-baseline="middle" dy="1em"><tspan dy="1em" x="0">Neue   API-Endpunkte</tspan><tspan dy="1.1em" x="0">für   I14Y-Partner</tspan><tspan dy="1.1em" x="0">(Abrufen   und</tspan><tspan dy="1.1em" x="0">Publizieren   von</tspan><tspan dy="1.1em" x="0">Beschreibungen   zu</tspan><tspan dy="1.1em" x="0">Datensammlungen).</tspan></text></g></g></g><g transform="translate(100, 622.3999752044679)" class="eventWrapper"><g class="timeline-node section--1"><g><path d="M0 77.40000228881836 v-72.40000228881836 q0,-5 5,-5 h180 q5,0 5,5 v77.40000228881836 H0 Z" class="node-bkg node-undefined" id="node-undefined"></path><line y2="82.40000228881836" x2="190" y1="82.40000228881836" x1="0" class="node-line--1"></line></g><g transform="translate(95, 10)"><text text-anchor="middle" dominant-baseline="middle" alignment-baseline="middle" dy="1em"><tspan dy="1em" x="0">Die   Suche   in</tspan><tspan dy="1.1em" x="0">Codelisten   wird</tspan><tspan dy="1.1em" x="0">möglich.</tspan></text></g></g></g><g transform="translate(100, 714.7999774932862)" class="eventWrapper"><g class="timeline-node section--1"><g><path d="M0 112.59999542236328 v-107.59999542236328 q0,-5 5,-5 h180 q5,0 5,5 v112.59999542236328 H0 Z" class="node-bkg node-undefined" id="node-undefined"></path><line y2="117.59999542236328" x2="190" y1="117.59999542236328" x1="0" class="node-line--1"></line></g><g transform="translate(95, 10)"><text text-anchor="middle" dominant-baseline="middle" alignment-baseline="middle" dy="1em"><tspan dy="1em" x="0">Über   die   API   kann</tspan><tspan dy="1.1em" x="0">die   Rechtsform   und</tspan><tspan dy="1.1em" x="0">das   Tätigkeitsgebiet</tspan><tspan dy="1.1em" x="0">jeder   Organisation</tspan><tspan dy="1.1em" x="0">abgerufen   werden.</tspan></text></g></g></g><g transform="translate(100, 842.3999729156494)" class="eventWrapper"><g class="timeline-node section--1"><g><path d="M0 130.19998626708986 v-125.19998626708986 q0,-5 5,-5 h180 q5,0 5,5 v130.19998626708986 H0 Z" class="node-bkg node-undefined" id="node-undefined"></path><line y2="135.19998626708986" x2="190" y1="135.19998626708986" x1="0" class="node-line--1"></line></g><g transform="translate(95, 10)"><text text-anchor="middle" dominant-baseline="middle" alignment-baseline="middle" dy="1em"><tspan dy="1em" x="0">Die   Local   Data</tspan><tspan dy="1.1em" x="0">Stewards   können</tspan><tspan dy="1.1em" x="0">Beschreibungen</tspan><tspan dy="1.1em" x="0">selbstständig</tspan><tspan dy="1.1em" x="0">öffentlich</tspan><tspan dy="1.1em" x="0">publizieren.</tspan></text></g></g></g><g transform="translate(300, 50)"><g class="timeline-node section-0"><g><path d="M0 62.19999961853027 v-57.19999961853027 q0,-5 5,-5 h580 q5,0 5,5 v62.19999961853027 H0 Z" class="node-bkg node-undefined" id="node-undefined"></path><line y2="67.19999961853027" x2="590" y1="67.19999961853027" x1="0" class="node-line-0"></line></g><g transform="translate(295, 10)"><text text-anchor="middle" dominant-baseline="middle" alignment-baseline="middle" dy="1em"><tspan dy="1em" x="0">2025</tspan></text></g></g></g><g transform="translate(300, 167.19999961853028)" class="taskWrapper"><g class="timeline-node section-0"><g><path d="M0 77.40000228881836 v-72.40000228881836 q0,-5 5,-5 h180 q5,0 5,5 v77.40000228881836 H0 Z" class="node-bkg node-undefined" id="node-undefined"></path><line y2="82.40000228881836" x2="190" y1="82.40000228881836" x1="0" class="node-line-0"></line></g><g transform="translate(95, 10)"><text text-anchor="middle" dominant-baseline="middle" alignment-baseline="middle" dy="1em"><tspan dy="1em" x="0">PIs   24</tspan><tspan dy="1.1em" x="0">(16.01.2025   -</tspan><tspan dy="1.1em" x="0">04.03.2025)</tspan></text></g></g></g><g class="lineWrapper"><line stroke-dasharray="5,5" marker-end="url(#arrowhead)" stroke="black" stroke-width="2" y2="1007.199961090088" x2="395" y1="249.60000190734866" x1="395"></line></g><g transform="translate(300, 367.1999996185303)" class="eventWrapper"><g class="timeline-node section-0"><g><path d="M0 112.59999542236328 v-107.59999542236328 q0,-5 5,-5 h180 q5,0 5,5 v112.59999542236328 H0 Z" class="node-bkg node-undefined" id="node-undefined"></path><line y2="117.59999542236328" x2="190" y1="117.59999542236328" x1="0" class="node-line-0"></line></g><g transform="translate(95, 10)"><text text-anchor="middle" dominant-baseline="middle" alignment-baseline="middle" dy="1em"><tspan dy="1em" x="0">Neue   API-Endpunkte</tspan><tspan dy="1.1em" x="0">für   I14Y-Partner</tspan><tspan dy="1.1em" x="0">(Bereich</tspan><tspan dy="1.1em" x="0">Datensammlungen</tspan><tspan dy="1.1em" x="0">und   Konzepte).</tspan></text></g></g></g><g transform="translate(300, 494.7999950408936)" class="eventWrapper"><g class="timeline-node section-0"><g><path d="M0 112.59999542236328 v-107.59999542236328 q0,-5 5,-5 h180 q5,0 5,5 v112.59999542236328 H0 Z" class="node-bkg node-undefined" id="node-undefined"></path><line y2="117.59999542236328" x2="190" y1="117.59999542236328" x1="0" class="node-line-0"></line></g><g transform="translate(95, 10)"><text text-anchor="middle" dominant-baseline="middle" alignment-baseline="middle" dy="1em"><tspan dy="1em" x="0">Änderungen   an</tspan><tspan dy="1.1em" x="0">Datensammlungen</tspan><tspan dy="1.1em" x="0">werden</tspan><tspan dy="1.1em" x="0">aufgezeichnet   (Audit</tspan><tspan dy="1.1em" x="0">Trail).</tspan></text></g></g></g><g transform="translate(300, 622.3999904632568)" class="eventWrapper"><g class="timeline-node section-0"><g><path d="M0 94.99998931884765 v-89.99998931884765 q0,-5 5,-5 h180 q5,0 5,5 v94.99998931884765 H0 Z" class="node-bkg node-undefined" id="node-undefined"></path><line y2="99.99998931884765" x2="190" y1="99.99998931884765" x1="0" class="node-line-0"></line></g><g transform="translate(95, 10)"><text text-anchor="middle" dominant-baseline="middle" alignment-baseline="middle" dy="1em"><tspan dy="1em" x="0">Strukturen   zu</tspan><tspan dy="1.1em" x="0">Datensammlungen</tspan><tspan dy="1.1em" x="0">können   einfacher</tspan><tspan dy="1.1em" x="0">erfasst   werden.</tspan></text></g></g></g><g transform="translate(300, 732.3999797821044)" class="eventWrapper"><g class="timeline-node section-0"><g><path d="M0 59.8 v-54.8 q0,-5 5,-5 h180 q5,0 5,5 v59.8 H0 Z" class="node-bkg node-undefined" id="node-undefined"></path><line y2="64.8" x2="190" y1="64.8" x1="0" class="node-line-0"></line></g><g transform="translate(95, 10)"><text text-anchor="middle" dominant-baseline="middle" alignment-baseline="middle" dy="1em"><tspan dy="1em" x="0">Codelisten   lassen</tspan><tspan dy="1.1em" x="0">sich   filtern.</tspan></text></g></g></g><g transform="translate(300, 807.1999797821044)" class="eventWrapper"><g class="timeline-node section-0"><g><path d="M0 59.8 v-54.8 q0,-5 5,-5 h180 q5,0 5,5 v59.8 H0 Z" class="node-bkg node-undefined" id="node-undefined"></path><line y2="64.8" x2="190" y1="64.8" x1="0" class="node-line-0"></line></g><g transform="translate(95, 10)"><text text-anchor="middle" dominant-baseline="middle" alignment-baseline="middle" dy="1em"><tspan dy="1em" x="0">Zusätzliche</tspan><tspan dy="1.1em" x="0">Dashboard-Auswertungen.</tspan></text></g></g></g><g transform="translate(300, 881.9999797821043)" class="eventWrapper"><g class="timeline-node section-0"><g><path d="M0 94.99998931884765 v-89.99998931884765 q0,-5 5,-5 h180 q5,0 5,5 v94.99998931884765 H0 Z" class="node-bkg node-undefined" id="node-undefined"></path><line y2="99.99998931884765" x2="190" y1="99.99998931884765" x1="0" class="node-line-0"></line></g><g transform="translate(95, 10)"><text text-anchor="middle" dominant-baseline="middle" alignment-baseline="middle" dy="1em"><tspan dy="1em" x="0">Organisationen</tspan><tspan dy="1.1em" x="0">können   einfacher</tspan><tspan dy="1.1em" x="0">erstellt   und</tspan><tspan dy="1.1em" x="0">verwaltet   werden.</tspan></text></g></g></g><g transform="translate(500, 167.19999961853028)" class="taskWrapper"><g class="timeline-node section-0"><g><path d="M0 77.40000228881836 v-72.40000228881836 q0,-5 5,-5 h180 q5,0 5,5 v77.40000228881836 H0 Z" class="node-bkg node-undefined" id="node-undefined"></path><line y2="82.40000228881836" x2="190" y1="82.40000228881836" x1="0" class="node-line-0"></line></g><g transform="translate(95, 10)"><text text-anchor="middle" dominant-baseline="middle" alignment-baseline="middle" dy="1em"><tspan dy="1em" x="0">PI   25</tspan><tspan dy="1.1em" x="0">(27.03.2025   -</tspan><tspan dy="1.1em" x="0">04.06.2025)</tspan></text></g></g></g><g class="lineWrapper"><line stroke-dasharray="5,5" marker-end="url(#arrowhead)" stroke="black" stroke-width="2" y2="1007.199961090088" x2="595" y1="249.60000190734866" x1="595"></line></g><g transform="translate(500, 367.1999996185303)" class="eventWrapper"><g class="timeline-node section-0"><g><path d="M0 94.99998931884765 v-89.99998931884765 q0,-5 5,-5 h180 q5,0 5,5 v94.99998931884765 H0 Z" class="node-bkg node-undefined" id="node-undefined"></path><line y2="99.99998931884765" x2="190" y1="99.99998931884765" x1="0" class="node-line-0"></line></g><g transform="translate(95, 10)"><text text-anchor="middle" dominant-baseline="middle" alignment-baseline="middle" dy="1em"><tspan dy="1em" x="0">Neue   API-Endpunkte</tspan><tspan dy="1.1em" x="0">für   I14Y-Partner</tspan><tspan dy="1.1em" x="0">(Bereich</tspan><tspan dy="1.1em" x="0">Dataservices)</tspan></text></g></g></g><g transform="translate(500, 477.19998893737795)" class="eventWrapper"><g class="timeline-node section-0"><g><path d="M0 94.99998931884765 v-89.99998931884765 q0,-5 5,-5 h180 q5,0 5,5 v94.99998931884765 H0 Z" class="node-bkg node-undefined" id="node-undefined"></path><line y2="99.99998931884765" x2="190" y1="99.99998931884765" x1="0" class="node-line-0"></line></g><g transform="translate(95, 10)"><text text-anchor="middle" dominant-baseline="middle" alignment-baseline="middle" dy="1em"><tspan dy="1em" x="0">Optimierungen   und</tspan><tspan dy="1.1em" x="0">Erweiterung   der</tspan><tspan dy="1.1em" x="0">Log-Möglichkeiten</tspan><tspan dy="1.1em" x="0">(Audit   Trail).</tspan></text></g></g></g><g transform="translate(500, 587.1999782562256)" class="eventWrapper"><g class="timeline-node section-0"><g><path d="M0 59.8 v-54.8 q0,-5 5,-5 h180 q5,0 5,5 v59.8 H0 Z" class="node-bkg node-undefined" id="node-undefined"></path><line y2="64.8" x2="190" y1="64.8" x1="0" class="node-line-0"></line></g><g transform="translate(95, 10)"><text text-anchor="middle" dominant-baseline="middle" alignment-baseline="middle" dy="1em"><tspan dy="1em" x="0">Verbesserung   der</tspan><tspan dy="1.1em" x="0">Suchfunktion.</tspan></text></g></g></g><g transform="translate(700, 167.19999961853028)" class="taskWrapper"><g class="timeline-node section-0"><g><path d="M0 77.40000228881836 v-72.40000228881836 q0,-5 5,-5 h180 q5,0 5,5 v77.40000228881836 H0 Z" class="node-bkg node-undefined" id="node-undefined"></path><line y2="82.40000228881836" x2="190" y1="82.40000228881836" x1="0" class="node-line-0"></line></g><g transform="translate(95, 10)"><text text-anchor="middle" dominant-baseline="middle" alignment-baseline="middle" dy="1em"><tspan dy="1em" x="0">PI   26   -   28</tspan><tspan dy="1.1em" x="0">(05.06.2025   -</tspan><tspan dy="1.1em" x="0">04.01.2026)</tspan></text></g></g></g><g class="lineWrapper"><line stroke-dasharray="5,5" marker-end="url(#arrowhead)" stroke="black" stroke-width="2" y2="1007.199961090088" x2="795" y1="249.60000190734866" x1="795"></line></g><g transform="translate(700, 367.1999996185303)" class="eventWrapper"><g class="timeline-node section-0"><g><path d="M0 77.40000228881836 v-72.40000228881836 q0,-5 5,-5 h180 q5,0 5,5 v77.40000228881836 H0 Z" class="node-bkg node-undefined" id="node-undefined"></path><line y2="82.40000228881836" x2="190" y1="82.40000228881836" x1="0" class="node-line-0"></line></g><g transform="translate(95, 10)"><text text-anchor="middle" dominant-baseline="middle" alignment-baseline="middle" dy="1em"><tspan dy="1em" x="0">Automatisches</tspan><tspan dy="1.1em" x="0">Onboarding   der</tspan><tspan dy="1.1em" x="0">Bundesverwaltung.</tspan></text></g></g></g><g transform="translate(700, 459.60000190734866)" class="eventWrapper"><g class="timeline-node section-0"><g><path d="M0 77.40000228881836 v-72.40000228881836 q0,-5 5,-5 h180 q5,0 5,5 v77.40000228881836 H0 Z" class="node-bkg node-undefined" id="node-undefined"></path><line y2="82.40000228881836" x2="190" y1="82.40000228881836" x1="0" class="node-line-0"></line></g><g transform="translate(95, 10)"><text text-anchor="middle" dominant-baseline="middle" alignment-baseline="middle" dy="1em"><tspan dy="1em" x="0">Einführen   von</tspan><tspan dy="1.1em" x="0">Mapping-Tabellen</tspan><tspan dy="1.1em" x="0">zur   Dokumentation.</tspan></text></g></g></g><g transform="translate(700, 552.000004196167)" class="eventWrapper"><g class="timeline-node section-0"><g><path d="M0 94.99998931884765 v-89.99998931884765 q0,-5 5,-5 h180 q5,0 5,5 v94.99998931884765 H0 Z" class="node-bkg node-undefined" id="node-undefined"></path><line y2="99.99998931884765" x2="190" y1="99.99998931884765" x1="0" class="node-line-0"></line></g><g transform="translate(95, 10)"><text text-anchor="middle" dominant-baseline="middle" alignment-baseline="middle" dy="1em"><tspan dy="1em" x="0">Notifikationen   bei</tspan><tspan dy="1.1em" x="0">Änderungen   an</tspan><tspan dy="1.1em" x="0">Metadaten   können</tspan><tspan dy="1.1em" x="0">abonniert   werden.</tspan></text></g></g></g><g transform="translate(700, 661.9999935150146)" class="eventWrapper"><g class="timeline-node section-0"><g><path d="M0 59.8 v-54.8 q0,-5 5,-5 h180 q5,0 5,5 v59.8 H0 Z" class="node-bkg node-undefined" id="node-undefined"></path><line y2="64.8" x2="190" y1="64.8" x1="0" class="node-line-0"></line></g><g transform="translate(95, 10)"><text text-anchor="middle" dominant-baseline="middle" alignment-baseline="middle" dy="1em"><tspan dy="1em" x="0">Weitere</tspan><tspan dy="1.1em" x="0">Exportmöglichkeiten.</tspan></text></g></g></g><g transform="translate(700, 736.7999935150145)" class="eventWrapper"><g class="timeline-node section-0"><g><path d="M0 112.59999542236328 v-107.59999542236328 q0,-5 5,-5 h180 q5,0 5,5 v112.59999542236328 H0 Z" class="node-bkg node-undefined" id="node-undefined"></path><line y2="117.59999542236328" x2="190" y1="117.59999542236328" x1="0" class="node-line-0"></line></g><g transform="translate(95, 10)"><text text-anchor="middle" dominant-baseline="middle" alignment-baseline="middle" dy="1em"><tspan dy="1em" x="0">Öffentlich</tspan><tspan dy="1.1em" x="0">publizierte   Inhalte</tspan><tspan dy="1.1em" x="0">werden   als   Linked</tspan><tspan dy="1.1em" x="0">Data   zur   Verfügung</tspan><tspan dy="1.1em" x="0">gestellt.</tspan></text></g></g></g><g transform="translate(900, 50)"><g class="timeline-node section-1"><g><path d="M0 62.19999961853027 v-57.19999961853027 q0,-5 5,-5 h180 q5,0 5,5 v62.19999961853027 H0 Z" class="node-bkg node-undefined" id="node-undefined"></path><line y2="67.19999961853027" x2="190" y1="67.19999961853027" x1="0" class="node-line-1"></line></g><g transform="translate(95, 10)"><text text-anchor="middle" dominant-baseline="middle" alignment-baseline="middle" dy="1em"><tspan dy="1em" x="0">2026</tspan></text></g></g></g><g transform="translate(900, 167.19999961853028)" class="taskWrapper"><g class="timeline-node section-1"><g><path d="M0 77.40000228881836 v-72.40000228881836 q0,-5 5,-5 h180 q5,0 5,5 v77.40000228881836 H0 Z" class="node-bkg node-undefined" id="node-undefined"></path><line y2="82.40000228881836" x2="190" y1="82.40000228881836" x1="0" class="node-line-1"></line></g><g transform="translate(95, 10)"><text text-anchor="middle" dominant-baseline="middle" alignment-baseline="middle" dy="1em"><tspan dy="1em" x="0">PIs   29   -   33</tspan><tspan dy="1.1em" x="0">(05.01.2026   -</tspan><tspan dy="1.1em" x="0">31.12.2026)</tspan></text></g></g></g><g class="lineWrapper"><line stroke-dasharray="5,5" marker-end="url(#arrowhead)" stroke="black" stroke-width="2" y2="1007.199961090088" x2="995" y1="249.60000190734866" x1="995"></line></g><g transform="translate(900, 367.1999996185303)" class="eventWrapper"><g class="timeline-node section-1"><g><path d="M0 77.40000228881836 v-72.40000228881836 q0,-5 5,-5 h180 q5,0 5,5 v77.40000228881836 H0 Z" class="node-bkg node-undefined" id="node-undefined"></path><line y2="82.40000228881836" x2="190" y1="82.40000228881836" x1="0" class="node-line-1"></line></g><g transform="translate(95, 10)"><text text-anchor="middle" dominant-baseline="middle" alignment-baseline="middle" dy="1em"><tspan dy="1em" x="0">Vorschau   auf   die</tspan><tspan dy="1.1em" x="0">Daten   wird</tspan><tspan dy="1.1em" x="0">eingebaut.</tspan></text></g></g></g><g transform="translate(900, 459.60000190734866)" class="eventWrapper"><g class="timeline-node section-1"><g><path d="M0 112.59999542236328 v-107.59999542236328 q0,-5 5,-5 h180 q5,0 5,5 v112.59999542236328 H0 Z" class="node-bkg node-undefined" id="node-undefined"></path><line y2="117.59999542236328" x2="190" y1="117.59999542236328" x1="0" class="node-line-1"></line></g><g transform="translate(95, 10)"><text text-anchor="middle" dominant-baseline="middle" alignment-baseline="middle" dy="1em"><tspan dy="1em" x="0">Möglichkeit   zur</tspan><tspan dy="1.1em" x="0">Dokumentation   von</tspan><tspan dy="1.1em" x="0">Datenflüssen   (Data</tspan><tspan dy="1.1em" x="0">Lineage)   wird</tspan><tspan dy="1.1em" x="0">geschaffen.</tspan></text></g></g></g><g transform="translate(900, 587.1999973297119)" class="eventWrapper"><g class="timeline-node section-1"><g><path d="M0 77.40000228881836 v-72.40000228881836 q0,-5 5,-5 h180 q5,0 5,5 v77.40000228881836 H0 Z" class="node-bkg node-undefined" id="node-undefined"></path><line y2="82.40000228881836" x2="190" y1="82.40000228881836" x1="0" class="node-line-1"></line></g><g transform="translate(95, 10)"><text text-anchor="middle" dominant-baseline="middle" alignment-baseline="middle" dy="1em"><tspan dy="1em" x="0">Erweiterung   der</tspan><tspan dy="1.1em" x="0">Verbindungsmöglichkeiten</tspan><tspan dy="1.1em" x="0">zu   Tools.</tspan></text></g></g></g><g transform="translate(900, 679.5999996185302)" class="eventWrapper"><g class="timeline-node section-1"><g><path d="M0 77.40000228881836 v-72.40000228881836 q0,-5 5,-5 h180 q5,0 5,5 v77.40000228881836 H0 Z" class="node-bkg node-undefined" id="node-undefined"></path><line y2="82.40000228881836" x2="190" y1="82.40000228881836" x1="0" class="node-line-1"></line></g><g transform="translate(95, 10)"><text text-anchor="middle" dominant-baseline="middle" alignment-baseline="middle" dy="1em"><tspan dy="1em" x="0">Freigabe   des</tspan><tspan dy="1.1em" x="0">Programmcodes</tspan><tspan dy="1.1em" x="0">(Open   Source).</tspan></text></g></g></g><g transform="translate(900, 772.0000019073485)" class="eventWrapper"><g class="timeline-node section-1"><g><path d="M0 59.8 v-54.8 q0,-5 5,-5 h180 q5,0 5,5 v59.8 H0 Z" class="node-bkg node-undefined" id="node-undefined"></path><line y2="64.8" x2="190" y1="64.8" x1="0" class="node-line-1"></line></g><g transform="translate(95, 10)"><text text-anchor="middle" dominant-baseline="middle" alignment-baseline="middle" dy="1em"><tspan dy="1em" x="0">Abschluss   der</tspan><tspan dy="1.1em" x="0">Projektphase.</tspan></text></g></g></g><text y="20" font-weight="bold" font-size="4ex" x="445">Roadmap Interoperabilitätsplattform I14Y</text><g class="lineWrapper"><line marker-end="url(#arrowhead)" stroke="black" stroke-width="4" y2="284.39999923706057" x2="1140" y1="284.39999923706057" x1="50"></line></g></svg>