<svg aria-roledescription="timeline" role="graphics-document document" viewBox="0 0 1190 1079.5999755859375" style="max-width: 1190px; background-color: white;" xmlns:xlink="http://www.w3.org/1999/xlink" xmlns="http://www.w3.org/2000/svg" width="100%" id="my-svg"><style>#my-svg{font-family:"trebuchet ms",verdana,arial,sans-serif;font-size:16px;fill:#333;}#my-svg .error-icon{fill:hsl(220.5882352941, 100%, 98.3333333333%);}#my-svg .error-text{fill:rgb(8.5000000002, 5.7500000001, 0);stroke:rgb(8.5000000002, 5.7500000001, 0);}#my-svg .edge-thickness-normal{stroke-width:1px;}#my-svg .edge-thickness-thick{stroke-width:3.5px;}#my-svg .edge-pattern-solid{stroke-dasharray:0;}#my-svg .edge-thickness-invisible{stroke-width:0;fill:none;}#my-svg .edge-pattern-dashed{stroke-dasharray:3;}#my-svg .edge-pattern-dotted{stroke-dasharray:2;}#my-svg .marker{fill:#0b0b0b;stroke:#0b0b0b;}#my-svg .marker.cross{stroke:#0b0b0b;}#my-svg svg{font-family:"trebuchet ms",verdana,arial,sans-serif;font-size:16px;}#my-svg p{margin:0;}#my-svg .edge{stroke-width:3;}#my-svg .section--1 rect,#my-svg .section--1 path,#my-svg .section--1 circle,#my-svg .section--1 path{fill:hsl(40.5882352941, 100%, 68.3333333333%);}#my-svg .section--1 text{fill:#333;}#my-svg .node-icon--1{font-size:40px;color:#333;}#my-svg .section-edge--1{stroke:hsl(40.5882352941, 100%, 68.3333333333%);}#my-svg .edge-depth--1{stroke-width:17;}#my-svg .section--1 line{stroke:rgb(0, 52.2500000001, 161.5000000002);stroke-width:3;}#my-svg .lineWrapper line{stroke:#333;}#my-svg .disabled,#my-svg .disabled circle,#my-svg .disabled text{fill:lightgray;}#my-svg .disabled text{fill:#efefef;}#my-svg .section-0 rect,#my-svg .section-0 path,#my-svg .section-0 circle,#my-svg .section-0 path{fill:hsl(-79.4117647059, 100%, 68.3333333333%);}#my-svg .section-0 text{fill:#333;}#my-svg .node-icon-0{font-size:40px;color:#333;}#my-svg .section-edge-0{stroke:hsl(-79.4117647059, 100%, 68.3333333333%);}#my-svg .edge-depth-0{stroke-width:14;}#my-svg .section-0 line{stroke:rgb(52.2500000001, 161.5000000002, 0);stroke-width:3;}#my-svg .lineWrapper line{stroke:#333;}#my-svg .disabled,#my-svg .disabled circle,#my-svg .disabled text{fill:lightgray;}#my-svg .disabled text{fill:#efefef;}#my-svg .section-1 rect,#my-svg .section-1 path,#my-svg .section-1 circle,#my-svg .section-1 path{fill:hsl(220.5882352941, 100%, 73.3333333333%);}#my-svg .section-1 text{fill:#333;}#my-svg .node-icon-1{font-size:40px;color:#333;}#my-svg .section-edge-1{stroke:hsl(220.5882352941, 100%, 73.3333333333%);}#my-svg .edge-depth-1{stroke-width:11;}#my-svg .section-1 line{stroke:rgb(136.0000000002, 92.0000000001, 0);stroke-width:3;}#my-svg .lineWrapper line{stroke:#333;}#my-svg .disabled,#my-svg .disabled circle,#my-svg .disabled text{fill:lightgray;}#my-svg .disabled text{fill:#efefef;}#my-svg .section-2 rect,#my-svg .section-2 path,#my-svg .section-2 circle,#my-svg .section-2 path{fill:hsl(70.5882352941, 100%, 68.3333333333%);}#my-svg .section-2 text{fill:#333;}#my-svg .node-icon-2{font-size:40px;color:#333;}#my-svg .section-edge-2{stroke:hsl(70.5882352941, 100%, 68.3333333333%);}#my-svg .edge-depth-2{stroke-width:8;}#my-svg .section-2 line{stroke:rgb(28.5, 0, 161.5000000002);stroke-width:3;}#my-svg .lineWrapper line{stroke:#333;}#my-svg .disabled,#my-svg .disabled circle,#my-svg .disabled text{fill:lightgray;}#my-svg .disabled text{fill:#efefef;}#my-svg .section-3 rect,#my-svg .section-3 path,#my-svg .section-3 circle,#my-svg .section-3 path{fill:hsl(100.5882352941, 100%, 68.3333333333%);}#my-svg .section-3 text{fill:#333;}#my-svg .node-icon-3{font-size:40px;color:#333;}#my-svg .section-edge-3{stroke:hsl(100.5882352941, 100%, 68.3333333333%);}#my-svg .edge-depth-3{stroke-width:5;}#my-svg .section-3 line{stroke:rgb(109.2500000001, 0, 161.5000000002);stroke-width:3;}#my-svg .lineWrapper line{stroke:#333;}#my-svg .disabled,#my-svg .disabled circle,#my-svg .disabled text{fill:lightgray;}#my-svg .disabled text{fill:#efefef;}#my-svg .section-4 rect,#my-svg .section-4 path,#my-svg .section-4 circle,#my-svg .section-4 path{fill:hsl(130.5882352941, 100%, 68.3333333333%);}#my-svg .section-4 text{fill:#333;}#my-svg .node-icon-4{font-size:40px;color:#333;}#my-svg .section-edge-4{stroke:hsl(130.5882352941, 100%, 68.3333333333%);}#my-svg .edge-depth-4{stroke-width:2;}#my-svg .section-4 line{stroke:rgb(161.5000000002, 0, 133.0000000002);stroke-width:3;}#my-svg .lineWrapper line{stroke:#333;}#my-svg .disabled,#my-svg .disabled circle,#my-svg .disabled text{fill:lightgray;}#my-svg .disabled text{fill:#efefef;}#my-svg .section-5 rect,#my-svg .section-5 path,#my-svg .section-5 circle,#my-svg .section-5 path{fill:hsl(160.5882352941, 100%, 68.3333333333%);}#my-svg .section-5 text{fill:#333;}#my-svg .node-icon-5{font-size:40px;color:#333;}#my-svg .section-edge-5{stroke:hsl(160.5882352941, 100%, 68.3333333333%);}#my-svg .edge-depth-5{stroke-width:-1;}#my-svg .section-5 line{stroke:rgb(161.5000000002, 0, 52.2500000001);stroke-width:3;}#my-svg .lineWrapper line{stroke:#333;}#my-svg .disabled,#my-svg .disabled circle,#my-svg .disabled text{fill:lightgray;}#my-svg .disabled text{fill:#efefef;}#my-svg .section-6 rect,#my-svg .section-6 path,#my-svg .section-6 circle,#my-svg .section-6 path{fill:hsl(190.5882352941, 100%, 68.3333333333%);}#my-svg .section-6 text{fill:#333;}#my-svg .node-icon-6{font-size:40px;color:#333;}#my-svg .section-edge-6{stroke:hsl(190.5882352941, 100%, 68.3333333333%);}#my-svg .edge-depth-6{stroke-width:-4;}#my-svg .section-6 line{stroke:rgb(161.5000000002, 28.5, 0);stroke-width:3;}#my-svg .lineWrapper line{stroke:#333;}#my-svg .disabled,#my-svg .disabled circle,#my-svg .disabled text{fill:lightgray;}#my-svg .disabled text{fill:#efefef;}#my-svg .section-7 rect,#my-svg .section-7 path,#my-svg .section-7 circle,#my-svg .section-7 path{fill:hsl(250.5882352941, 100%, 75%);}#my-svg .section-7 text{fill:#333;}#my-svg .node-icon-7{font-size:40px;color:#333;}#my-svg .section-edge-7{stroke:hsl(250.5882352941, 100%, 75%);}#my-svg .edge-depth-7{stroke-width:-7;}#my-svg .section-7 line{stroke:rgb(105, 127.5, 0);stroke-width:3;}#my-svg .lineWrapper line{stroke:#333;}#my-svg .disabled,#my-svg .disabled circle,#my-svg .disabled text{fill:lightgray;}#my-svg .disabled text{fill:#efefef;}#my-svg .section-8 rect,#my-svg .section-8 path,#my-svg .section-8 circle,#my-svg .section-8 path{fill:hsl(310.5882352941, 100%, 68.3333333333%);}#my-svg .section-8 text{fill:#333;}#my-svg .node-icon-8{font-size:40px;color:#333;}#my-svg .section-edge-8{stroke:hsl(310.5882352941, 100%, 68.3333333333%);}#my-svg .edge-depth-8{stroke-width:-10;}#my-svg .section-8 line{stroke:rgb(0, 161.5000000002, 28.5);stroke-width:3;}#my-svg .lineWrapper line{stroke:#333;}#my-svg .disabled,#my-svg .disabled circle,#my-svg .disabled text{fill:lightgray;}#my-svg .disabled text{fill:#efefef;}#my-svg .section-9 rect,#my-svg .section-9 path,#my-svg .section-9 circle,#my-svg .section-9 path{fill:hsl(340.5882352941, 100%, 68.3333333333%);}#my-svg .section-9 text{fill:#333;}#my-svg .node-icon-9{font-size:40px;color:#333;}#my-svg .section-edge-9{stroke:hsl(340.5882352941, 100%, 68.3333333333%);}#my-svg .edge-depth-9{stroke-width:-13;}#my-svg .section-9 line{stroke:rgb(0, 161.5000000002, 109.2500000001);stroke-width:3;}#my-svg .lineWrapper line{stroke:#333;}#my-svg .disabled,#my-svg .disabled circle,#my-svg .disabled text{fill:lightgray;}#my-svg .disabled text{fill:#efefef;}#my-svg .section-10 rect,#my-svg .section-10 path,#my-svg .section-10 circle,#my-svg .section-10 path{fill:hsl(10.5882352941, 100%, 68.3333333333%);}#my-svg .section-10 text{fill:#333;}#my-svg .node-icon-10{font-size:40px;color:#333;}#my-svg .section-edge-10{stroke:hsl(10.5882352941, 100%, 68.3333333333%);}#my-svg .edge-depth-10{stroke-width:-16;}#my-svg .section-10 line{stroke:rgb(0, 133.0000000002, 161.5000000002);stroke-width:3;}#my-svg .lineWrapper line{stroke:#333;}#my-svg .disabled,#my-svg .disabled circle,#my-svg .disabled text{fill:lightgray;}#my-svg .disabled text{fill:#efefef;}#my-svg .section-root rect,#my-svg .section-root path,#my-svg .section-root circle{fill:hsl(40.5882352941, 100%, 68.3333333333%);}#my-svg .section-root text{fill:#333;}#my-svg .icon-container{height:100%;display:flex;justify-content:center;align-items:center;}#my-svg .edge{fill:none;}#my-svg .eventWrapper{filter:brightness(120%);}#my-svg :root{--mermaid-font-family:"trebuchet ms",verdana,arial,sans-serif;}</style><g/><g/><defs><marker orient="auto" markerHeight="4" markerWidth="6" refY="2" refX="5" id="arrowhead"><path d="M 0,0 V 4 L6,2 Z"/></marker></defs><g transform="translate(100, 50)"><g class="timeline-node section--1"><g><path d="M0 62.8 v-57.8 q0,-5 5,-5 h180 q5,0 5,5 v62.8 H0 Z" class="node-bkg node-undefined" id="node-undefined"/><line y2="67.8" x2="190" y1="67.8" x1="0" class="node-line--1"/></g><g transform="translate(95, 10)"><text text-anchor="middle" dominant-baseline="middle" alignment-baseline="middle" dy="1em"><tspan dy="1em" x="0">2024</tspan></text></g></g></g><g transform="translate(100, 167.8)" class="taskWrapper"><g class="timeline-node section--1"><g><path d="M0 77.99999694824218 v-72.99999694824218 q0,-5 5,-5 h180 q5,0 5,5 v77.99999694824218 H0 Z" class="node-bkg node-undefined" id="node-undefined"/><line y2="82.99999694824218" x2="190" y1="82.99999694824218" x1="0" class="node-line--1"/></g><g transform="translate(95, 10)"><text text-anchor="middle" dominant-baseline="middle" alignment-baseline="middle" dy="1em"><tspan dy="1em" x="0">PI   23</tspan><tspan dy="1.1em" x="0">(07-11-2024   -</tspan><tspan dy="1.1em" x="0">15-01-2025)</tspan></text></g></g></g><g class="lineWrapper"><line stroke-dasharray="5,5" marker-end="url(#arrowhead)" stroke="black" stroke-width="2" y2="1029.5999664306642" x2="195" y1="250.7999969482422" x1="195"/></g><g transform="translate(100, 367.8)" class="eventWrapper"><g class="timeline-node section--1"><g><path d="M0 95.59999542236328 v-90.59999542236328 q0,-5 5,-5 h180 q5,0 5,5 v95.59999542236328 H0 Z" class="node-bkg node-undefined" id="node-undefined"/><line y2="100.59999542236328" x2="190" y1="100.59999542236328" x1="0" class="node-line--1"/></g><g transform="translate(95, 10)"><text text-anchor="middle" dominant-baseline="middle" alignment-baseline="middle" dy="1em"><tspan dy="1em" x="0">Migration   of   the</tspan><tspan dy="1.1em" x="0">database.   This   will</tspan><tspan dy="1.1em" x="0">speed   up   the</tspan><tspan dy="1.1em" x="0">global   search.</tspan></text></g></g></g><g transform="translate(100, 478.3999954223633)" class="eventWrapper"><g class="timeline-node section--1"><g><path d="M0 130.79999237060548 v-125.79999237060548 q0,-5 5,-5 h180 q5,0 5,5 v130.79999237060548 H0 Z" class="node-bkg node-undefined" id="node-undefined"/><line y2="135.79999237060548" x2="190" y1="135.79999237060548" x1="0" class="node-line--1"/></g><g transform="translate(95, 10)"><text text-anchor="middle" dominant-baseline="middle" alignment-baseline="middle" dy="1em"><tspan dy="1em" x="0">New   API   endpoints</tspan><tspan dy="1.1em" x="0">for   I14Y   partners</tspan><tspan dy="1.1em" x="0">(retrieving   and</tspan><tspan dy="1.1em" x="0">publishing</tspan><tspan dy="1.1em" x="0">descriptions   of</tspan><tspan dy="1.1em" x="0">data   collections).</tspan></text></g></g></g><g transform="translate(100, 624.1999877929688)" class="eventWrapper"><g class="timeline-node section--1"><g><path d="M0 77.99999694824218 v-72.99999694824218 q0,-5 5,-5 h180 q5,0 5,5 v77.99999694824218 H0 Z" class="node-bkg node-undefined" id="node-undefined"/><line y2="82.99999694824218" x2="190" y1="82.99999694824218" x1="0" class="node-line--1"/></g><g transform="translate(95, 10)"><text text-anchor="middle" dominant-baseline="middle" alignment-baseline="middle" dy="1em"><tspan dy="1em" x="0">Searching   in   code</tspan><tspan dy="1.1em" x="0">lists   will   be</tspan><tspan dy="1.1em" x="0">possible.</tspan></text></g></g></g><g transform="translate(100, 717.199984741211)" class="eventWrapper"><g class="timeline-node section--1"><g><path d="M0 130.79999237060548 v-125.79999237060548 q0,-5 5,-5 h180 q5,0 5,5 v130.79999237060548 H0 Z" class="node-bkg node-undefined" id="node-undefined"/><line y2="135.79999237060548" x2="190" y1="135.79999237060548" x1="0" class="node-line--1"/></g><g transform="translate(95, 10)"><text text-anchor="middle" dominant-baseline="middle" alignment-baseline="middle" dy="1em"><tspan dy="1em" x="0">The   legal   form</tspan><tspan dy="1.1em" x="0">and   field   of</tspan><tspan dy="1.1em" x="0">activity   of   each</tspan><tspan dy="1.1em" x="0">organisation   can</tspan><tspan dy="1.1em" x="0">be   retrieved   via</tspan><tspan dy="1.1em" x="0">the   API.</tspan></text></g></g></g><g transform="translate(100, 862.9999771118164)" class="eventWrapper"><g class="timeline-node section--1"><g><path d="M0 130.79999237060548 v-125.79999237060548 q0,-5 5,-5 h180 q5,0 5,5 v130.79999237060548 H0 Z" class="node-bkg node-undefined" id="node-undefined"/><line y2="135.79999237060548" x2="190" y1="135.79999237060548" x1="0" class="node-line--1"/></g><g transform="translate(95, 10)"><text text-anchor="middle" dominant-baseline="middle" alignment-baseline="middle" dy="1em"><tspan dy="1em" x="0">Local   Data</tspan><tspan dy="1.1em" x="0">Stewards   can</tspan><tspan dy="1.1em" x="0">independently</tspan><tspan dy="1.1em" x="0">publish</tspan><tspan dy="1.1em" x="0">descriptions</tspan><tspan dy="1.1em" x="0">publicly.</tspan></text></g></g></g><g transform="translate(300, 50)"><g class="timeline-node section-0"><g><path d="M0 62.8 v-57.8 q0,-5 5,-5 h580 q5,0 5,5 v62.8 H0 Z" class="node-bkg node-undefined" id="node-undefined"/><line y2="67.8" x2="590" y1="67.8" x1="0" class="node-line-0"/></g><g transform="translate(295, 10)"><text text-anchor="middle" dominant-baseline="middle" alignment-baseline="middle" dy="1em"><tspan dy="1em" x="0">2025</tspan></text></g></g></g><g transform="translate(300, 167.8)" class="taskWrapper"><g class="timeline-node section-0"><g><path d="M0 77.99999694824218 v-72.99999694824218 q0,-5 5,-5 h180 q5,0 5,5 v77.99999694824218 H0 Z" class="node-bkg node-undefined" id="node-undefined"/><line y2="82.99999694824218" x2="190" y1="82.99999694824218" x1="0" class="node-line-0"/></g><g transform="translate(95, 10)"><text text-anchor="middle" dominant-baseline="middle" alignment-baseline="middle" dy="1em"><tspan dy="1em" x="0">PIs   24</tspan><tspan dy="1.1em" x="0">(16-01-2025   -</tspan><tspan dy="1.1em" x="0">04-03-2025)</tspan></text></g></g></g><g class="lineWrapper"><line stroke-dasharray="5,5" marker-end="url(#arrowhead)" stroke="black" stroke-width="2" y2="1029.5999664306642" x2="395" y1="250.7999969482422" x1="395"/></g><g transform="translate(300, 367.8)" class="eventWrapper"><g class="timeline-node section-0"><g><path d="M0 95.59999542236328 v-90.59999542236328 q0,-5 5,-5 h180 q5,0 5,5 v95.59999542236328 H0 Z" class="node-bkg node-undefined" id="node-undefined"/><line y2="100.59999542236328" x2="190" y1="100.59999542236328" x1="0" class="node-line-0"/></g><g transform="translate(95, 10)"><text text-anchor="middle" dominant-baseline="middle" alignment-baseline="middle" dy="1em"><tspan dy="1em" x="0">New   API   endpoints</tspan><tspan dy="1.1em" x="0">for   I14Y   partners</tspan><tspan dy="1.1em" x="0">(dataset   and</tspan><tspan dy="1.1em" x="0">concepts   area).</tspan></text></g></g></g><g transform="translate(300, 478.3999954223633)" class="eventWrapper"><g class="timeline-node section-0"><g><path d="M0 95.59999542236328 v-90.59999542236328 q0,-5 5,-5 h180 q5,0 5,5 v95.59999542236328 H0 Z" class="node-bkg node-undefined" id="node-undefined"/><line y2="100.59999542236328" x2="190" y1="100.59999542236328" x1="0" class="node-line-0"/></g><g transform="translate(95, 10)"><text text-anchor="middle" dominant-baseline="middle" alignment-baseline="middle" dy="1em"><tspan dy="1em" x="0">Changes   to   data</tspan><tspan dy="1.1em" x="0">collections   will   be</tspan><tspan dy="1.1em" x="0">recorded   (audit</tspan><tspan dy="1.1em" x="0">trail).</tspan></text></g></g></g><g transform="translate(300, 588.9999908447265)" class="eventWrapper"><g class="timeline-node section-0"><g><path d="M0 95.59999542236328 v-90.59999542236328 q0,-5 5,-5 h180 q5,0 5,5 v95.59999542236328 H0 Z" class="node-bkg node-undefined" id="node-undefined"/><line y2="100.59999542236328" x2="190" y1="100.59999542236328" x1="0" class="node-line-0"/></g><g transform="translate(95, 10)"><text text-anchor="middle" dominant-baseline="middle" alignment-baseline="middle" dy="1em"><tspan dy="1em" x="0">Structures   of   data</tspan><tspan dy="1.1em" x="0">collections   can   be</tspan><tspan dy="1.1em" x="0">captured   more</tspan><tspan dy="1.1em" x="0">easily.</tspan></text></g></g></g><g transform="translate(300, 699.5999862670898)" class="eventWrapper"><g class="timeline-node section-0"><g><path d="M0 60.39999847412109 v-55.39999847412109 q0,-5 5,-5 h180 q5,0 5,5 v60.39999847412109 H0 Z" class="node-bkg node-undefined" id="node-undefined"/><line y2="65.39999847412109" x2="190" y1="65.39999847412109" x1="0" class="node-line-0"/></g><g transform="translate(95, 10)"><text text-anchor="middle" dominant-baseline="middle" alignment-baseline="middle" dy="1em"><tspan dy="1em" x="0">Code   lists   can   be</tspan><tspan dy="1.1em" x="0">filtered.</tspan></text></g></g></g><g transform="translate(300, 774.9999847412108)" class="eventWrapper"><g class="timeline-node section-0"><g><path d="M0 77.99999694824218 v-72.99999694824218 q0,-5 5,-5 h180 q5,0 5,5 v77.99999694824218 H0 Z" class="node-bkg node-undefined" id="node-undefined"/><line y2="82.99999694824218" x2="190" y1="82.99999694824218" x1="0" class="node-line-0"/></g><g transform="translate(95, 10)"><text text-anchor="middle" dominant-baseline="middle" alignment-baseline="middle" dy="1em"><tspan dy="1em" x="0">Additional</tspan><tspan dy="1.1em" x="0">evaluations   in   the</tspan><tspan dy="1.1em" x="0">dashboard.</tspan></text></g></g></g><g transform="translate(300, 867.999981689453)" class="eventWrapper"><g class="timeline-node section-0"><g><path d="M0 95.59999542236328 v-90.59999542236328 q0,-5 5,-5 h180 q5,0 5,5 v95.59999542236328 H0 Z" class="node-bkg node-undefined" id="node-undefined"/><line y2="100.59999542236328" x2="190" y1="100.59999542236328" x1="0" class="node-line-0"/></g><g transform="translate(95, 10)"><text text-anchor="middle" dominant-baseline="middle" alignment-baseline="middle" dy="1em"><tspan dy="1em" x="0">Organisations   can</tspan><tspan dy="1.1em" x="0">be   created   and</tspan><tspan dy="1.1em" x="0">managed   more</tspan><tspan dy="1.1em" x="0">easily.</tspan></text></g></g></g><g transform="translate(500, 167.8)" class="taskWrapper"><g class="timeline-node section-0"><g><path d="M0 77.99999694824218 v-72.99999694824218 q0,-5 5,-5 h180 q5,0 5,5 v77.99999694824218 H0 Z" class="node-bkg node-undefined" id="node-undefined"/><line y2="82.99999694824218" x2="190" y1="82.99999694824218" x1="0" class="node-line-0"/></g><g transform="translate(95, 10)"><text text-anchor="middle" dominant-baseline="middle" alignment-baseline="middle" dy="1em"><tspan dy="1em" x="0">PI   25</tspan><tspan dy="1.1em" x="0">(27-03-2025   -</tspan><tspan dy="1.1em" x="0">04-06-2025)</tspan></text></g></g></g><g class="lineWrapper"><line stroke-dasharray="5,5" marker-end="url(#arrowhead)" stroke="black" stroke-width="2" y2="1029.5999664306642" x2="595" y1="250.7999969482422" x1="595"/></g><g transform="translate(500, 367.8)" class="eventWrapper"><g class="timeline-node section-0"><g><path d="M0 95.59999542236328 v-90.59999542236328 q0,-5 5,-5 h180 q5,0 5,5 v95.59999542236328 H0 Z" class="node-bkg node-undefined" id="node-undefined"/><line y2="100.59999542236328" x2="190" y1="100.59999542236328" x1="0" class="node-line-0"/></g><g transform="translate(95, 10)"><text text-anchor="middle" dominant-baseline="middle" alignment-baseline="middle" dy="1em"><tspan dy="1em" x="0">New   API   endpoints</tspan><tspan dy="1.1em" x="0">for   I14Y   partners</tspan><tspan dy="1.1em" x="0">(Dataservices</tspan><tspan dy="1.1em" x="0">area)</tspan></text></g></g></g><g transform="translate(500, 478.3999954223633)" class="eventWrapper"><g class="timeline-node section-0"><g><path d="M0 113.19999389648437 v-108.19999389648437 q0,-5 5,-5 h180 q5,0 5,5 v113.19999389648437 H0 Z" class="node-bkg node-undefined" id="node-undefined"/><line y2="118.19999389648437" x2="190" y1="118.19999389648437" x1="0" class="node-line-0"/></g><g transform="translate(95, 10)"><text text-anchor="middle" dominant-baseline="middle" alignment-baseline="middle" dy="1em"><tspan dy="1em" x="0">Optimisations   and</tspan><tspan dy="1.1em" x="0">expansion   of</tspan><tspan dy="1.1em" x="0">logging</tspan><tspan dy="1.1em" x="0">capabilities   (audit</tspan><tspan dy="1.1em" x="0">trail).</tspan></text></g></g></g><g transform="translate(500, 606.5999893188476)" class="eventWrapper"><g class="timeline-node section-0"><g><path d="M0 77.99999694824218 v-72.99999694824218 q0,-5 5,-5 h180 q5,0 5,5 v77.99999694824218 H0 Z" class="node-bkg node-undefined" id="node-undefined"/><line y2="82.99999694824218" x2="190" y1="82.99999694824218" x1="0" class="node-line-0"/></g><g transform="translate(95, 10)"><text text-anchor="middle" dominant-baseline="middle" alignment-baseline="middle" dy="1em"><tspan dy="1em" x="0">Improvement   of</tspan><tspan dy="1.1em" x="0">the   search</tspan><tspan dy="1.1em" x="0">function.</tspan></text></g></g></g><g transform="translate(700, 167.8)" class="taskWrapper"><g class="timeline-node section-0"><g><path d="M0 77.99999694824218 v-72.99999694824218 q0,-5 5,-5 h180 q5,0 5,5 v77.99999694824218 H0 Z" class="node-bkg node-undefined" id="node-undefined"/><line y2="82.99999694824218" x2="190" y1="82.99999694824218" x1="0" class="node-line-0"/></g><g transform="translate(95, 10)"><text text-anchor="middle" dominant-baseline="middle" alignment-baseline="middle" dy="1em"><tspan dy="1em" x="0">PI   26   -   28</tspan><tspan dy="1.1em" x="0">(05-06-2025   -</tspan><tspan dy="1.1em" x="0">04-01-2026)</tspan></text></g></g></g><g class="lineWrapper"><line stroke-dasharray="5,5" marker-end="url(#arrowhead)" stroke="black" stroke-width="2" y2="1029.5999664306642" x2="795" y1="250.7999969482422" x1="795"/></g><g transform="translate(700, 367.8)" class="eventWrapper"><g class="timeline-node section-0"><g><path d="M0 95.59999542236328 v-90.59999542236328 q0,-5 5,-5 h180 q5,0 5,5 v95.59999542236328 H0 Z" class="node-bkg node-undefined" id="node-undefined"/><line y2="100.59999542236328" x2="190" y1="100.59999542236328" x1="0" class="node-line-0"/></g><g transform="translate(95, 10)"><text text-anchor="middle" dominant-baseline="middle" alignment-baseline="middle" dy="1em"><tspan dy="1em" x="0">Automatic</tspan><tspan dy="1.1em" x="0">onboarding   of   the</tspan><tspan dy="1.1em" x="0">federal</tspan><tspan dy="1.1em" x="0">administration.</tspan></text></g></g></g><g transform="translate(700, 478.3999954223633)" class="eventWrapper"><g class="timeline-node section-0"><g><path d="M0 95.59999542236328 v-90.59999542236328 q0,-5 5,-5 h180 q5,0 5,5 v95.59999542236328 H0 Z" class="node-bkg node-undefined" id="node-undefined"/><line y2="100.59999542236328" x2="190" y1="100.59999542236328" x1="0" class="node-line-0"/></g><g transform="translate(95, 10)"><text text-anchor="middle" dominant-baseline="middle" alignment-baseline="middle" dy="1em"><tspan dy="1em" x="0">Introduction   of</tspan><tspan dy="1.1em" x="0">mapping   tables</tspan><tspan dy="1.1em" x="0">for</tspan><tspan dy="1.1em" x="0">documentation.</tspan></text></g></g></g><g transform="translate(700, 588.9999908447265)" class="eventWrapper"><g class="timeline-node section-0"><g><path d="M0 95.59999542236328 v-90.59999542236328 q0,-5 5,-5 h180 q5,0 5,5 v95.59999542236328 H0 Z" class="node-bkg node-undefined" id="node-undefined"/><line y2="100.59999542236328" x2="190" y1="100.59999542236328" x1="0" class="node-line-0"/></g><g transform="translate(95, 10)"><text text-anchor="middle" dominant-baseline="middle" alignment-baseline="middle" dy="1em"><tspan dy="1em" x="0">Notifications   on</tspan><tspan dy="1.1em" x="0">changes   to</tspan><tspan dy="1.1em" x="0">metadata   can   be</tspan><tspan dy="1.1em" x="0">subscribed   to.</tspan></text></g></g></g><g transform="translate(700, 699.5999862670898)" class="eventWrapper"><g class="timeline-node section-0"><g><path d="M0 60.39999847412109 v-55.39999847412109 q0,-5 5,-5 h180 q5,0 5,5 v60.39999847412109 H0 Z" class="node-bkg node-undefined" id="node-undefined"/><line y2="65.39999847412109" x2="190" y1="65.39999847412109" x1="0" class="node-line-0"/></g><g transform="translate(95, 10)"><text text-anchor="middle" dominant-baseline="middle" alignment-baseline="middle" dy="1em"><tspan dy="1em" x="0">Further   export</tspan><tspan dy="1.1em" x="0">possibilities.</tspan></text></g></g></g><g transform="translate(700, 774.9999847412108)" class="eventWrapper"><g class="timeline-node section-0"><g><path d="M0 95.59999542236328 v-90.59999542236328 q0,-5 5,-5 h180 q5,0 5,5 v95.59999542236328 H0 Z" class="node-bkg node-undefined" id="node-undefined"/><line y2="100.59999542236328" x2="190" y1="100.59999542236328" x1="0" class="node-line-0"/></g><g transform="translate(95, 10)"><text text-anchor="middle" dominant-baseline="middle" alignment-baseline="middle" dy="1em"><tspan dy="1em" x="0">Publicly   published</tspan><tspan dy="1.1em" x="0">content   is   made</tspan><tspan dy="1.1em" x="0">available   as</tspan><tspan dy="1.1em" x="0">Linked   Data.</tspan></text></g></g></g><g transform="translate(900, 50)"><g class="timeline-node section-1"><g><path d="M0 62.8 v-57.8 q0,-5 5,-5 h180 q5,0 5,5 v62.8 H0 Z" class="node-bkg node-undefined" id="node-undefined"/><line y2="67.8" x2="190" y1="67.8" x1="0" class="node-line-1"/></g><g transform="translate(95, 10)"><text text-anchor="middle" dominant-baseline="middle" alignment-baseline="middle" dy="1em"><tspan dy="1em" x="0">2026</tspan></text></g></g></g><g transform="translate(900, 167.8)" class="taskWrapper"><g class="timeline-node section-1"><g><path d="M0 77.99999694824218 v-72.99999694824218 q0,-5 5,-5 h180 q5,0 5,5 v77.99999694824218 H0 Z" class="node-bkg node-undefined" id="node-undefined"/><line y2="82.99999694824218" x2="190" y1="82.99999694824218" x1="0" class="node-line-1"/></g><g transform="translate(95, 10)"><text text-anchor="middle" dominant-baseline="middle" alignment-baseline="middle" dy="1em"><tspan dy="1em" x="0">PIs   29   -   33</tspan><tspan dy="1.1em" x="0">(05-01-2026   -</tspan><tspan dy="1.1em" x="0">31-12-2026)</tspan></text></g></g></g><g class="lineWrapper"><line stroke-dasharray="5,5" marker-end="url(#arrowhead)" stroke="black" stroke-width="2" y2="1029.5999664306642" x2="995" y1="250.7999969482422" x1="995"/></g><g transform="translate(900, 367.8)" class="eventWrapper"><g class="timeline-node section-1"><g><path d="M0 60.39999847412109 v-55.39999847412109 q0,-5 5,-5 h180 q5,0 5,5 v60.39999847412109 H0 Z" class="node-bkg node-undefined" id="node-undefined"/><line y2="65.39999847412109" x2="190" y1="65.39999847412109" x1="0" class="node-line-1"/></g><g transform="translate(95, 10)"><text text-anchor="middle" dominant-baseline="middle" alignment-baseline="middle" dy="1em"><tspan dy="1em" x="0">Preview   of   the</tspan><tspan dy="1.1em" x="0">data   is   integrated.</tspan></text></g></g></g><g transform="translate(900, 443.1999984741211)" class="eventWrapper"><g class="timeline-node section-1"><g><path d="M0 113.19999389648437 v-108.19999389648437 q0,-5 5,-5 h180 q5,0 5,5 v113.19999389648437 H0 Z" class="node-bkg node-undefined" id="node-undefined"/><line y2="118.19999389648437" x2="190" y1="118.19999389648437" x1="0" class="node-line-1"/></g><g transform="translate(95, 10)"><text text-anchor="middle" dominant-baseline="middle" alignment-baseline="middle" dy="1em"><tspan dy="1em" x="0">Possibility   to</tspan><tspan dy="1.1em" x="0">document   data</tspan><tspan dy="1.1em" x="0">flows   (Data</tspan><tspan dy="1.1em" x="0">Lineage)   is</tspan><tspan dy="1.1em" x="0">created.</tspan></text></g></g></g><g transform="translate(900, 571.3999923706054)" class="eventWrapper"><g class="timeline-node section-1"><g><path d="M0 60.39999847412109 v-55.39999847412109 q0,-5 5,-5 h180 q5,0 5,5 v60.39999847412109 H0 Z" class="node-bkg node-undefined" id="node-undefined"/><line y2="65.39999847412109" x2="190" y1="65.39999847412109" x1="0" class="node-line-1"/></g><g transform="translate(95, 10)"><text text-anchor="middle" dominant-baseline="middle" alignment-baseline="middle" dy="1em"><tspan dy="1em" x="0">Connections   to</tspan><tspan dy="1.1em" x="0">external   tools.</tspan></text></g></g></g><g transform="translate(900, 646.7999908447265)" class="eventWrapper"><g class="timeline-node section-1"><g><path d="M0 77.99999694824218 v-72.99999694824218 q0,-5 5,-5 h180 q5,0 5,5 v77.99999694824218 H0 Z" class="node-bkg node-undefined" id="node-undefined"/><line y2="82.99999694824218" x2="190" y1="82.99999694824218" x1="0" class="node-line-1"/></g><g transform="translate(95, 10)"><text text-anchor="middle" dominant-baseline="middle" alignment-baseline="middle" dy="1em"><tspan dy="1em" x="0">Release   of   the</tspan><tspan dy="1.1em" x="0">source   code</tspan><tspan dy="1.1em" x="0">(Open   Source).</tspan></text></g></g></g><g transform="translate(900, 739.7999877929686)" class="eventWrapper"><g class="timeline-node section-1"><g><path d="M0 60.39999847412109 v-55.39999847412109 q0,-5 5,-5 h180 q5,0 5,5 v60.39999847412109 H0 Z" class="node-bkg node-undefined" id="node-undefined"/><line y2="65.39999847412109" x2="190" y1="65.39999847412109" x1="0" class="node-line-1"/></g><g transform="translate(95, 10)"><text text-anchor="middle" dominant-baseline="middle" alignment-baseline="middle" dy="1em"><tspan dy="1em" x="0">End   of   the   project</tspan><tspan dy="1.1em" x="0">phase.</tspan></text></g></g></g><text y="20" font-weight="bold" font-size="4ex" x="445"> </text><g class="lineWrapper"><line marker-end="url(#arrowhead)" stroke="black" stroke-width="4" y2="285.6" x2="1140" y1="285.6" x1="50"/></g></svg>