<?xml version="1.0" encoding="utf-8"?>
<!-- Generator: Adobe Illustrator 23.0.1, SVG Export Plug-In . SVG Version: 6.00 Build 0)  -->
<svg version="1.1" id="Ebene_1" xmlns="http://www.w3.org/2000/svg" xmlns:xlink="http://www.w3.org/1999/xlink" x="0px" y="0px"
	 viewBox="0 0 400 178" style="enable-background:new 0 0 400 178;" xml:space="preserve" width="300px" height="134px">
<style type="text/css">
	.st0{fill:#EA161F;}
</style>
<g>
	<path d="M154.2379303,34.3442535v8.9688721l8.4520416-8.9688721h5.9374847l-8.4520416,8.5442696l9.269928,13.086132h-5.9670715
		l-6.5134735-9.7241096l-2.7268677,2.7564392v6.9676704h-4.7559052V34.3442535H154.2379303z"/>
	<path d="M171.5057068,45.1298714c0.0591736-1.009304,0.3114929-1.8480682,0.7569885-2.5128174
		c0.4437408-0.6682281,1.0092926-1.2042007,1.6966705-1.6079216c0.6856232-0.4037209,1.4582672-0.6891098,2.3161774-0.8631287
		c0.8578949-0.170536,1.7227631-0.2575455,2.5911102-0.2575455c0.7865601,0,1.5853119,0.055687,2.392746,0.167057
		c0.8074493,0.1113701,1.5452881,0.3271523,2.2117615,0.6508255c0.6664886,0.3236732,1.2111664,0.7726402,1.6357727,1.3503761
		c0.4228668,0.5742607,0.6351624,1.3364563,0.6351624,2.2865944v8.1475105c0,0.7065086,0.0400238,1.3851776,0.1218109,2.0290451
		c0.0800476,0.6473465,0.2227478,1.131115,0.4246063,1.4547882h-4.3626251
		c-0.0817871-0.2436256-0.1461792-0.4907303-0.19664-0.7413177c-0.0504608-0.2540627-0.0870056-0.5116119-0.1061401-0.7726364
		c-0.6873779,0.7065125-1.494812,1.2007217-2.4240723,1.4826317c-0.9292603,0.2819061-1.877655,0.4246025-2.8469238,0.4246025
		c-0.748291,0-1.4443512-0.0904884-2.0899658-0.2714691c-0.6473389-0.1809769-1.2128906-0.4663658-1.6966705-0.849205
		c-0.4855042-0.3828392-0.8631287-0.8666077-1.1363373-1.4547882c-0.2732086-0.5847015-0.4089355-1.2807693-0.4089355-2.0882111
		c0-0.8909721,0.1566162-1.6218452,0.4698486-2.196106c0.3132324-0.5777397,0.7169495-1.0371437,1.2111664-1.3782196
		c0.4942017-0.3445549,1.0597687-0.6021004,1.6966705-0.7726402c0.6369019-0.174015,1.2772827-0.3097496,1.9228973-0.4106789
		c0.6473389-0.1009331,1.2825012-0.1809807,1.9089661-0.2401466c0.6264648-0.062645,1.1815796-0.1531334,1.667099-0.2749481
		c0.4837646-0.1218109,0.8666077-0.2958298,1.1502533-0.5290108c0.2819061-0.2331848,0.4141541-0.5707817,0.39328-1.0162659
		c0-0.4628868-0.0748291-0.8318024-0.2262268-1.1032715c-0.1513977-0.2749481-0.3532562-0.4872513-0.6055756-0.6369057
		c-0.2540741-0.1531334-0.5464172-0.2540665-0.8787994-0.3027916c-0.3341064-0.0522041-0.6925812-0.0765648-1.0754242-0.0765648
		c-0.8492126,0-1.515686,0.1809769-1.9994659,0.5464134c-0.4855042,0.3619576-0.7674103,0.9675407-0.8474579,1.8167458H171.5057068z
		 M181.4403839,48.3109131c-0.1809845,0.160099-0.4089508,0.2888718-0.6804047,0.3793602
		c-0.2732086,0.0904884-0.565567,0.167057-0.8787994,0.226223s-0.6421204,0.1113701-0.9849396,0.1496544
		c-0.3428192,0.0417633-0.6873627,0.0939713-1.0301819,0.1531372c-0.3236694,0.059166-0.6403809,0.1426926-0.9536133,0.2436256
		c-0.3132324,0.1009293-0.586441,0.2366638-0.8178864,0.4071999c-0.2331848,0.1740189-0.4193878,0.389801-0.5603333,0.6508255
		c-0.1409607,0.2645073-0.2123108,0.5986214-0.2123108,1.0023422c0,0.3828392,0.0713501,0.7065125,0.2123108,0.9675407
		c0.1409454,0.2645035,0.3323669,0.4698448,0.5759888,0.619503c0.2418976,0.1531334,0.5238037,0.2575455,0.8474731,0.3201904
		c0.3236694,0.059166,0.6560516,0.0904884,0.9988556,0.0904884c0.8492126,0,1.5052643-0.1426926,1.9698792-0.4246025
		c0.4646301-0.2819099,0.8074493-0.619503,1.0301971-1.0127831c0.220993-0.396759,0.3584747-0.7935219,0.4089355-1.1972427
		s0.0748291-0.7273941,0.0748291-0.9710159V48.3109131z"/>
	<path d="M194.1332397,40.3130608v2.1821823h0.0904846c0.5464172-0.908371,1.2529297-1.5696411,2.1212769-1.9838028
		s1.7575684-0.622982,2.6659546-0.622982c1.1502533,0,2.0951691,0.1566162,2.8312683,0.4698486
		c0.7378235,0.3132324,1.319046,0.7482758,1.7419128,1.301651c0.4246063,0.5568581,0.722168,1.2320442,0.894455,2.0325279
		c0.1705322,0.7970009,0.2575378,1.6810112,0.2575378,2.6485481v9.6336212h-4.301712V47.127594
		c0-1.2912102-0.2018585-2.2552681-0.6055908-2.8921738c-0.403717-0.6369057-1.1206665-0.9536171-2.1508484-0.9536171
		c-1.1711426,0-2.0203552,0.3480339-2.5441437,1.0441055c-0.525528,0.6995506-0.7882996,1.8445892-0.7882996,3.438591v8.2101555
		h-4.301712V40.3130608H194.1332397z"/>
	<path d="M217.4585724,40.3130608v2.8782539h-3.151474v7.7542267c0,0.7273941,0.1218262,1.2111664,0.3637085,1.4547882
		c0.2436218,0.2436256,0.7273865,0.3619576,1.4547882,0.3619576c0.2418823,0,0.4733276-0.0069618,0.6960602-0.0278435
		c0.2227478-0.0208817,0.4350433-0.0522041,0.6369171-0.0904884v3.3306999
		c-0.3637085,0.059166-0.7674255,0.1009293-1.2111664,0.1218109c-0.4454956,0.0208817-0.8787994,0.0313225-1.3033905,0.0313225
		c-0.6664886,0-1.298172-0.0487251-1.8933105-0.1392136c-0.5951538-0.0904884-1.1206818-0.2645073-1.5748749-0.5290146
		c-0.4541779-0.2610245-0.8126526-0.6369019-1.0754242-1.1206741c-0.2627716-0.4837685-0.39328-1.1206741-0.39328-1.9072304
		v-9.2403412h-2.606781v-2.8782539h2.606781v-4.6949959h4.2999725v4.6949959H217.4585724z"/>
	<path d="M220.2759094,44.7505112c0.3845825-1.0197411,0.9292603-1.8863487,1.6357727-2.603302
		s1.5557098-1.2738113,2.5458832-1.6670914c0.9884186-0.39328,2.0986481-0.5916595,3.3306885-0.5916595
		c1.2320557,0,2.3492432,0.1983795,3.3480988,0.5916595c0.9988708,0.39328,1.8532867,0.9501381,2.5597992,1.6670914
		s1.2511902,1.5835609,1.6357727,2.603302c0.382843,1.0197449,0.576004,2.1578217,0.576004,3.4072685
		c0,1.2529259-0.193161,2.3840408-0.576004,3.3933449c-0.3845825,1.009304-0.9292603,1.8759117-1.6357727,2.5893822
		c-0.7065125,0.7169533-1.5609283,1.2703285-2.5597992,1.6531677c-0.9988556,0.3828392-2.1160431,0.5742607-3.3480988,0.5742607
		c-1.2320404,0-2.3422699-0.1914215-3.3306885-0.5742607c-0.9901733-0.3828392-1.8393707-0.9362144-2.5458832-1.6531677
		c-0.7065125-0.7134705-1.2511902-1.5800781-1.6357727-2.5893822c-0.382843-1.009304-0.5742493-2.140419-0.5742493-3.3933449
		C219.7016602,46.9083328,219.8930664,45.770256,220.2759094,44.7505112z M224.1843567,49.9919243
		c0.1218109,0.5951424,0.3271484,1.131115,0.6212311,1.6044464c0.2923584,0.4768066,0.6804199,0.852684,1.1659241,1.138073
		c0.4837646,0.2819099,1.091095,0.4246025,1.8167419,0.4246025c0.7274017,0,1.3381958-0.1426926,1.8341522-0.4246025
		c0.4942017-0.2853889,0.8874817-0.6612663,1.1815796-1.138073c0.2923431-0.4733315,0.4994354-1.009304,0.6195068-1.6044464
		c0.1218109-0.5951385,0.1827087-1.2076797,0.1827087-1.8341446c0-0.622982-0.0608978-1.239006-0.1827087-1.8480682
		c-0.1200714-0.6055832-0.3271637-1.1380768-0.6195068-1.6044426c-0.2940979-0.4628868-0.6873779-0.842247-1.1815796-1.1345978
		c-0.4959564-0.292347-1.1067505-0.4385223-1.8341522-0.4385223c-0.725647,0-1.3329773,0.1461754-1.8167419,0.4385223
		c-0.4855042,0.2923508-0.8735657,0.671711-1.1659241,1.1345978c-0.2940826,0.4663658-0.4994202,0.9988594-0.6212311,1.6044426
		c-0.1218262,0.6090622-0.182724,1.2250862-0.182724,1.8480682
		C224.0016327,48.7842445,224.0625305,49.3967857,224.1843567,49.9919243z"/>
	<path d="M243.6308289,40.3130608v2.1821823h0.0904846c0.5464172-0.908371,1.2529297-1.5696411,2.1212769-1.9838028
		s1.7575836-0.622982,2.6659546-0.622982c1.1502533,0,2.0951691,0.1566162,2.8312683,0.4698486
		c0.7378387,0.3132324,1.3190613,0.7482758,1.7419128,1.301651c0.4246063,0.5568581,0.7221832,1.2320442,0.894455,2.0325279
		c0.1705322,0.7970009,0.2575531,1.6810112,0.2575531,2.6485481v9.6336212h-4.3017273V47.127594
		c0-1.2912102-0.2018585-2.2552681-0.6055756-2.8921738s-1.1206818-0.9536171-2.1508636-0.9536171
		c-1.1711426,0-2.02034,0.3480339-2.5441437,1.0441055c-0.525528,0.6995506-0.7882996,1.8445892-0.7882996,3.438591v8.2101555
		h-4.301712V40.3130608H243.6308289z"/>
	<path d="M277.1344604,34.3442535c1.0301819,0,1.9698792,0.0904884,2.8173523,0.2749481
		c0.8492126,0.1809769,1.5748596,0.4802895,2.1821594,0.8909721c0.6055908,0.4141617,1.0754395,0.9675369,1.4078064,1.6531677
		c0.334137,0.685627,0.4994507,1.5348358,0.4994507,2.5441399c0,1.0893478-0.2471008,1.9977226-0.741333,2.7251167
		c-0.4959412,0.7273941-1.2268066,1.3225327-2.196106,1.7889023c1.3329773,0.3828354,2.3266296,1.0545464,2.982666,2.0151215
		c0.6560669,0.9570999,0.9849548,2.1160583,0.9849548,3.4664345c0,1.0928307-0.2123108,2.0360069-0.6351624,2.8330078
		c-0.4246216,0.7970009-0.9953918,1.4513092-1.7123413,1.9559593s-1.5348511,0.8770485-2.4536438,1.1206741
		c-0.9188232,0.2401428-1.863739,0.3619576-2.8330078,0.3619576h-10.4810791V34.3442535H277.1344604z M276.5288696,43.1008263
		c0.8492126,0,1.5452881-0.2018623,2.0899658-0.6055832c0.5464172-0.4037209,0.8178711-1.0615082,0.8178711-1.9698792
		c0-0.5046539-0.0904846-0.9188156-0.2714539-1.2424889c-0.1827393-0.3236732-0.4246216-0.5742569-0.727417-0.7587166
		c-0.3027649-0.1809769-0.6508179-0.3062706-1.0458374-0.3758774c-0.39328-0.0730858-0.8022156-0.1078911-1.2268066-0.1078911
		h-4.453125v5.0604362H276.5288696z M276.8020935,52.2785187c0.4646301,0,0.9083557-0.0452461,1.3329773-0.1357346
		c0.4228516-0.0904884,0.7969971-0.2436256,1.1206665-0.455925c0.3219299-0.2123032,0.5794678-0.4976921,0.772644-0.8631287
		c0.1914062-0.3619576,0.2871094-0.8283234,0.2871094-1.3921432c0-1.1102295-0.3132324-1.9037514-0.9396973-2.377079
		c-0.6247253-0.4768105-1.4530334-0.7134743-2.4832153-0.7134743h-5.1805115v5.9374847H276.8020935z"/>
	<path d="M293.3407288,52.2193527c0.6455994,0.6264648,1.5748596,0.9396935,2.7877502,0.9396935
		c0.8666077,0,1.6148987-0.2192612,2.2413635-0.6543045c0.6247253-0.4315643,1.0093079-0.8909721,1.150238-1.3782196h3.7866516
		c-0.6055908,1.8793907-1.5348511,3.2228088-2.7860413,4.0302505c-1.2529297,0.8074417-2.7668762,1.2111626-4.5436096,1.2111626
		c-1.2320251,0-2.3439941-0.1949005-3.332428-0.5916595c-0.9901733-0.39328-1.8289185-0.9536171-2.5145569-1.6810112
		c-0.6873779-0.7273941-1.2181091-1.5940018-1.5905151-2.6033058c-0.3741455-1.009304-0.5603333-2.1195374-0.5603333-3.3341789
		c0-1.1693993,0.1914062-2.2587509,0.5759888-3.271534c0.382843-1.0093002,0.9275208-1.8828697,1.6357727-2.6207047
		c0.7065125-0.7343559,1.5487671-1.3155746,2.5284729-1.7401772c0.9797058-0.4246063,2.0655823-0.6369057,3.2575989-0.6369057
		c1.3312378,0,2.4936829,0.2575455,3.4821167,0.7726364c0.9901428,0.5150948,1.8028259,1.2076836,2.4397278,2.0742912
		c0.6351624,0.8700905,1.094574,1.8585091,1.3782043,2.9687424c0.2819214,1.1137161,0.382843,2.2726707,0.3027954,3.4838371
		h-11.2989807C292.3418579,50.5835876,292.6933899,51.5928879,293.3407288,52.2193527z M298.2027893,43.9778748
		c-0.5151062-0.5638199-1.2981873-0.845726-2.3475037-0.845726c-0.6873779,0-1.2581482,0.1148491-1.7123413,0.3480339
		c-0.4541931,0.2297058-0.8178711,0.5185738-1.0893555,0.8631287c-0.2731934,0.3410759-0.4646301,0.7065125-0.5759888,1.0893517
		s-0.1774902,0.7273941-0.1966553,1.0301857h6.9972534C299.076355,45.373497,298.717865,44.5451698,298.2027893,43.9778748z"/>
	<path d="M311.1531677,40.3130608v2.9095764h0.0609131c0.2018738-0.4872513,0.4733276-0.9362144,0.8179016-1.3503761
		c0.342804-0.4141617,0.736084-0.7656784,1.1815796-1.0580292c0.4437256-0.2923508,0.9187927-0.5220528,1.4234619-0.682148
		c0.5046387-0.163578,1.0301819-0.2436256,1.5748596-0.2436256c0.2836304,0,0.5951233,0.0522041,0.9396973,0.1531334v3.9989281
		c-0.2018738-0.0417633-0.4454956-0.0765686-0.727417-0.1078911c-0.2836304-0.0313225-0.5551147-0.0452423-0.8178711-0.0452423
		c-0.7882996,0-1.453064,0.1322517-1.9994507,0.39328c-0.5446777,0.2645035-0.9849548,0.622982-1.3173218,1.075428
		c-0.3341064,0.455925-0.5707703,0.9849396-0.711731,1.5905228c-0.1427002,0.6055794-0.2123108,1.2633667-0.2123108,1.9698792
		v7.0581589h-4.3017273V40.3130608H311.1531677z"/>
	<path d="M323.966095,40.3130608v2.1821823h0.0904846c0.5464172-0.908371,1.2529297-1.5696411,2.1212769-1.9838028
		s1.7575989-0.622982,2.6659546-0.622982c1.1502686,0,2.0951843,0.1566162,2.8312683,0.4698486
		c0.737854,0.3132324,1.3190613,0.7482758,1.7419128,1.301651c0.4246216,0.5568581,0.7221985,1.2320442,0.8944702,2.0325279
		c0.1705322,0.7970009,0.2575378,1.6810112,0.2575378,2.6485481v9.6336212h-4.3017273V47.127594
		c0-1.2912102-0.2018433-2.2552681-0.6055603-2.8921738s-1.120697-0.9536171-2.1508789-0.9536171
		c-1.1711426,0-2.0203247,0.3480339-2.5441284,1.0441055c-0.5255432,0.6995506-0.7882996,1.8445892-0.7882996,3.438591v8.2101555
		h-4.3017273V40.3130608H323.966095z"/>
	<path d="M163.3564606,78.4925461c-0.2836456-0.452446-0.6369019-0.852684-1.0597687-1.1937637
		c-0.4246063-0.3445511-0.904892-0.6125412-1.4391174-0.8039627c-0.5359802-0.1914139-1.0963135-0.2888641-1.681015-0.2888641
		c-1.0719452,0-1.9803314,0.2088165-2.7268524,0.6229782c-0.7465363,0.4141617-1.3538666,0.9675446-1.8167572,1.6636124
		c-0.4663696,0.6995468-0.8039551,1.4895935-1.0162659,2.3805618c-0.2122955,0.8874893-0.3167114,1.8063049-0.3167114,2.7564392
		c0,0.908371,0.1044159,1.7923813,0.3167114,2.6485519c0.2123108,0.859642,0.5498962,1.6322861,1.0162659,2.3179169
		c0.4628906,0.6891098,1.0702209,1.239006,1.8167572,1.6531677c0.746521,0.4141617,1.6549072,0.6194992,2.7268524,0.6194992
		c1.4530487,0,2.589386-0.4454803,3.4072571-1.3329773c0.8178864-0.8874893,1.3173218-2.0603638,1.5000458-3.515152h4.6045074
		c-0.1218109,1.3538589-0.4350433,2.5754623-0.9396973,3.6682892c-0.5046539,1.0893555-1.1711426,2.0186081-1.9994659,2.7842865
		c-0.8283234,0.7691574-1.7976074,1.3538589-2.9078369,1.757576c-1.1102295,0.4037247-2.3318329,0.6055832-3.6648102,0.6055832
		c-1.6566467,0-3.1462402-0.2853928-4.4687805-0.8631287c-1.322525-0.5742569-2.4379883-1.367775-3.3480988-2.3770828
		c-0.908371-1.0093002-1.6044464-2.1960983-2.0899506-3.5604019c-0.4837646-1.360817-0.725647-2.8330078-0.725647-4.4061279
		c0-1.6148834,0.2418823-3.1149139,0.725647-4.5000992c0.4855042-1.3816986,1.1815796-2.5893784,2.0899506-3.6195679
		c0.9101105-1.0301819,2.0255737-1.8376236,3.3480988-2.4223251c1.3225403-0.5847015,2.8121338-0.8805313,4.4687805-0.8805313
		c1.1902771,0,2.3161774,0.1740189,3.3776855,0.5150909c1.0597687,0.3445587,2.0081635,0.845726,2.8469238,1.5000381
		c0.8370209,0.6577835,1.5296173,1.4687042,2.0760345,2.4397278c0.5446777,0.9675369,0.8874817,2.0812531,1.0284424,3.3306961
		h-4.6045074C163.8210907,79.449646,163.6383667,78.9484711,163.3564606,78.4925461z"/>
	<path d="M171.9598999,83.5077362c0.0591583-1.0093002,0.3114929-1.8480682,0.7569733-2.5128174
		c0.4437408-0.6682281,1.0093079-1.2042007,1.6966705-1.6079254c0.6856384-0.403717,1.4582672-0.6891098,2.3161774-0.8631287
		c0.8579102-0.1705322,1.7227783-0.2575455,2.5911255-0.2575455c0.7865601,0,1.5852966,0.055687,2.392746,0.1670609
		c0.8074341,0.1113739,1.5452728,0.3271561,2.2117615,0.6508255s1.2111664,0.7726364,1.6357727,1.3503799
		c0.4228516,0.5742569,0.6351624,1.3364563,0.6351624,2.2865906v8.1475067c0,0.7065125,0.0400238,1.3851852,0.1218109,2.0290451
		c0.0800476,0.6473465,0.2227478,1.1311188,0.4246063,1.4547882h-4.3626251
		c-0.0817871-0.2436218-0.1461792-0.4907303-0.19664-0.7413101c-0.0504761-0.2540665-0.0870056-0.5116119-0.1061554-0.772644
		c-0.6873627,0.7065125-1.494812,1.2007217-2.4240723,1.4826355c-0.929245,0.2819061-1.8776398,0.4245987-2.8469238,0.4245987
		c-0.7482758,0-1.4443512-0.0904846-2.0899506-0.2714615c-0.6473541-0.1809845-1.2129059-0.4663696-1.6966705-0.8492126
		c-0.4855194-0.3828354-0.8631287-0.8666077-1.1363373-1.4547882c-0.2732086-0.5846939-0.4089508-1.2807693-0.4089508-2.0882111
		c0-0.8909683,0.1566162-1.6218414,0.4698486-2.1960983c0.3132324-0.5777435,0.7169647-1.0371475,1.2111664-1.3782272
		c0.4942169-0.3445511,1.0597687-0.6020966,1.6966705-0.7726364c0.6369171-0.1740189,1.277298-0.3097534,1.9228973-0.4106827
		c0.6473541-0.1009293,1.2825165-0.1809769,1.9089813-0.2401428c0.6264648-0.062645,1.1815796-0.1531372,1.6670837-0.2749481
		c0.4837646-0.1218109,0.8666077-0.2958298,1.1502533-0.5290146c0.2819214-0.2331848,0.4141693-0.5707779,0.39328-1.0162582
		c0-0.4628906-0.0748138-0.83181-0.2262115-1.1032791c-0.1513977-0.2749481-0.3532562-0.4872437-0.6055908-0.6369019
		c-0.2540588-0.1531372-0.5464172-0.2540665-0.8787842-0.3027878c-0.3341217-0.0522079-0.6925964-0.0765686-1.0754242-0.0765686
		c-0.8492126,0-1.5157013,0.1809769-1.9994659,0.5464172c-0.4855194,0.3619537-0.7674255,0.9675369-0.8474731,1.8167419H171.9598999
		z M181.8945618,86.6887817c-0.1809692,0.1600952-0.4089355,0.2888641-0.6804047,0.3793564
		c-0.2732086,0.0904922-0.5655518,0.1670532-0.8787842,0.2262192s-0.6421356,0.1113739-0.9849396,0.1496582
		c-0.3428192,0.0417633-0.6873779,0.0939713-1.0301819,0.1531372c-0.3236847,0.059166-0.6403961,0.1426926-0.9536285,0.2436218
		s-0.586441,0.2366638-0.8178711,0.4072037c-0.2331848,0.1740189-0.4193878,0.389801-0.5603485,0.6508255
		c-0.1409454,0.2645035-0.2122955,0.5986176-0.2122955,1.0023422c0,0.3828354,0.0713501,0.7065125,0.2122955,0.9675369
		c0.1409607,0.2645111,0.3323822,0.4698486,0.576004,0.6195068c0.2418823,0.1531296,0.5237885,0.2575455,0.8474579,0.3201904
		c0.3236847,0.059166,0.6560516,0.0904922,0.9988708,0.0904922c0.8491974,0,1.505249-0.1427002,1.9698792-0.4246063
		s0.8074341-0.6194992,1.0301819-1.0127792c0.2210083-0.3967667,0.3584747-0.7935257,0.4089508-1.1972427
		c0.0504608-0.4037247,0.0748138-0.7273941,0.0748138-0.9710236V86.6887817z"/>
	<path d="M194.5874176,78.6909256v2.1821823h0.0904846c0.5464172-0.908371,1.2529297-1.5696411,2.1212769-1.9838028
		s1.7575836-0.6229858,2.6659546-0.6229858c1.1502533,0,2.0951691,0.1566162,2.8312683,0.4698486
		c0.7378387,0.3132324,1.3190613,0.7482758,1.7419128,1.301651c0.4246063,0.5568619,0.7221832,1.232048,0.894455,2.0325317
		c0.1705322,0.7969971,0.2575531,1.6810074,0.2575531,2.6485519v9.6336136h-4.3017273V85.505455
		c0-1.2912064-0.2018585-2.2552643-0.6055756-2.8921738c-0.403717-0.6369019-1.1206818-0.9536133-2.1508636-0.9536133
		c-1.1711426,0-2.02034,0.3480377-2.5441284,1.0441055c-0.5255432,0.6995544-0.7882996,1.8445892-0.7882996,3.438591v8.2101517
		h-4.3017273V78.6909256H194.5874176z"/>
	<path d="M217.9127502,78.6909256v2.8782501h-3.1514587V89.32341c0,0.7273941,0.1218109,1.2111588,0.3636932,1.4547882
		c0.2436218,0.2436218,0.7274017,0.3619537,1.4547882,0.3619537c0.2418823,0,0.4733276-0.006958,0.6960754-0.0278397
		s0.4350433-0.0522079,0.6369019-0.0904922v3.3306961c-0.3636932,0.059166-0.7674103,0.1009293-1.2111664,0.1218185
		c-0.4454803,0.0208817-0.8787842,0.0313187-1.3033905,0.0313187c-0.6664886,0-1.298172-0.0487213-1.8933105-0.1392136
		s-1.1206665-0.2645035-1.5748596-0.5290146c-0.4541931-0.2610245-0.8126678-0.6369019-1.0754242-1.1206741
		c-0.2627716-0.4837646-0.39328-1.1206741-0.39328-1.9072342v-9.2403412h-2.6067963v-2.8782501h2.6067963v-4.6949997h4.2999725
		v4.6949997H217.9127502z"/>
	<path d="M220.7301025,83.1283798c0.3845825-1.0197449,0.929245-1.8863525,1.6357574-2.6033096
		c0.7065125-0.7169495,1.5557251-1.2738113,2.5458832-1.6670914c0.9884186-0.39328,2.0986481-0.5916595,3.3307037-0.5916595
		c1.2320404,0,2.3492279,0.1983795,3.3480988,0.5916595c0.9988556,0.39328,1.8532867,0.9501419,2.5597992,1.6670914
		c0.7065125,0.7169571,1.2511902,1.5835648,1.6357727,2.6033096c0.3828278,1.0197372,0.5759888,2.157814,0.5759888,3.4072647
		c0,1.2529297-0.193161,2.3840408-0.5759888,3.3933411c-0.3845825,1.0093079-0.9292603,1.8759155-1.6357727,2.589386
		c-0.7065125,0.7169571-1.5609436,1.2703323-2.5597992,1.6531677c-0.9988708,0.382843-2.1160583,0.5742569-3.3480988,0.5742569
		c-1.2320557,0-2.3422852-0.1914139-3.3307037-0.5742569c-0.9901581-0.3828354-1.8393707-0.9362106-2.5458832-1.6531677
		c-0.7065125-0.7134705-1.2511749-1.5800781-1.6357574-2.589386c-0.382843-1.0093002-0.5742645-2.1404114-0.5742645-3.3933411
		C220.155838,85.2861938,220.3472595,84.1481171,220.7301025,83.1283798z M224.6385345,88.3697891
		c0.1218109,0.5951385,0.3271484,1.1311188,0.6212463,1.6044464c0.2923431,0.4768066,0.6804047,0.852684,1.1659241,1.1380768
		c0.4837646,0.2819061,1.0910797,0.4245987,1.8167419,0.4245987c0.7273865,0,1.3381958-0.1426926,1.834137-0.4245987
		c0.4942169-0.2853928,0.8874969-0.6612701,1.1815796-1.1380768c0.2923584-0.4733276,0.4994354-1.0093079,0.6195068-1.6044464
		c0.1218109-0.5951385,0.182724-1.2076797,0.182724-1.8341446c0-0.6229858-0.0609131-1.239006-0.182724-1.8480682
		c-0.1200714-0.6055832-0.3271484-1.1380768-0.6195068-1.6044464c-0.2940826-0.462883-0.6873627-0.8422394-1.1815796-1.1345901
		c-0.4959412-0.2923508-1.1067505-0.43853-1.834137-0.43853c-0.7256622,0-1.3329773,0.1461792-1.8167419,0.43853
		c-0.4855194,0.2923508-0.8735809,0.6717072-1.1659241,1.1345901c-0.2940979,0.4663696-0.4994354,0.9988632-0.6212463,1.6044464
		c-0.1218109,0.6090622-0.182724,1.2250824-0.182724,1.8480682
		C224.4558105,87.1621094,224.5167236,87.7746506,224.6385345,88.3697891z"/>
	<path d="M244.0554352,78.6909256v2.1821823h0.0904846c0.5464172-0.908371,1.2529297-1.5696411,2.1212769-1.9838028
		s1.7575836-0.6229858,2.6659546-0.6229858c1.1502533,0,2.0951691,0.1566162,2.8312683,0.4698486
		c0.7378387,0.3132324,1.319046,0.7482758,1.7419128,1.301651c0.4246063,0.5568619,0.722168,1.232048,0.894455,2.0325317
		c0.1705322,0.7969971,0.2575378,1.6810074,0.2575378,2.6485519v9.6336136h-4.301712V85.505455
		c0-1.2912064-0.2018585-2.2552643-0.6055756-2.8921738c-0.4037323-0.6369019-1.1206818-0.9536133-2.1508636-0.9536133
		c-1.1711426,0-2.02034,0.3480377-2.5441437,1.0441055c-0.525528,0.6995544-0.7882996,1.8445892-0.7882996,3.438591v8.2101517
		h-4.301712V78.6909256H244.0554352z"/>
	<path d="M278.0741577,92.3547974c-0.5046692,0.845726-1.1659241,1.4582672-1.9837952,1.8306656
		c-0.8179016,0.3723984-1.7419434,0.5603333-2.7721252,0.5603333c-1.1711121,0-2.2013245-0.2262192-3.0905457-0.6821442
		c-0.8892212-0.452446-1.6200867-1.0684738-2.196106-1.8480682c-0.5759888-0.776123-1.0093079-1.6705704-1.3033752-2.6798782
		c-0.2923584-1.0093002-0.4385376-2.0603638-0.4385376-3.1497192c0-1.0510635,0.1461792-2.0638504,0.4385376-3.045311
		c0.2940674-0.9779739,0.7273865-1.8411026,1.3033752-2.5893784c0.5760193-0.7482758,1.2981873-1.3469009,2.1665344-1.8028259
		s1.877655-0.6821518,3.0278931-0.6821518c0.9292603,0,1.8132629,0.1983795,2.6520386,0.5916595
		c0.8370361,0.39328,1.498291,0.9745026,1.9837952,1.740181h0.0609131v-7.8760452h4.3017273v21.6304016h-4.0894165v-1.9977188
		H278.0741577z M277.891449,84.6144867c-0.1200867-0.5951385-0.327179-1.1206741-0.6212463-1.5765991
		c-0.2923584-0.455925-0.6717224-0.8213654-1.134613-1.1067505c-0.4646301-0.2819138-1.0510559-0.4211273-1.7575684-0.4211273
		s-1.3034058,0.1392136-1.7871704,0.4211273c-0.4855042,0.2853851-0.8735657,0.6577835-1.1659241,1.1206741
		c-0.2940674,0.466362-0.5063782,0.9953766-0.6369019,1.5905228c-0.1304932,0.5986176-0.1966248,1.2181244-0.1966248,1.8654633
		c0,0.6055832,0.0713501,1.2111664,0.2122803,1.8167496c0.1409607,0.6055832,0.3671875,1.1450348,0.6821594,1.6218414
		c0.3114929,0.4733276,0.7065125,0.8561707,1.1798401,1.1485214c0.4750671,0.2958298,1.0458374,0.4420013,1.7123413,0.4420013
		c0.7065125,0,1.2981567-0.1426926,1.7714844-0.4245987c0.4750671-0.2853928,0.8544312-0.6612701,1.1363525-1.1380768
		c0.2836304-0.4733276,0.4855042-1.0127869,0.6055908-1.6183701c0.1217957-0.6055756,0.1827087-1.2320404,0.1827087-1.8793869
		S278.0132446,85.2096252,277.891449,84.6144867z"/>
	<path d="M291.0402222,90.5972137c0.6455994,0.6264648,1.5748596,0.9396973,2.7877502,0.9396973
		c0.8666077,0,1.6148987-0.2192612,2.2413635-0.6543045c0.6247253-0.4315643,1.0092773-0.8909683,1.150238-1.3782196h3.7866211
		c-0.6055603,1.8793869-1.5348206,3.2228088-2.7860107,4.0302505c-1.2529297,0.8074417-2.7668762,1.2111588-4.5436096,1.2111588
		c-1.2320251,0-2.3440247-0.1949005-3.332428-0.5916595c-0.9901733-0.39328-1.8289185-0.9536133-2.5145569-1.6810074
		c-0.6873779-0.7273941-1.2181396-1.5940018-1.5905151-2.6033096c-0.3741455-1.0093002-0.5603333-2.1195297-0.5603333-3.3341751
		c0-1.1694031,0.1914062-2.2587509,0.5759888-3.2715302c0.382843-1.0093079,0.9275208-1.8828735,1.6357727-2.6207123
		c0.7065125-0.7343521,1.5487366-1.3155746,2.5284729-1.7401733c0.9797058-0.4246063,2.0655823-0.6369095,3.2575989-0.6369095
		c1.3312378,0,2.4936829,0.2575455,3.4820862,0.772644c0.9901733,0.5150909,1.8028259,1.2076797,2.4397278,2.0742874
		c0.6351929,0.8700867,1.094574,1.8585129,1.3782349,2.9687424c0.2819214,1.1137161,0.382843,2.2726746,0.3027954,3.4838333
		h-11.2989807C290.0413513,88.9614487,290.3928528,89.9707565,291.0402222,90.5972137z M295.9022522,82.3557358
		c-0.5150757-0.5638123-1.2981567-0.845726-2.3474731-0.845726c-0.6873779,0-1.2581482,0.1148529-1.7123413,0.3480377
		c-0.4541931,0.2297058-0.8179016,0.5185699-1.0893555,0.8631287c-0.2731934,0.3410721-0.4646301,0.7065125-0.5759888,1.0893478
		c-0.1113892,0.382843-0.1775208,0.7273941-0.1966553,1.0301895h6.9972534
		C296.7758484,83.751358,296.4173584,82.9230347,295.9022522,82.3557358z"/>
	<path d="M323.4823303,72.7221146c1.0301819,0,1.9698792,0.0904922,2.8173523,0.2749481
		c0.8492126,0.1809845,1.5748596,0.4802933,2.1821899,0.890976c0.6055603,0.4141617,1.0754089,0.9675369,1.4078064,1.6531677
		c0.3341064,0.6856308,0.4994202,1.5348358,0.4994202,2.544136c0,1.0893555-0.2471008,1.9977264-0.741333,2.7251205
		c-0.4959412,0.7273941-1.2268066,1.3225327-2.1960754,1.7889023c1.3329468,0.3828354,2.3265991,1.0545425,2.9826355,2.0151215
		c0.6560669,0.9570999,0.9849548,2.1160583,0.9849548,3.4664307c0,1.0928345-0.2123108,2.0360107-0.6351624,2.8330154
		c-0.4245911,0.7969971-0.9953918,1.4513016-1.7123413,1.9559555s-1.5348206,0.8770523-2.4536438,1.1206741
		c-0.9188232,0.2401428-1.863739,0.3619537-2.8330078,0.3619537h-10.4810791V72.7221146H323.4823303z M322.8767395,81.4786911
		c0.8492126,0,1.5452881-0.2018661,2.0899658-0.6055832c0.5464172-0.4037247,0.8178711-1.0615082,0.8178711-1.9698792
		c0-0.5046539-0.0904846-0.9188156-0.2714539-1.242485c-0.1827087-0.3236771-0.4246216-0.5742645-0.7273865-0.7587204
		c-0.3027954-0.1809769-0.6508484-0.3062744-1.0458679-0.3758774c-0.39328-0.0730896-0.8022156-0.1078949-1.2268066-0.1078949
		h-4.453125v5.0604401H322.8767395z M323.1499634,90.6563797c0.4646301,0,0.9083557-0.0452423,1.3329773-0.1357269
		c0.4228516-0.0904922,0.7969971-0.2436295,1.1206665-0.4559326c0.3219299-0.2122955,0.5794678-0.4976883,0.772644-0.8631287
		c0.1914062-0.3619537,0.2871399-0.8283234,0.2871399-1.3921356c0-1.1102371-0.3132324-1.9037552-0.9396973-2.3770828
		c-0.6247253-0.4768066-1.453064-0.7134705-2.4832458-0.7134705h-5.1805115v5.9374771H323.1499634z"/>
	<path d="M339.6885986,90.5972137c0.6455994,0.6264648,1.5748596,0.9396973,2.7877808,0.9396973
		c0.8666077,0,1.6148682-0.2192612,2.241333-0.6543045c0.6247253-0.4315643,1.0093079-0.8909683,1.1502686-1.3782196h3.7866211
		c-0.6055908,1.8793869-1.5348511,3.2228088-2.7860413,4.0302505c-1.2529297,0.8074417-2.7668762,1.2111588-4.5435791,1.2111588
		c-1.2320557,0-2.3440247-0.1949005-3.3324585-0.5916595c-0.9901428-0.39328-1.8289185-0.9536133-2.5145569-1.6810074
		c-0.6873474-0.7273941-1.2181091-1.5940018-1.5905151-2.6033096c-0.3741455-1.0093002-0.5603333-2.1195297-0.5603333-3.3341751
		c0-1.1694031,0.1914062-2.2587509,0.5759888-3.2715302c0.382843-1.0093079,0.9275208-1.8828735,1.6357727-2.6207123
		c0.7065125-0.7343521,1.5487671-1.3155746,2.5284729-1.7401733c0.9797363-0.4246063,2.0655823-0.6369095,3.2576294-0.6369095
		c1.3312378,0,2.4936523,0.2575455,3.4820862,0.772644c0.9901428,0.5150909,1.8028259,1.2076797,2.4397278,2.0742874
		c0.6351624,0.8700867,1.094574,1.8585129,1.3782043,2.9687424c0.2819214,1.1137161,0.382843,2.2726746,0.3027954,3.4838333
		h-11.2989502C338.6897278,88.9614487,339.0412598,89.9707565,339.6885986,90.5972137z M344.5506592,82.3557358
		c-0.5151062-0.5638123-1.2981873-0.845726-2.3475037-0.845726c-0.6873779,0-1.2581482,0.1148529-1.7123413,0.3480377
		c-0.4541626,0.2297058-0.8178711,0.5185699-1.0893555,0.8631287c-0.2731934,0.3410721-0.4645996,0.7065125-0.5759888,1.0893478
		c-0.1113586,0.382843-0.1774902,0.7273941-0.1966248,1.0301895h6.9972534
		C345.4242249,83.751358,345.0657349,82.9230347,344.5506592,82.3557358z"/>
	<path d="M357.5010681,78.6909256v2.9095764h0.0608826c0.2018738-0.4872513,0.4733276-0.9362183,0.8179016-1.3503799
		c0.342804-0.4141617,0.736084-0.7656784,1.1815796-1.0580292c0.4437256-0.2923431,0.9187927-0.522049,1.4234619-0.6821442
		c0.5046387-0.1635818,1.0301819-0.2436295,1.5748596-0.2436295c0.2836304,0,0.5951233,0.0522079,0.9396973,0.1531372v3.9989319
		c-0.2018738-0.0417709-0.4454956-0.0765686-0.7273865-0.1078949c-0.2836609-0.0313263-0.5551453-0.0452423-0.8179016-0.0452423
		c-0.7882996,0-1.4530334,0.1322479-1.9994507,0.39328c-0.5446777,0.2645035-0.9849548,0.6229782-1.3173218,1.0754242
		c-0.3341064,0.4559326-0.5707703,0.9849472-0.711731,1.5905228c-0.1427002,0.6055832-0.2123108,1.2633743-0.2123108,1.9698792
		v7.0581589h-4.3016968V78.6909256H357.5010681z"/>
	<path d="M370.3157043,78.6909256v2.1821823h0.0905151c0.5464172-0.908371,1.2529297-1.5696411,2.1212769-1.9838028
		s1.7575684-0.6229858,2.6659241-0.6229858c1.1502686,0,2.0951843,0.1566162,2.8312683,0.4698486
		c0.737854,0.3132324,1.3190613,0.7482758,1.7419434,1.301651c0.4245911,0.5568619,0.722168,1.232048,0.8944397,2.0325317
		c0.1705322,0.7969971,0.2575378,1.6810074,0.2575378,2.6485519v9.6336136h-4.3016968V85.505455
		c0-1.2912064-0.2018738-2.2552643-0.6055908-2.8921738c-0.403717-0.6369019-1.1206665-0.9536133-2.1508789-0.9536133
		c-1.1711121,0-2.0203247,0.3480377-2.5441284,1.0441055c-0.5255432,0.6995544-0.7882996,1.8445892-0.7882996,3.438591v8.2101517
		h-4.3017273V78.6909256H370.3157043z"/>
	<path d="M389.732605,90.5972137c0.6455994,0.6264648,1.5748596,0.9396973,2.7877808,0.9396973
		c0.8666077,0,1.6148682-0.2192612,2.241333-0.6543045c0.6247253-0.4315643,1.0093079-0.8909683,1.1502686-1.3782196h3.7866211
		c-0.6055908,1.8793869-1.5348511,3.2228088-2.7860107,4.0302505c-1.2529297,0.8074417-2.7669067,1.2111588-4.5436096,1.2111588
		c-1.2320557,0-2.3440247-0.1949005-3.3324585-0.5916595c-0.9901428-0.39328-1.8289185-0.9536133-2.5145569-1.6810074
		c-0.6873474-0.7273941-1.2181091-1.5940018-1.5905151-2.6033096c-0.3741455-1.0093002-0.5603333-2.1195297-0.5603333-3.3341751
		c0-1.1694031,0.1914368-2.2587509,0.5759888-3.2715302c0.382843-1.0093079,0.9275208-1.8828735,1.6357727-2.6207123
		c0.7065125-0.7343521,1.5487671-1.3155746,2.5284729-1.7401733c0.9797363-0.4246063,2.0656128-0.6369095,3.2576294-0.6369095
		c1.3312378,0,2.4936523,0.2575455,3.4820862,0.772644c0.9901733,0.5150909,1.8028259,1.2076797,2.4397278,2.0742874
		c0.6351624,0.8700867,1.094574,1.8585129,1.3782349,2.9687424c0.2818909,1.1137161,0.3828125,2.2726746,0.3027649,3.4838333
		h-11.2989502C388.7337646,88.9614487,389.0852661,89.9707565,389.732605,90.5972137z M394.5946655,82.3557358
		c-0.5150757-0.5638123-1.2981567-0.845726-2.3475037-0.845726c-0.6873779,0-1.2581482,0.1148529-1.7123413,0.3480377
		c-0.4541626,0.2297058-0.8178711,0.5185699-1.089325,0.8631287c-0.2732239,0.3410721-0.4646301,0.7065125-0.5760193,1.0893478
		c-0.1113586,0.382843-0.1774902,0.7273941-0.1966248,1.0301895h6.9972534
		C395.4682312,83.751358,395.1097717,82.9230347,394.5946655,82.3557358z"/>
</g>
<g>
	<path d="M22.7395058,18.5443172c0,1.1440163-0.9836311,2.0563583-2.0706177,2.0563583
		c-1.1226215,0-2.0741787-0.8945332-2.0741787-2.0706062c0-1.1297569,0.9337387-2.0741825,2.0813065-2.0741825
		C21.8699169,16.4558868,22.7395058,17.4822788,22.7395058,18.5443172 M41.7100487,12.0045948
		c-0.3742065,1.0656004-0.9943199,2.1133909-1.9316216,2.8618031c0.9373016-0.2067137,2.1739693-0.6735706,3.2787704-0.2459087
		c1.404171,0.3742056,2.8297234,1.7569942,3.1290894,3.1968002c0.2779846,1.8639069-0.2815475,3.6601086-1.856781,4.7791653
		c-1.1582642,0.8018684-2.901001,1.0085831-4.2125092,0.4276619l-1.104805-0.6700096
		c0.3350067,2.1632862,2.3984909,4.1269798,4.3835754,5.2104034c2.4127502,1.1725121,5.859024,1.0834236,8.1826744-0.26017
		c1.5930557-0.8410759,2.9972267-2.5232296,3.7100029-4.1091557c0.8054352,2.2203026,3.3714294,4.5190086,5.9730606,4.87183
		c3.1290894,0.3385715,6.1227493-0.5203266,7.9225159-3.2859039c0.3955917-0.727026,0.9159164-1.4005985,1.1796417-2.1846561
		c-0.8232574,0.3742065-2.0777435,0.727026-3.1077042,0.3350105c-1.3685303-0.3528347-2.5873795-1.8318348-2.7905197-3.1896763
		c-0.3563919-1.9244995,0.4312286-3.738512,2.1133804-4.7827406c0.8054352-0.3385592,1.8959885-0.8018675,2.7762604-0.2637177
		l0.0926666-0.0748415c-1.1226273-0.9515638-1.3863525-2.3521624-1.1083679-3.7919683
		c0.6771393-2.3699846,2.9794083-3.8632607,4.5510788-5.8839736c-1.4219894,3.4569707-1.0834198,7.6409678-1.2509232,11.600441
		V34.289547H4.3819461V15.5542297C4.2714653,11.459322,4.0433764,6.9082417,3.1060736,5.0407739
		C5.1873832,7.4856,8.5017948,9.5241356,7.7533793,13.0167389c-0.3920288,0.5773449-0.5417113,1.2295446-1.179646,1.6785917
		c0.972939-0.3350115,2.3984938-0.1675062,3.2787724,0.5025034c1.5324707,1.1618252,2.0955639,3.0649414,1.6857147,4.875391
		c-0.3777714,1.3649654-1.6857147,2.7833996-3.11127,3.025732c-0.9907589,0.0962276-1.8532171-0.0748405-2.6230145-0.5025024
		c0.1888843,0.9159184,0.8446383,1.849659,1.4433718,2.6907349c1.7035341,2.4270039,4.4405947,2.9687157,7.1562738,2.8546658
		c2.6942978-0.3171883,5.4313583-2.295145,6.3294563-4.9466705c1.3507137,3.2466946,4.8112431,5.3066292,8.3323574,5.285244
		c3.5781364-0.0534573,6.9139328-2.6515274,8.0935783-5.9588146c0.0178185-0.0712795-0.0392036-0.1104755-0.0748405-0.1675072
		c-1.0869865,0.8054447-2.4376984,1.2509308-3.8775063,0.9159184c-1.5182133-0.1888771-2.8653622-1.7177849-3.2965927-3.1005745
		c-0.4098454-1.8318348,0.1318665-3.7563343,1.7783794-4.875391c1.2580509-0.8410759,3.2039318-0.9551258,4.5510769-0.4276619
		c-1.8175774-1.439806-2.4163132-3.58883-1.8567848-5.7948713c0.4526138-2.0136023,2.6408386-3.3215489,3.6173439-5.1319995
		C39.9281082,6.2738795,42.7186279,8.6046562,41.7100487,12.0045948 M76.0943909-0.0056853
		c-3.5211182,2.2060416-7.3023987,4.8219357-9.7757339,8.4820442c-0.8054352,1.176074-0.9729385,3.025732-0.506073,4.2944708
		c-0.8410721,0.0962267-1.5360336,0.5417118-2.1917839,1.0834236c-1.8710403,1.7213478-2.2452431,4.3693123-1.7569962,6.72505
		c0.3350029,1.8318348,2.0385437,3.9238281,3.9487801,4.2944717c-1.1226273,0.7626724-2.6194534,0.8802853-4.0450058,0.6771336
		c-1.6857147-0.2458954-3.1647301-1.6714554-4.0450096-3.1219597c1.3863525-0.6557484,2.4911613-2.1846561,2.5303612-3.7741451
		c0.0748405-1.5859261-0.8054352-2.8582411-1.9316216-3.8632479c-1.6286964-1.1618261-3.9879875-1.0655994-5.6558838-0.0962257
		c-1.5360298,1.1012325-2.2096062,2.7049818-2.095562,4.5403795c0.1853218,1.2651768,0.9729385,2.5018444,2.1882248,3.1183968
		c-0.4668732,0.9551277-1.4576302,1.9245014-2.3592911,2.6907368c-1.7961998,1.0620365-4.5510788,1.3043842-6.3294563,0.0748405
		c0.7092133-0.1318588,1.3649673-0.413414,2.0207214-0.6735706c2.0813103-1.3257713,2.8653603-3.4747944,2.961586-5.7913094
		c0.0534592-2.4270039-1.4077339-4.7435322-3.6351624-5.7129059c-0.4668655-0.1888914-0.990757-0.2102766-1.4219856-0.4312248
		c0.4668694-0.6557608,0.5595284-1.4754524,0.7484169-2.263073c0.0570221-4.3301177-4.665123-6.7749438-6.7428665-10.1784449
		v0.0962263c-1.7213554,3.1183972-5.4669991,4.9858656-6.4827042,8.4036274
		c-0.3314381,1.3471556-0.1675014,2.8903122,0.5096359,4.0343151c-0.7127781,0.149682-1.3685322,0.4312372-2.0242863,0.673584
		c-2.2452431,1.4398069-3.1825466,3.8097782-2.9615841,6.2938137c0.1888847,2.1454601,1.3899155,4.4085197,3.5424976,5.2103882
		c0.4526119,0.1318722,0.9194832,0.2423477,1.3471489,0.4312382c-0.8410778,0.5060654-1.796196,0.7448502-2.8653622,0.7448502
		c-2.544611,0.3171883-4.6045361-1.5502949-5.7307224-3.6030922c1.4647579-0.6735706,2.0064659-2.1846561,2.1917877-3.6244621
		c0.0178204-1.6073112-0.8232574-2.9330816-2.0955639-3.9380884c-1.5752354-0.9159174-3.916708-1.1974726-5.4919415-0.0962257
		c-1.3257637,1.0834227-2.302268,2.4483881-2.0955639,4.2018194c0.0392017,1.5324707,1.1796455,2.9722767,2.4341335,3.624464
		c-0.5809135,0.876709-1.3471489,1.8496571-2.2666321,2.427002c-1.6678944,0.8446388-4.2303286,1.1582642-5.7307215-0.0748405
		c0.8446379-0.2958031,1.6678982-0.6521854,2.362854-1.3435802c2.0207195-1.9031143,2.1739674-5.3066292,1.1796465-7.7336321
		c-0.6022987-1.436244-2.1205111-2.7406158-3.6315966-3.025733c0.8196917-1.7356091,0.0142546-3.6244621-0.9194832-5.0428967
		C6.5737333,4.5917263,3.0882573,1.8083268-0.001631,0.1653822c1.2723073,4.80055,1.6857183,10.8128214,1.6857183,17.0923729
		v19.7154045h72.8172379V19.5707226C74.447876,12.7922153,74.6367569,5.9709392,76.0943909-0.0056853 M57.5265617,18.5229321
		c0,1.1440163-0.9765053,2.0527954-2.0706177,2.0527954c-1.1226234,0-2.0741768-0.8945312-2.0741768-2.0706062
		c0-1.1226311,0.9337349-2.0670586,2.0848694-2.0670586C56.6605377,16.4380627,57.5265617,17.460907,57.5265617,18.5229321"/>
	<path d="M4.4553618,82.5334778v7.1170731c0.4882522,12.4379501,7.4378228,25.0434036,19.3091145,30.2751846
		c9.6830673,5.0250702,23.6998177,3.8561172,32.4669724-2.1953506L4.4553618,82.5334778z M26.0703087,42.2259636
		l45.6070061,30.7277946V42.2259636H26.0703087z M74.5569305,92.2094193
		c-0.9551239,12.6446533-9.3801422,25.0790405-21.4617004,30.3321991
		c-11.3117638,5.4883804-27.0249214,3.6565475-36.7471924-3.9594727
		C7.3599253,111.5933762,2.3776176,101.995842,1.7396829,91.1081772l0.0213834-51.533741h72.7424088L74.5569305,92.2094193z
		 M21.2020454,42.2259636H4.4411054l0.0213838,36.850544l54.28862,37.0216141
		c8.9916801-7.566124,12.9262047-18.8636246,12.9262047-24.4696121V76.3109436L21.2020454,42.2259636z"/>
	<path d="M24.177887,53.452198c0.0392017-0.3742027,0.3171844-0.7448502,0.6735725-0.9337387l0.7698002,0.0926628
		l3.7100029,2.0135918l0.3350048,0.5096397c0.2067032-0.6913948,0.1675014-1.5716782,1.0121403-1.9423256
		c0.748415-0.2601547,1.8354015-0.2815399,2.4305668,0.3314514c0.5488396,0.5595207,0.866024,1.3328934,0.6022987,2.1169395
		c-0.1675034,0.424099-0.6557541,0.8196907-1.0085793,1.0798607c2.5446129,0.6735725,4.7185783,2.2987061,7.0778694,3.4533958
		c0.6557579,0.3920288,0.7840538,1.126194,0.5809135,1.7569923l-0.3385658,0.4312401
		c0.2815437,0.3171883,0.8268166,0.3706436,1.1796417,0.6735687l19.5514603,13.1792374
		c3.0542488,1.6073151,2.7370605,4.8753891,3.300148,7.6623459c-0.8054352-0.0356369-1.9102364-0.2067032-2.7905159-0.506073
		c0.0641518,0.3100586,0.1104813,0.6201172,0.1675072,0.9194794l1.5182076,14.9576187
		c-0.1710663,1.5502853-1.4825745,2.6123276-2.362854,3.8668137l-3.0328636,3.7919693l-6.4791336-4.2053833
		c1.1404419-1.414856,2.6230202-2.7762604,4.551075-2.6836014c0.9729424-0.0748444,1.9458847,0.1069183,2.7726974,0.1675034
		c-1.0299606-0.3742142-2.195343-0.8232574-2.7726974-1.9458847c-1.94944-3.5638809-4.6080971-6.8533401-5.9944458-10.6667023
		c-0.6343727-2.1846542-0.114048-4.2445755,0.9159164-6.0799789c-0.1674995-0.0498962-0.3064957,0.0213852-0.5809135-0.060585
		c-2.002903-0.2815399-3.9879837-0.8054352-5.9730682-0.8375092l4.4584198,2.6123276
		c-0.9373055,3.2823334,0.3742065,6.4791336,2.1169434,9.0736389l-2.6230164,6.2189713
		c-0.392025,0.8054428-1.4611931,0.5809174-2.1917877,0.506073l-5.9730682-0.8375092
		c-0.1888847-2.5802536,0.2779846-5.0999146,0.2423477-7.7336197c2.1347656,0.5809097,4.1376648,2.1454544,5.3921509,4.1091537
		v-0.3385773l-5.6344986-9.0772018c-0.9943199-1.8104477-0.1817589-3.7634583,0.9408684-5.2424774
		c0,0-1.2616158,0.0570297-1.8959885-0.3670731c-0.6664467,0.7092133-6.9673901,9.2340164-6.9673901,9.2340164
		c-0.5238914,0.4276657-1.4041691,0.2423401-2.0242844,0.1675034l-6.15839-0.9337387l0.3314419-7.7336197
		c2.0813065,0.5595245,4.1804352,2.1311951,5.2282143,4.0378723c-0.6022949-4.2018127,0.0748425-8.8598099-0.242342-13.2790222
		c-0.3742104-1.2152863-0.8624611-2.3913651-1.8567829-3.3643112l-10.3744621-7.3023911v-2.4519501
		c1.49683,0.9551277,2.9402027,2.9936638,4.814806,2.0171661c0.6557541-0.559536,0.7840519-1.4326859,0.5809135-2.2559357
		l-0.3385715-0.598732l-4.9644871-3.435585c-0.3350048-1.4932747,0.3599529-3.396389-0.598732-4.6366196
		C18.9354153,50.3729973,21.5548706,51.9375534,24.177887,53.452198 M12.0393038,50.162735
		c-0.5025072,0.5274506-0.6913929,1.1796494-0.5773487,1.9458847c0.1318636,0.7804832,0.8802786,1.4148598,1.5146503,1.9244881
		l7.7585707,5.2995033v-0.837513c-2.0848713-1.6607704-4.2517109-3.0471191-6.3330183-4.7043266
		c-0.7840538-0.4918175-0.8624592-1.2723122-1.0121422-2.0242882c0.1140442-0.8909683,0.5238905-1.8247108,1.4398079-2.2773209
		C13.8960867,49.4749031,12.7734642,49.4535179,12.0393038,50.162735 M12.7164421,61.0896072
		c0.5025072,0.8196907,0.9765034,1.7213478,1.6857157,2.3557167l0.7662354-0.6735802
		C14.6266832,61.7097206,13.4826765,61.7809868,12.7164421,61.0896072 M11.3692942,62.1908379l1.6073112,2.3557243
		c0.3563871-0.0926666,0.6022959-0.4490433,0.9194813-0.6735764C13.3721962,62.8822327,12.2495728,62.6612701,11.3692942,62.1908379
		 M10.1896496,63.2742538l1.6073103,2.3557281l0.8446398-0.8410797
		C12.0606871,63.894371,11.0307245,63.7090492,10.1896496,63.2742538 M16.00947,63.7838898
		c-1.9993391,1.5075226-3.9487829,3.2110596-5.8982267,4.7969894c1.2580509,1.9957733,2.7014236,3.9238358,4.0485706,5.8804016
		c0.4134092,0.7519836,1.2331028,1.2544861,2.0207205,1.5110855c3.8240471,0.7519836,7.8476696,1.2366714,11.632513,1.8496628
		c-0.2637272-3.3215485,1.0085773-7.3344727-1.9494438-9.5797272l-8.3323574,1.9244995
		c-0.3563881,0.1318665-0.7163391,0.4668732-1.0121422,0.4312363c0.6343708-1.642952,0.9372997-3.7527695,0.2423439-5.4705582
		L16.00947,63.7838898z M8.8389378,64.2863998c0.5987329,0.78405,1.0477819,1.6964035,1.7783775,2.3521652l0.7519789-0.673584
		C10.8418388,64.9956131,9.7192173,64.7497025,8.8389378,64.2863998 M7.7519536,65.3876419l1.5182128,2.259491
		c0.3385696-0.1496811,0.7305975-0.3706436,0.9194832-0.7519684C9.5338955,65.9828033,8.6322317,65.7190781,7.7519536,65.3876419
		 M22.7558975,80.1813126c-1.0869827-0.060585-1.945879,0.3492584-2.8653603,0.6700058
		c0.9194813,0.1888962,1.8888588,0.2993774,2.8653603,0.413414V80.1813126z M19.8905373,82.6083145
		c0.9943218-0.0391998,1.9102402,0.4312286,2.8653603,0.2601624c-0.0356369-0.3706436,0.0534573-0.7804871-0.0962238-1.1012344
		C21.5762539,81.6745834,20.6959743,82.234108,19.8905373,82.6083145 M22.5848312,83.3709869
		c-1.0834198-0.0890961-1.9102421,0.4276733-2.7905197,0.8410797l2.7905197,0.4098434V83.3709869z M22.5848312,85.0567017
		c-1.1404419-0.1924438-1.945879,0.4098511-2.8653603,0.7412872c0.9373016,0.1496887,1.9316235,0.4312363,2.8653603,0.3421402
		V85.0567017z M22.4921703,86.6426315c-1.1261864-0.2245255-1.9102421,0.3563919-2.7726994,0.7626724
		c0.8624573,0.2459106,1.9494438,0.2280884,2.7726994,0.3421326V86.6426315z M35.9779015,91.1081772
		c0.898098,0.2352142,2.0207214,0.2209625,2.8653603,0.3350067c-0.0391998-0.3777695,0.0748444-0.7876205-0.0748405-1.1012421
		C37.7206421,90.3063049,36.6336555,90.8052521,35.9779015,91.1081772 M38.7684212,91.945694
		c-1.1226234-0.0926666-1.9672623,0.4312286-2.8653603,0.8410721c0.9372978,0.153244,1.9280586,0.4098434,2.8653603,0.3350067
		V91.945694z M35.8104019,94.3726959c0.9551163,0.1354294,1.9102402,0.4846878,2.8653603,0.3349991
		c-0.0213852-0.3492584,0.0748405-0.7626724-0.0748405-1.0834198
		C37.4390945,93.3427353,36.7441368,94.1303482,35.8104019,94.3726959 M38.5082588,95.2173309
		c-1.1261864-0.1175995-1.9316216,0.506073-2.8653603,0.8339539l2.9580231,0.3421249L38.5082588,95.2173309z M38.5082588,96.824646
		c-1.104805-0.0784073-2.0599251,0.3920288-2.8653603,0.8375092l2.8653603,0.3350067V96.824646z M50.3047104,103.7136307
		c-0.6379356,0.7662354-0.5025101,2.1133881-0.7484131,2.7620087c0.5452728-0.7234726,1.2366638-1.4184265,1.7605553-2.1846619
		C51.0174866,104.0272522,50.6610985,103.8775711,50.3047104,103.7136307 M51.6518555,104.5511398
		c-0.6165466,0.7876205-0.5773468,2.1133804-0.6700058,2.8582306c0.6165504-0.6129837,0.9693756-1.3293228,1.6108704-1.9387436
		C52.8172493,104.9788055,51.9726067,104.8326874,51.6518555,104.5511398 M53.0952301,105.4706268
		c-0.7662315,0.7448502-0.6379356,1.8674774-0.7662315,2.8546677l1.7783737-2.1810989
		C53.7509842,105.9161072,53.4516182,105.616745,53.0952301,105.4706268 M54.442379,106.4043579
		c-0.7662354,0.7448502-0.6343727,1.8460922-0.7662354,2.8582382l1.7819405-2.2844467
		C55.1373329,106.72155,54.7809486,106.5718689,54.442379,106.4043579 M55.793087,107.2454376
		c-0.5987282,0.8018723-0.7305946,1.8068848-0.7697983,2.8546677c0.5630951-0.7626724,1.2188492-1.475441,1.6892815-2.2773209
		C56.4132042,107.6374664,56.1280937,107.3559189,55.793087,107.2454376 M25.6034412,56.5848465
		c0.5310173,0,0.958683-0.4276619,0.958683-0.9551125s-0.4276657-0.9586906-0.958683-0.9586906
		c-0.5345821,0-0.9622498,0.4312401-0.9622498,0.9586906S25.0688591,56.5848465,25.6034412,56.5848465"/>
</g>
<rect x="1.7453852" y="162.0658875" class="st0" width="145.6452026" height="15.9341192"/>
</svg>
