<?xml version="1.0" encoding="utf-8"?>
<!-- Generator: Adobe Illustrator 22.1.0, SVG Export Plug-In . SVG Version: 6.00 Build 0)  -->
<svg version="1.1" xmlns="http://www.w3.org/2000/svg" xmlns:xlink="http://www.w3.org/1999/xlink" x="0px" y="0px"
	 viewBox="0 0 159.9 41.2" style="enable-background:new 0 0 159.9 41.2;" xml:space="preserve">
<style type="text/css">
	.st0{fill:#E63323;}
	.st1{fill:#FFFFFF;}
</style>
<g id="Layer_1">
	<path class="st0" d="M41.2,20.6c0,11.4-9.2,20.6-20.6,20.6C9.2,41.2,0,32,0,20.6C0,9.2,9.2,0,20.6,0C32,0,41.2,9.2,41.2,20.6z"/>
	<g>
		<g>
			<path class="st1" d="M11.5,13c-1.3,0-2.3-0.9-2.3-2.1c0-1.1,1-2.1,2.3-2.1c1.3,0,2.3,1,2.3,2.1C13.8,12.1,12.7,13,11.5,13z
				 M9.4,31.3V14.7h4.2v16.6H9.4z"/>
			<path class="st1" d="M30.8,31.3v-1.5c-0.1,0.1-0.6,0.1-0.7,0.2c-1.2,1.2-2.9,1.8-4.7,1.8c-5.5,0-8.7-4.5-8.7-8.8
				c0-4.1,3.4-8.8,8.9-8.8c2,0,3.7,0.7,4.7,1.9l0.4-0.6V9.7h3.8v21.5H30.8z M25.9,17.8c-2.8,0-5.1,2.3-5.1,5.2s2.3,5.2,5.1,5.2
				c2.7,0,5.1-2.3,5.1-5.2S28.6,17.8,25.9,17.8z"/>
		</g>
	</g>
	<g>
		<g>
			<path d="M58.8,23.5H46.4c0,1,0.2,1.9,0.5,2.7c0.3,0.8,0.7,1.4,1.3,1.9c0.5,0.5,1.1,0.8,1.9,1.1c0.7,0.2,1.5,0.4,2.4,0.4
				c1.1,0,2.3-0.2,3.4-0.7c1.2-0.4,2-0.9,2.5-1.3h0.1v3.1c-1,0.4-1.9,0.7-2.9,1c-1,0.3-2,0.4-3.1,0.4c-2.8,0-5-0.8-6.5-2.3
				c-1.6-1.5-2.3-3.7-2.3-6.4c0-2.8,0.8-4.9,2.2-6.6c1.5-1.6,3.5-2.4,5.9-2.4c2.3,0,4,0.7,5.2,2c1.2,1.3,1.8,3.2,1.8,5.6V23.5z
				 M56,21.4c0-1.5-0.4-2.7-1.1-3.5c-0.7-0.8-1.8-1.2-3.3-1.2c-1.5,0-2.7,0.5-3.6,1.4c-0.9,0.9-1.4,2-1.5,3.4H56z"/>
			<path d="M79.5,31.7h-2.8v-9.6c0-0.8,0-1.5-0.1-2.2c-0.1-0.7-0.3-1.2-0.5-1.6c-0.3-0.4-0.6-0.7-1.1-0.9c-0.5-0.2-1.1-0.3-1.8-0.3
				c-0.8,0-1.6,0.2-2.4,0.6c-0.8,0.4-1.7,0.9-2.4,1.5v12.6h-2.8V14.9h2.8v1.9C69.1,16,70,15.4,71,15c0.9-0.4,1.9-0.6,2.9-0.6
				c1.8,0,3.2,0.5,4.2,1.6c1,1.1,1.4,2.7,1.4,4.7V31.7z"/>
			<path d="M96,31.6c-0.5,0.1-1.1,0.3-1.7,0.3c-0.6,0.1-1.2,0.1-1.7,0.1c-1.7,0-3-0.5-3.9-1.4c-0.9-0.9-1.3-2.4-1.3-4.5v-9h-1.9
				v-2.4h1.9V10h2.8v4.8H96v2.4h-5.9V25c0,0.9,0,1.6,0.1,2.1c0,0.5,0.2,1,0.4,1.4c0.2,0.4,0.5,0.7,0.9,0.9c0.4,0.2,1,0.3,1.8,0.3
				c0.5,0,0.9-0.1,1.5-0.2c0.5-0.1,0.9-0.2,1.1-0.3H96V31.6z"/>
			<path d="M104.7,12h-3.2v-3h3.2V12z M104.5,31.7h-2.8V14.9h2.8V31.7z"/>
			<path d="M121.3,31.6c-0.5,0.1-1.1,0.3-1.7,0.3c-0.6,0.1-1.2,0.1-1.7,0.1c-1.7,0-3-0.5-3.9-1.4c-0.9-0.9-1.3-2.4-1.3-4.5v-9h-1.9
				v-2.4h1.9V10h2.8v4.8h5.9v2.4h-5.9V25c0,0.9,0,1.6,0.1,2.1c0,0.5,0.2,1,0.4,1.4c0.2,0.4,0.5,0.7,0.9,0.9c0.4,0.2,1,0.3,1.8,0.3
				c0.5,0,0.9-0.1,1.5-0.2c0.5-0.1,0.9-0.2,1.1-0.3h0.2V31.6z"/>
			<path d="M140.1,31.7h-2.8v-1.8c-0.3,0.2-0.6,0.4-1,0.7c-0.4,0.3-0.8,0.6-1.2,0.7c-0.5,0.2-1,0.4-1.6,0.6
				c-0.6,0.2-1.3,0.2-2.2,0.2c-1.5,0-2.8-0.5-3.9-1.5c-1.1-1-1.6-2.3-1.6-3.8c0-1.3,0.3-2.3,0.8-3.1c0.5-0.8,1.3-1.4,2.3-1.9
				c1-0.5,2.3-0.8,3.7-0.9c1.4-0.2,3-0.3,4.6-0.4v-0.4c0-0.6-0.1-1.2-0.3-1.6c-0.2-0.4-0.6-0.8-1-1c-0.4-0.2-0.9-0.4-1.4-0.5
				c-0.6-0.1-1.2-0.1-1.8-0.1c-0.7,0-1.6,0.1-2.5,0.3c-0.9,0.2-1.9,0.5-2.8,0.9h-0.2v-2.9c0.6-0.1,1.4-0.3,2.4-0.5
				c1-0.2,2.1-0.3,3.1-0.3c1.2,0,2.2,0.1,3.1,0.3c0.9,0.2,1.6,0.5,2.3,1c0.6,0.5,1.1,1.1,1.4,1.8c0.3,0.7,0.5,1.6,0.5,2.7V31.7z
				 M137.3,27.6v-4.7c-0.9,0.1-1.9,0.1-3.1,0.2c-1.2,0.1-2.1,0.2-2.8,0.4c-0.8,0.2-1.5,0.6-2,1.1c-0.5,0.5-0.8,1.2-0.8,2
				c0,1,0.3,1.7,0.9,2.2c0.6,0.5,1.5,0.7,2.7,0.7c1,0,1.9-0.2,2.7-0.6C135.8,28.6,136.6,28.1,137.3,27.6z"/>
			<path d="M159.9,26.8c0,1.5-0.6,2.8-1.9,3.8c-1.3,1-3,1.5-5.2,1.5c-1.2,0-2.4-0.1-3.4-0.4c-1-0.3-1.9-0.6-2.6-1v-3.2h0.1
				c0.9,0.7,1.9,1.2,3,1.6c1.1,0.4,2.1,0.6,3.1,0.6c1.2,0,2.2-0.2,2.9-0.6c0.7-0.4,1.1-1,1.1-1.9c0-0.7-0.2-1.2-0.6-1.5
				c-0.4-0.3-1.1-0.6-2.2-0.9c-0.4-0.1-0.9-0.2-1.6-0.3c-0.6-0.1-1.2-0.2-1.8-0.4c-1.5-0.4-2.5-1-3.1-1.7c-0.6-0.8-0.9-1.7-0.9-2.8
				c0-0.7,0.1-1.3,0.4-2c0.3-0.6,0.7-1.2,1.3-1.6c0.6-0.5,1.3-0.8,2.1-1.1c0.9-0.3,1.8-0.4,2.9-0.4c1,0,2,0.1,3,0.4
				c1,0.2,1.9,0.5,2.6,0.9v3H159c-0.7-0.5-1.6-1-2.6-1.4c-1-0.4-2-0.6-3-0.6c-1,0-1.9,0.2-2.6,0.6c-0.7,0.4-1.1,1-1.1,1.8
				c0,0.7,0.2,1.2,0.6,1.6c0.4,0.4,1.1,0.6,2,0.9c0.5,0.1,1.1,0.2,1.7,0.4c0.6,0.1,1.2,0.2,1.6,0.3c1.3,0.3,2.3,0.8,3,1.5
				C159.5,24.6,159.9,25.6,159.9,26.8z"/>
		</g>
	</g>
</g>
<g id="solutions">
</g>
</svg>
