<?xml version="1.0" encoding="utf-8"?>
<!-- Generator: Adobe Illustrator 19.2.1, SVG Export Plug-In . SVG Version: 6.00 Build 0)  -->
<svg version="1.1" id="Ebene_1" xmlns="http://www.w3.org/2000/svg" xmlns:xlink="http://www.w3.org/1999/xlink" x="0px" y="0px"
	 viewBox="0 0 265 73.9" style="enable-background:new 0 0 265 73.9;" xml:space="preserve">
<style type="text/css">
	.st0{fill-rule:evenodd;clip-rule:evenodd;}
	.st1{fill:url(#SVGID_\);}
	.st2{fill:url(#SVGID_\);}
	.st3{fill:#575756;}
	.st4{fill:url(#SVGID_\);}
	.st5{fill:url(#SVGID_\);}
	.st6{fill:url(#SVGID_\);}
	.st7{fill:url(#SVGID_\);}
	.st8{fill:#565656;}
	.st9{fill:url(#SVGID_1\);}
	.st10{fill:url(#SVGID_2\);}
</style>
<g>
	<g>
		<g>
			<path class="st3" d="M150.8,13.7h-7.6c0.1,1.3,1,2.1,2.4,2.1c1,0,1.6-0.3,1.9-1h3.2c-0.3,2-2.4,3.4-5.1,3.4c-3.5,0-5.6-2-5.6-5.4
				c0-3.4,2.2-5.4,5.5-5.4c3.2,0,5.3,2,5.3,4.9C150.9,12.8,150.9,13.1,150.8,13.7z M147.7,11.7c0-1.4-0.8-2.1-2.2-2.1
				c-1.4,0-2.2,0.9-2.3,2.1H147.7z"/>
			<path class="st3" d="M152,10.5c0-4.2,2.9-7.9,7.9-7.9c5,0,7.9,3.6,7.9,7.9s-3,7.9-7.9,7.9C154.9,18.4,152,14.7,152,10.5z
				 M164.3,10.5c0-2.6-1.5-4.8-4.4-4.8c-2.8,0-4.4,2.2-4.4,4.8c0,2.6,1.5,4.8,4.4,4.8C162.7,15.3,164.3,13.1,164.3,10.5z"/>
			<path class="st3" d="M169.8,7.7h3.2v1.5c0.5-1,1.8-1.7,3.3-1.7c2.8,0,4.7,2.2,4.7,5.4c0,3.2-2,5.4-4.8,5.4
				c-1.5,0-2.7-0.8-3.2-1.7v5.7h-3.2V7.7z M177.7,12.8c0-1.6-1-2.7-2.4-2.7c-1.5,0-2.5,1.1-2.5,2.7c0,1.6,1,2.7,2.5,2.7
				C176.7,15.5,177.7,14.4,177.7,12.8z"/>
			<path class="st3" d="M193,13.7h-7.6c0.1,1.3,1,2.1,2.4,2.1c1,0,1.6-0.3,1.9-1h3.2c-0.3,2-2.4,3.4-5.1,3.4c-3.5,0-5.6-2-5.6-5.4
				c0-3.4,2.2-5.4,5.5-5.4c3.2,0,5.3,2,5.3,4.9C193.1,12.8,193,13.1,193,13.7z M189.9,11.7c0-1.4-0.8-2.1-2.2-2.1
				c-1.4,0-2.2,0.9-2.3,2.1H189.9z"/>
			<path class="st3" d="M194.9,7.7h3.2v2.1c0.4-1.5,1.6-2.3,2.8-2.3c0.4,0,0.6,0,0.8,0.1v3c-0.4,0-0.6-0.1-1-0.1
				c-1.6,0-2.7,1-2.7,3.4v3.9h-3.2V7.7z"/>
			<path class="st3" d="M202.8,12.8c0-3.1,1.9-5.4,4.9-5.4c1.5,0,2.7,0.7,3.2,1.7V7.7h3.2v10.2h-3.2v-1.4c-0.6,1-1.8,1.7-3.2,1.7
				C204.6,18.2,202.8,15.9,202.8,12.8z M211,12.8c0-1.5-0.8-2.7-2.4-2.7c-1.5,0-2.4,1.1-2.4,2.7s0.9,2.7,2.4,2.7
				C210.2,15.5,211,14.3,211,12.8z"/>
			<path class="st3" d="M223.3,15.4v2.6c-0.5,0.1-1.2,0.2-2.2,0.2c-1.5,0-3.6-0.3-3.6-3.8v-4.1h-1.6V7.7h1.6v-3h3.2v3h2.3v2.6h-2.3
				v3.4c0,1.5,0.6,1.7,1.4,1.7C222.6,15.4,223,15.4,223.3,15.4z"/>
			<path class="st3" d="M224.8,4.8c0-1.1,0.8-2,2-2c1.2,0,2,0.9,2,2c0,1.1-0.8,2-2,2C225.7,6.8,224.8,5.9,224.8,4.8z M225.2,7.7h3.2
				v10.2h-3.2V7.7z"/>
			<path class="st3" d="M230.3,12.8c0-3.1,2.2-5.4,5.7-5.4c3.5,0,5.7,2.3,5.7,5.4s-2.2,5.4-5.7,5.4
				C232.5,18.3,230.3,15.9,230.3,12.8z M238.4,12.8c0-1.5-0.9-2.7-2.4-2.7c-1.5,0-2.4,1.1-2.4,2.7s0.9,2.7,2.4,2.7
				C237.5,15.5,238.4,14.4,238.4,12.8z"/>
			<path class="st3" d="M243.5,7.7h3.2v1.5c0.6-1.1,1.8-1.8,3.3-1.8c2.5,0,3.7,1.4,3.7,4.2v6.3h-3.3v-5.3c0-1.7-0.5-2.5-1.8-2.5
				c-1.3,0-2,0.8-2,2.4v5.3h-3.2V7.7z"/>
			<path class="st3" d="M255.7,14.9h3.2c0,0.7,0.7,1.2,1.7,1.2c0.7,0,1.2-0.4,1.2-1c0-0.4-0.2-0.7-0.7-0.9l-2.5-0.6
				c-1.7-0.4-2.6-1.5-2.6-3c0-1.9,1.7-3.2,4.4-3.2c3,0,4.6,1.3,4.6,3.2h-3.2c0-0.7-0.5-1.1-1.4-1.1c-0.7,0-1.2,0.3-1.2,0.8
				c0,0.5,0.3,0.8,0.9,0.9l2.4,0.7c1.6,0.4,2.6,1.4,2.6,2.8c0,2.1-1.7,3.5-4.5,3.5C257.5,18.3,255.7,16.8,255.7,14.9z"/>
		</g>
		<g>
			<path class="st3" d="M140,31.7h1c0,1,0.6,1.7,1.7,1.7c0.9,0,1.4-0.4,1.4-1.2c0-0.6-0.3-1-1.2-1.3l-1.2-0.4c-1-0.3-1.5-1-1.5-1.9
				c0-1.2,0.9-2,2.3-2c1.4,0,2.4,0.9,2.4,2.2h-1c0-0.9-0.5-1.4-1.5-1.4c-0.8,0-1.3,0.4-1.3,1.1c0,0.6,0.4,1,1.3,1.3l1.1,0.4
				c1,0.3,1.4,1,1.4,2c0,1.2-0.9,2.1-2.4,2.1C141,34.2,140,33.2,140,31.7z"/>
			<path class="st3" d="M146.5,31.6c0-1.5,0.9-2.5,2.4-2.5c1.3,0,2.1,0.7,2.3,1.8h-0.9c-0.1-0.6-0.6-1-1.3-1c-0.9,0-1.5,0.6-1.5,1.7
				c0,1.1,0.6,1.7,1.5,1.7c0.8,0,1.2-0.3,1.3-0.9h0.9c-0.1,1.1-0.9,1.8-2.3,1.8C147.4,34.1,146.5,33.1,146.5,31.6z"/>
			<path class="st3" d="M153,26.7h0.9v3.4c0.3-0.6,0.8-1,1.7-1c1.2,0,1.8,0.7,1.8,2v3h-0.9v-2.6c0-1.1-0.3-1.6-1.2-1.6
				c-0.9,0-1.4,0.6-1.4,1.6V34H153V26.7z"/>
			<path class="st3" d="M158.8,29.2h1l1.2,3.5l1.2-3.5h1l1.2,3.5l1.2-3.5h1l-1.8,4.8h-0.8l-1.3-3.7l-1.3,3.7h-0.8L158.8,29.2z"/>
			<path class="st3" d="M172.2,31.8h-3.7c0,0.9,0.6,1.5,1.5,1.5c0.6,0,1.1-0.3,1.3-0.7h0.9c-0.2,0.9-1.1,1.5-2.2,1.5
				c-1.5,0-2.4-1-2.4-2.5c0-1.5,0.9-2.5,2.4-2.5c1.4,0,2.3,0.9,2.3,2.3C172.2,31.5,172.2,31.6,172.2,31.8z M171.3,31.1
				c0-0.8-0.5-1.4-1.4-1.4c-0.9,0-1.4,0.6-1.5,1.4H171.3z"/>
			<path class="st3" d="M173.8,27.6c0-0.4,0.3-0.7,0.7-0.7c0.4,0,0.7,0.3,0.7,0.7c0,0.4-0.3,0.7-0.7,0.7
				C174.1,28.3,173.8,28,173.8,27.6z M174,29.2h0.9V34H174V29.2z"/>
			<path class="st3" d="M179.3,29.9h-2.6v-0.8h4.2l-2.8,4.1h2.7V34h-4.2L179.3,29.9z"/>
		</g>
		<g>
			<path class="st3" d="M140,44.6h1c0,1,0.6,1.7,1.7,1.7c0.9,0,1.4-0.4,1.4-1.2c0-0.6-0.3-1-1.2-1.3l-1.2-0.4c-1-0.3-1.5-1-1.5-1.9
				c0-1.2,0.9-2,2.3-2c1.4,0,2.4,0.9,2.4,2.2h-1c0-0.9-0.5-1.4-1.5-1.4c-0.8,0-1.3,0.4-1.3,1.1c0,0.6,0.4,1,1.3,1.3l1.1,0.4
				c1,0.3,1.4,1,1.4,2c0,1.2-0.9,2.1-2.4,2.1C141,47.1,140,46.2,140,44.6z"/>
			<path class="st3" d="M146.8,45.1v-3h0.9v2.8c0,0.9,0.3,1.4,1.2,1.4c1,0,1.4-0.8,1.4-1.5v-2.6h0.9V47h-0.9v-0.9
				c-0.3,0.6-0.8,1-1.6,1C147.6,47.1,146.8,46.5,146.8,45.1z"/>
			<path class="st3" d="M153.1,40.6c0-0.4,0.3-0.7,0.7-0.7c0.4,0,0.7,0.3,0.7,0.7c0,0.4-0.3,0.7-0.7,0.7
				C153.4,41.3,153.1,41,153.1,40.6z M153.4,42.1h0.9V47h-0.9V42.1z"/>
			<path class="st3" d="M156.1,45.5h0.9c0,0.5,0.4,0.8,1.2,0.8c0.5,0,0.9-0.3,0.9-0.7c0-0.3-0.1-0.5-0.5-0.6l-1.3-0.3
				c-0.7-0.2-1-0.7-1-1.3c0-0.8,0.7-1.4,1.8-1.4c1.2,0,1.9,0.6,1.9,1.5H159c0-0.5-0.4-0.8-1-0.8c-0.5,0-0.9,0.2-0.9,0.6
				c0,0.3,0.1,0.5,0.5,0.6l1.2,0.3c0.7,0.2,1.1,0.7,1.1,1.3c0,0.9-0.7,1.5-1.9,1.5C156.9,47.1,156.1,46.4,156.1,45.5z"/>
			<path class="st3" d="M161.5,45.5h0.9c0,0.5,0.4,0.8,1.2,0.8c0.5,0,0.9-0.3,0.9-0.7c0-0.3-0.1-0.5-0.5-0.6l-1.3-0.3
				c-0.7-0.2-1-0.7-1-1.3c0-0.8,0.7-1.4,1.8-1.4c1.2,0,1.9,0.6,1.9,1.5h-0.9c0-0.5-0.4-0.8-1-0.8c-0.5,0-0.9,0.2-0.9,0.6
				c0,0.3,0.1,0.5,0.5,0.6l1.2,0.3c0.7,0.2,1.1,0.7,1.1,1.3c0,0.9-0.7,1.5-1.9,1.5C162.2,47.1,161.5,46.4,161.5,45.5z"/>
			<path class="st3" d="M171.4,44.8h-3.7c0,0.9,0.6,1.5,1.5,1.5c0.6,0,1.1-0.3,1.3-0.7h0.9c-0.2,0.9-1.1,1.5-2.2,1.5
				c-1.5,0-2.4-1-2.4-2.5c0-1.5,0.9-2.5,2.4-2.5c1.4,0,2.3,0.9,2.3,2.3C171.5,44.5,171.5,44.6,171.4,44.8z M170.6,44.1
				c0-0.8-0.5-1.4-1.4-1.4c-0.9,0-1.4,0.6-1.5,1.4H170.6z"/>
		</g>
		<g>
			<path class="st3" d="M140,57.6h1c0,1,0.6,1.7,1.7,1.7c0.9,0,1.4-0.4,1.4-1.2c0-0.6-0.3-1-1.2-1.3l-1.2-0.4c-1-0.3-1.5-1-1.5-1.9
				c0-1.2,0.9-2,2.3-2c1.4,0,2.4,0.9,2.4,2.2h-1c0-0.9-0.5-1.4-1.5-1.4c-0.8,0-1.3,0.4-1.3,1.1c0,0.6,0.4,1,1.3,1.3l1.1,0.4
				c1,0.3,1.4,1,1.4,2c0,1.2-0.9,2.1-2.4,2.1C141,60.1,140,59.2,140,57.6z"/>
			<path class="st3" d="M146.1,55.1h1l1.5,3.6l1.5-3.6h1L149,60h-0.7L146.1,55.1z"/>
			<path class="st3" d="M152.3,53.6c0-0.4,0.3-0.7,0.7-0.7c0.4,0,0.7,0.3,0.7,0.7c0,0.4-0.3,0.7-0.7,0.7
				C152.6,54.3,152.3,54,152.3,53.6z M152.6,55.1h0.9V60h-0.9V55.1z"/>
			<path class="st3" d="M157.9,55.9h-2.6v-0.8h4.2l-2.8,4.1h2.7V60H155L157.9,55.9z"/>
			<path class="st3" d="M163.1,55.9h-2.6v-0.8h4.2l-2.8,4.1h2.7V60h-4.2L163.1,55.9z"/>
			<path class="st3" d="M170.4,57.8h-3.7c0,0.9,0.6,1.5,1.5,1.5c0.6,0,1.1-0.3,1.3-0.7h0.9c-0.2,0.9-1.1,1.5-2.2,1.5
				c-1.5,0-2.4-1-2.4-2.5c0-1.5,0.9-2.5,2.4-2.5c1.4,0,2.3,0.9,2.3,2.3C170.4,57.5,170.4,57.6,170.4,57.8z M169.5,57.1
				c0-0.8-0.5-1.4-1.4-1.4c-0.9,0-1.4,0.6-1.5,1.4H169.5z"/>
			<path class="st3" d="M172.2,55.1h0.9v1.1c0.2-0.8,0.8-1.2,1.4-1.2c0.2,0,0.3,0,0.4,0v0.8c-0.2,0-0.3,0-0.5,0
				c-1,0-1.4,0.9-1.4,1.9V60h-0.9V55.1z"/>
			<path class="st3" d="M176.3,57.5c0-1.4,0.9-2.5,2.4-2.5c0.8,0,1.4,0.4,1.7,1v-0.8h0.9V60h-0.9v-0.8c-0.3,0.6-1,1-1.7,1
				C177.1,60.1,176.3,59,176.3,57.5z M180.4,57.5c0-0.9-0.6-1.7-1.6-1.7c-1,0-1.6,0.7-1.6,1.7c0,1,0.6,1.7,1.6,1.7
				C179.8,59.3,180.4,58.5,180.4,57.5z"/>
		</g>
	</g>
	<g>
		<linearGradient id="SVGID_1_" gradientUnits="userSpaceOnUse" x1="35.1419" y1="73.0646" x2="35.1419" y2="31.1373">
			<stop  offset="0.1279" style="stop-color:#FABA20"/>
			<stop  offset="0.4634" style="stop-color:#FCC71B"/>
			<stop  offset="1" style="stop-color:#FFD815"/>
		</linearGradient>
		<path class="st1" d="M68.6,31.9c-2.1-2.1-5.5-2.3-7.7-0.4l0,0L32.3,59.2c-4.9-0.5-9.4-2.5-13.1-5.8c-4.8-4.3-7.7-10.5-7.7-17l0,0
			c0-0.2,0-0.4,0-0.6c0-6.4,2.4-12.4,6.8-16.9c4.6-4.8,10.9-7.4,17.5-7.4c4.7,0,9.2,1.3,13,3.8l-19.6,19c-2.2,2.3-2.2,6,0.2,8.2
			c1.1,1,2.4,1.5,3.8,1.6c1.6,0,3.3-0.7,4.5-1.9l23.7-23.4c1.5-1.6,1.9-3.9,1.2-5.9c-0.3-0.9-0.7-1.7-1.4-2.4
			c-2.5-2.5-5.3-4.6-8.4-6.2c-5.2-2.8-11-4.3-17-4.3c-9.8,0-19,3.9-25.8,10.9C3.6,17.7,0,26.5,0,35.8c0,1.9,0.2,3.8,0.4,5.6
			c0.9,6.1,3.5,11.9,7.4,16.7c1.2,1.5,2.6,3,4.1,4.3c0.3,0.3,1.1,0.8,1.1,0.9c6.1,4.8,13.7,7.5,21.5,7.5h2.3l31.4-30.5
			c0.1-0.1,0.6-0.6,0.6-0.6l0,0C70.8,37.4,70.7,34,68.6,31.9z"/>
		<linearGradient id="SVGID_2_" gradientUnits="userSpaceOnUse" x1="93.5363" y1="72.1002" x2="93.5363" y2="36.4855">
			<stop  offset="0" style="stop-color:#B52B2B"/>
			<stop  offset="1" style="stop-color:#E63338"/>
		</linearGradient>
		<path class="st2" d="M110.9,9L110.9,9C105.2,5.1,98.6,3,91.7,3h-2.4L60.8,31.4c2.3-1.8,5.6-1.7,7.7,0.4c2.2,2.2,2.3,5.6,0.3,7.9
			L94,14.6c3.8,0.4,7.3,1.7,10.5,3.8l0,0c6.5,4.5,10.4,11.9,10.4,19.8c0,6.3-2.4,12.2-6.7,16.7l-0.4,0.4c-4.5,4.3-11.1,7.1-17.3,7.1
			c-6,0-11.6-2.2-16.1-6.1c-0.3-0.2-0.5-0.5-0.8-0.7c0,0,0,0,0,0c0,0-0.1-0.1-0.1-0.1c-2.3-2.2-5.9-2.2-8.1,0.1
			c-2.2,2.3-2.2,5.9,0.1,8.1c0.4,0.4,0.8,0.8,1.3,1.2c6.5,5.9,14.9,9.1,23.7,9.1c9.2,0,17.9-3.5,24.6-9.8
			c7.1-6.8,11.1-15.9,11.1-25.8C126.2,26.5,120.5,15.6,110.9,9z"/>
	</g>
</g>
</svg>
